<?xml version="1.0" encoding="utf-8"?>
<!-- Generated by IcoMoon.io -->
<!DOCTYPE svg PUBLIC "-//W3C//DTD SVG 1.1//EN" "http://www.w3.org/Graphics/SVG/1.1/DTD/svg11.dtd">
<svg version="1.1" xmlns="http://www.w3.org/2000/svg" xmlns:xlink="http://www.w3.org/1999/xlink" width="80" height="80" viewBox="0 0 80 80">
<path fill="#000000" d="M34.464 52.912c-2.1 11.012-4.664 21.572-12.264 27.088-2.344-16.648 3.444-29.148 6.132-42.42-4.584-7.72 0.552-23.248 10.224-19.42 11.9 4.708-10.304 28.692 4.6 31.688 15.564 3.128 21.916-27 12.268-36.796-13.944-14.152-40.592-0.328-37.312 19.924 0.796 4.952 5.912 6.456 2.044 13.288-8.924-1.976-11.588-9.016-11.244-18.4 0.552-15.356 13.8-26.108 27.088-27.596 16.808-1.884 32.58 6.168 34.752 21.976 2.452 17.84-7.58 37.164-25.556 35.772-4.868-0.372-6.912-2.784-10.732-5.104z"></path>
</svg>
