<?xml version="1.0" encoding="utf-8"?>
<!-- Generated by IcoMoon.io -->
<!DOCTYPE svg PUBLIC "-//W3C//DTD SVG 1.1//EN" "http://www.w3.org/Graphics/SVG/1.1/DTD/svg11.dtd">
<svg version="1.1" xmlns="http://www.w3.org/2000/svg" xmlns:xlink="http://www.w3.org/1999/xlink" width="80" height="80" viewBox="0 0 80 80">
<path fill="#000000" d="M7.96 22.356c0 5.972 1.996 10.288 5.928 12.82 3.22 2.076 6.96 2.388 8.904 2.388 0.472 0 0.848-0.020 1.112-0.036 0 0-0.616 4.012 2.36 7.984l-0.136-0.004c-5.156 0-21.976 1.080-21.976 14.908 0 14.068 15.448 14.78 18.544 14.78 0.244 0 0.384-0.004 0.384-0.004 0.036 0 0.256 0.008 0.632 0.008 1.988 0 7.128-0.248 11.904-2.572 6.192-3.004 9.336-8.236 9.336-15.54 0-7.060-4.784-11.26-8.28-14.332-2.132-1.872-3.976-3.488-3.976-5.060 0-1.6 1.344-2.804 3.048-4.328 2.752-2.464 5.352-5.972 5.352-12.604 0-5.832-0.756-9.744-5.416-12.224 0.488-0.248 2.204-0.428 3.056-0.548 2.524-0.344 6.216-0.736 6.216-2.796v-0.396h-18.392c-0.184 0.004-18.6 0.688-18.6 17.556zM37.652 58.408c0.352 5.624-4.46 9.776-11.684 10.3-7.336 0.54-13.38-2.764-13.732-8.388-0.168-2.7 1.016-5.344 3.34-7.452 2.36-2.132 5.592-3.448 9.116-3.712 0.416-0.024 0.828-0.044 1.24-0.044 6.788 0 11.388 3.992 11.72 9.296zM32.848 18.504c1.804 6.348-0.92 12.984-5.26 14.208-0.5 0.14-1.016 0.212-1.536 0.212-3.98 0-7.92-4.024-9.38-9.568-0.816-3.116-0.752-5.836 0.184-8.456 0.92-2.572 2.572-4.316 4.652-4.9 0.5-0.144 1.020-0.212 1.54-0.212 4.8 0 7.888 1.992 9.8 8.716zM63.844 32.328v-12h-7.6v12h-12v7.6h12v12h7.6v-12h12v-7.6h-12z"></path>
</svg>
