<svg id="Layer_1" xmlns="http://www.w3.org/2000/svg" viewBox="0 0 300 55.6"><style>.st0{fill:#231F20;} .st1{fill:#4A3A96;}</style><g id="XMLID_4_"><path id="XMLID_5_" class="st0" d="M67.2 35v16.4h-8.3V8.2h12.2c2.8 0 6.7 0 9.9 2.2 2.8 1.9 4.5 5.3 4.5 10.7 0 6.3-2.4 10.2-6.1 12.1L87 51.4h-9.4L71.4 35h-4.2zm0-7.1h3.9c.8 0 2.6 0 3.8-.9 1.1-.8 1.8-3 1.8-5.6 0-2.4-.6-4.3-1.7-5.2-1.2-.9-2.9-.9-3.7-.9h-4v12.6z"/><path id="XMLID_8_" class="st0" d="M97.9 8.2v17.3h11.2V8.2h8.7v43.2h-8.7V32.7H97.9v18.7h-8.7V8.2h8.7z"/><path id="XMLID_10_" class="st0" d="M142.1 51.4L140 42h-11.2l-2.2 9.4H119l10.9-43.2h10.5l10.8 43.2h-9.1zm-11.8-16.2h8.2l-4-17.9-4.2 17.9z"/><path id="XMLID_13_" class="st0" d="M163.3 8.2c2.8 0 6.7.1 9.7 1.9 3.6 2.1 5.8 6.3 5.8 12.7 0 6.6-2.3 10.8-5.7 13-3 1.9-6.5 2.1-9.7 2.1H161v13.4h-8.7V8.2h11zM161 30.9h2.6c1.1 0 2.8 0 4.1-1.1 1.4-1.2 2-3.6 2-6.8 0-3.5-.8-5.6-2.1-6.7-1.2-.9-2.8-1-4-1H161v15.6z"/><path id="XMLID_16_" class="st0" d="M201.1 16h-.4s-3.6-1.2-6.7-1.2c-3.3 0-5 1.4-5 4 0 4 4.1 5.5 7.8 8.5 3.3 2.6 5.9 5.9 5.9 11.8 0 8.5-5.4 12.7-14.1 12.7-4.8 0-8.2-1.3-8.2-1.3v-7.2h.4s4 1.5 7.3 1.5c3.5 0 5.6-1.7 5.6-4.6 0-4.3-4.4-6.1-8.8-9.8-2.9-2.4-5-5.3-5-10.4 0-7.7 4.6-12.1 13.1-12.1 4.3 0 7.9 1.1 7.9 1.1v7z"/><path id="XMLID_18_" class="st0" d="M233 46.2c-2.7 4-7.1 5.8-12.7 5.8s-10-1.9-12.6-5.8c-2.4-3.6-3.3-9-3.3-16.5 0-7.8.9-12.8 3.4-16.4 2.5-3.6 6.8-5.8 12.7-5.8 5.7 0 10 2 12.6 5.8 2.6 3.8 3.4 9.5 3.4 16.4-.1 7.2-.9 12.7-3.5 16.5zm-7.3-4.4c1-2 1.4-4.9 1.4-12s-.4-10-1.4-12c-1.1-2.1-2.9-3.2-5.4-3.2-2.3 0-4.1.9-5.3 3.2-1 2-1.4 4.9-1.4 12s.4 10 1.4 12c1.1 2.3 2.9 3.2 5.3 3.2 2.6 0 4.4-1.1 5.4-3.2z"/><path id="XMLID_21_" class="st0" d="M250 8.2c4 0 8.2.1 12.2 2.5 4.1 2.6 7 7.3 7 19 0 11.4-2.7 16.4-7.1 19.1-4 2.5-8.4 2.5-12.1 2.5h-10.3V8.2H250zm-1.6 36.1h2.6c1.5 0 3.7 0 5.5-1.3 2.8-1.9 3.6-6 3.6-13.2 0-7.2-.9-11.3-3.7-13.2-1.8-1.3-4-1.3-5.4-1.3h-2.6v29z"/><path id="XMLID_24_" class="st0" d="M277.4 8.2l6.5 17.8 6.5-17.8h7.9l-10.9 27.2v16h-8.7V35.6L267.8 8.2h9.6z"/></g><g id="XMLID_3_"><path id="XMLID_29_" class="st1" d="M20.5 37.3h-4.8v17.1c3.7 1.1 7.6 1.2 11.4.3l-6.6-17.4z"/><path id="XMLID_30_" class="st1" d="M6.1 15.4c-.2.3-.3.5-.5.8-6.5 11-6 23.8.5 31.8V15.4z"/><path id="XMLID_31_" class="st1" d="M26.5 21.7c0-2.7-.6-4.9-1.9-6-1.4-1.1-3.3-1.1-4.2-1.1h-4.6v14.5h4.5c.9 0 3 0 4.3-1 1.1-.8 1.9-3.3 1.9-6.4z"/><path id="XMLID_32_" class="st1" d="M40.3 3.8C32.3-.9 22.2.5 14.1 6.6H20c3.2 0 7.6 0 11.3 2.5 3.2 2.2 5.2 6.1 5.2 12.3 0 7.3-2.8 11.7-7 13.9L36 50.8c3.9-2.6 7.4-6.1 10-10.6 8.1-13.5 5.5-29.7-5.7-36.4z"/></g></svg>