<?xml version="1.0" encoding="utf-8"?>
<!-- Generator: Adobe Illustrator 18.0.0, SVG Export Plug-In . SVG Version: 6.00 Build 0)  -->
<!DOCTYPE svg PUBLIC "-//W3C//DTD SVG 1.1//EN" "http://www.w3.org/Graphics/SVG/1.1/DTD/svg11.dtd">
<svg version="1.1" id="Layer_1" xmlns="http://www.w3.org/2000/svg" xmlns:xlink="http://www.w3.org/1999/xlink" x="0px" y="0px"
	 viewBox="0 0 736.5 535.2" enable-background="new 0 0 736.5 535.2" xml:space="preserve">
<path fill="#20AD8C" d="M222.6,126c0,0,8-8,9.9-9.1c1.9-1.1,24.4-6.3,24.4-6.3s10.4-13.9,11.8-15c1.3-1.1,29.7-12.4,32.7-12.8
	c2.9-0.4,39.9,7.6,39.9,7.6l4.5-4.8c0,0,11.5-4.1,13.1-4.6c1.6-0.4,19.5-2,19.5-2l35.6-2.6l19.8,7.2
	C433.8,83.8,230.4,125.8,222.6,126z"/>
<path fill="#FFFDE8" d="M60.7,293.9c0,0,90.1-5.9,123.6-4.8c33.5,1.1,182.2,9.4,186.4,9.4c4.3,0,30.7-1.5,30.7-1.5
	s-144.1-8.8-218.7-9.4c-74.6-0.6-154.6,7-154.6,7L60.7,293.9z"/>
<path fill="#FFFDE8" d="M248,312.4c0,0,55.1-2.1,80.8,0.1c25.7,2.2,116.6,5.7,170.7,1.6l-19.8-4.8c0,0-67.4,3.8-114,3.2
	c-46.6-0.6-100.6-4.2-100.6-4.2L248,312.4z"/>
<path fill="#FAF1D2" d="M463.1,313c0,0,26.3,1.9,52.5-0.7c0,0-15.6-2-27.4-3C476.4,308.4,463.1,313,463.1,313z"/>
<path fill="#008564" d="M360.2,111.5c0,0,14.5-11.5,15.3-11.8c0.8-0.3,18.5,1.3,18.5,1.3s5.6-2.7,6.7-2.4s27.8,6.4,27.8,6.4
	S388.8,114.5,360.2,111.5z"/>
<path fill="#008564" d="M406,119.8c0,0,4.3-4.8,8.3-5.4s18.5,2.1,18.5,2.1S414.5,121.2,406,119.8z"/>
<g>
	<g>
		<path opacity="0.53" fill="#BA6950" d="M716.7,476.8c0,0-295.4,26.5-334.3,24.5c-156.9-7.8-304.8-56.7-304.8-56.7
			s70.5-31,227.7-31C462.5,413.8,716.7,476.8,716.7,476.8z"/>
		<g>
			<polygon fill="#B88F68" points="470.9,160 492.7,194.2 489.3,169.8 529.9,208.4 506.6,171.9 532.6,192.3 519.4,170 556.7,195.3 
				541.1,169.4 567.7,185.3 548.3,158.1 507.7,157.6 			"/>
			<polygon fill="#B88F68" points="146.3,160 124.4,194.2 127.9,169.8 99.2,193.1 110.6,171.9 75.8,196.2 92.1,170.9 55.8,196.5 
				75,171.4 45.5,191.2 68.9,158.1 109.5,157.6 			"/>
			<linearGradient id="SVGID_1_" gradientUnits="userSpaceOnUse" x1="306.966" y1="290.339" x2="306.966" y2="168.0444">
				<stop  offset="0" style="stop-color:#703229"/>
				<stop  offset="0.1461" style="stop-color:#62262B"/>
				<stop  offset="0.4099" style="stop-color:#50162E"/>
				<stop  offset="0.6877" style="stop-color:#460D2F"/>
				<stop  offset="1" style="stop-color:#420A30"/>
			</linearGradient>
			<path fill="url(#SVGID_1_)" d="M134.3,170l342.1-1.9c0,0,3.8,121.3,3.2,119.9c-0.5-1.4-344.2,2.4-344.2,2.4L134.3,170z"/>
			<polygon fill="#884828" points="137,293.7 139.4,161.8 114.3,161.8 115.9,292.2 			"/>
			<polygon fill="#884522" points="539.5,285.4 512.2,277.4 511.7,288.7 539.5,288.8 			"/>
			<polygon fill="#884522" points="68.8,287 96.1,279.1 96.6,290.4 68.8,290.4 			"/>
			<polygon fill="#884828" points="493.2,293.7 495.6,161.8 470.5,161.8 472.1,292.2 			"/>
			<polygon fill="#7D3B19" points="530.2,177.3 80.6,180.5 78.5,161.1 531.7,153.8 			"/>
			<polygon fill="#EDAC61" points="109.1,296.4 501.9,293 503.8,430.6 109.1,428.9 			"/>
			<polygon fill="#C98E58" points="91.7,159 117.4,157.8 121.6,444.9 101.9,444.9 			"/>
			<polygon opacity="0.68" fill="#E8B6B9" points="117.4,157.8 104.2,158.4 110.9,444.9 121.6,444.9 			"/>
			<g>
				<g>
					
						<rect x="73.3" y="362" transform="matrix(8.972123e-03 1 -1 8.972123e-03 494.1581 226.241)" fill="#D9954A" width="119.3" height="0.8"/>
				</g>
				<g>
					<polygon fill="#D9954A" points="145.5,422.1 141.7,303.5 142.5,303.5 146.3,422.1 					"/>
				</g>
				<g>
					<polygon fill="#D9954A" points="156,422.2 155.2,422.2 156.3,303 157.1,303 					"/>
				</g>
				<g>
					<polygon fill="#D9954A" points="166.5,422.2 164.9,304 165.7,303.9 167.3,422.2 					"/>
				</g>
				<g>
					<polygon fill="#D9954A" points="177,421.5 176.2,421.5 177.9,303.9 178.7,304 					"/>
				</g>
				<g>
					<polygon fill="#D9954A" points="191.3,421 189.2,302.5 190,302.5 192.2,421 					"/>
				</g>
				<g>
					<path fill="#D9954A" d="M196.7,420.5c-0.4-40-1.2-116.2-1.6-118l0.8-0.2c0.5,1.1,1.5,98.7,1.7,118.2L196.7,420.5z"/>
				</g>
				<g>
					<rect x="207.8" y="303.5" fill="#D9954A" width="0.8" height="118.9"/>
				</g>
				<g>
					<path fill="#D9954A" d="M221.8,422.5H221c0-12.1,0-118.1,0.6-119.6l0.8,0.2L222,303l0.4,0.1C221.9,304.9,221.8,382,221.8,422.5
						z"/>
				</g>
				<g>
					
						<rect x="334.2" y="362" transform="matrix(8.981063e-03 1 -1 8.981063e-03 752.7178 -34.6558)" fill="#D9954A" width="119.3" height="0.8"/>
				</g>
				<g>
					<polygon fill="#D9954A" points="406.4,422.1 402.7,301.8 403.5,301.8 407.2,422.1 					"/>
				</g>
				<g>
					
						<rect x="416.7" y="302.3" transform="matrix(0.9999 1.158122e-02 -1.158122e-02 0.9999 4.2231 -4.8061)" fill="#D9954A" width="0.8" height="119.9"/>
				</g>
				<g>
					<polygon fill="#D9954A" points="427.4,422.2 425.8,302.4 426.6,302.4 428.2,422.2 					"/>
				</g>
				<g>
					
						<rect x="438" y="302.3" transform="matrix(0.9999 1.026685e-02 -1.026685e-02 0.9999 3.7384 -4.482)" fill="#D9954A" width="0.8" height="119.2"/>
				</g>
				<g>
					<polygon fill="#D9954A" points="452.2,421 450.1,302.5 450.9,302.5 453.1,421 					"/>
				</g>
				<g>
					
						<rect x="399" y="361.2" transform="matrix(1.472667e-03 1 -1 1.472667e-03 818.8857 -96.8945)" fill="#D9954A" width="117.8" height="0.8"/>
				</g>
				<g>
					<rect x="468.7" y="302.2" fill="#D9954A" width="0.8" height="120.3"/>
				</g>
				<g>
					<rect x="482.1" y="301.9" fill="#D9954A" width="0.8" height="120.6"/>
				</g>
				<g>
					
						<rect x="200.8" y="361.9" transform="matrix(1.342228e-02 0.9999 -0.9999 1.342228e-02 619.8896 96.4368)" fill="#D9954A" width="120.6" height="0.8"/>
				</g>
				<g>
					
						<rect x="207.7" y="361.9" transform="matrix(1.337544e-02 0.9999 -0.9999 1.337544e-02 626.8186 89.4357)" fill="#D9954A" width="120.7" height="0.8"/>
				</g>
				<g>
					<rect x="280.4" y="301.9" fill="#D9954A" width="0.8" height="120.8"/>
				</g>
				<g>
					<polygon fill="#D9954A" points="288.2,422.8 287.4,422.8 293.3,301.5 294.1,301.6 					"/>
				</g>
				<g>
					
						<rect x="239.6" y="362.6" transform="matrix(4.392805e-03 1 -1 4.392805e-03 661.1011 62.0677)" fill="#D9954A" width="119.6" height="0.8"/>
				</g>
				<g>
					<polygon fill="#D9954A" points="310.6,422.9 309,301.8 309.8,301.7 311.4,422.9 					"/>
				</g>
				<g>
					<rect x="316.6" y="301.7" fill="#D9954A" width="0.8" height="121.2"/>
				</g>
				<g>
					<polygon fill="#D9954A" points="332.7,423 328.4,301.7 329.2,301.6 333.5,423 					"/>
				</g>
				<g>
					<rect x="341.9" y="301.6" fill="#D9954A" width="0.8" height="121.5"/>
				</g>
				<g>
					
						<rect x="290.3" y="361.9" transform="matrix(1.112744e-02 0.9999 -0.9999 1.112744e-02 709.4171 7.2403)" fill="#D9954A" width="121.6" height="0.8"/>
				</g>
				<g>
					<polygon fill="#D9954A" points="364.5,423.1 360.2,301.5 361,301.4 365.3,423.1 					"/>
				</g>
				<g>
					<polygon fill="#D9954A" points="208.1,393.6 208,392.9 221.4,392.6 221.5,393.3 					"/>
				</g>
				<g>
					<polygon fill="#D9954A" points="190.6,357.1 190.6,356.4 196.4,356 196.5,356.7 					"/>
				</g>
				<g>
					<rect x="166.8" y="412.3" fill="#D9954A" width="10" height="0.7"/>
				</g>
				<g>
					<rect x="143.3" y="338.8" fill="#D9954A" width="13.1" height="0.7"/>
				</g>
				<g>
					<polygon fill="#D9954A" points="155.8,394.7 145,394 145,393.3 155.9,394 					"/>
				</g>
				<g>
					<polygon fill="#D9954A" points="221.6,335.6 221.5,334.9 233.1,333.5 233.2,334.2 					"/>
				</g>
				<g>
					<polygon fill="#D9954A" points="120.6,375.4 120.6,374.7 133,374.3 133.1,375 					"/>
				</g>
				<g>
					<polygon fill="#D9954A" points="261.2,365.3 261.1,364.6 268.1,363.9 268.2,364.6 					"/>
				</g>
				<g>
					<polygon fill="#D9954A" points="268.7,413.7 261.7,413.4 261.8,412.6 268.8,413 					"/>
				</g>
				<g>
					<polygon fill="#D9954A" points="280.8,375 280.7,374.3 290.1,373.6 290.2,374.3 					"/>
				</g>
				<g>
					<polygon fill="#D9954A" points="280.8,318.8 280.7,318 292.9,316.6 293,317.3 					"/>
				</g>
				<g>
					<polygon fill="#D9954A" points="299.2,396.9 299.1,396.2 310.6,395.4 310.7,396.1 					"/>
				</g>
				<g>
					<polygon fill="#D9954A" points="299.3,334.6 299.2,333.9 309.7,333.1 309.8,333.8 					"/>
				</g>
				<g>
					<polygon fill="#D9954A" points="331.4,377.5 316.9,376.4 317,375.7 331.5,376.8 					"/>
				</g>
				<g>
					<polygon fill="#D9954A" points="329.5,321.6 329.5,320.9 342.3,320.2 342.3,320.9 					"/>
				</g>
				<g>
					<rect x="342.3" y="411.2" fill="#D9954A" width="9.3" height="0.7"/>
				</g>
				<g>
					<polygon fill="#D9954A" points="351.2,368.9 351.1,368.2 362.9,367.1 363,367.9 					"/>
				</g>
				<g>
					<polygon fill="#D9954A" points="361.8,334.9 361.8,334.2 371.3,333.4 371.4,334.2 					"/>
				</g>
				<g>
					
						<rect x="368.6" y="403.4" transform="matrix(8.682337e-03 1 -1 8.682337e-03 773.7651 35.4432)" fill="#D9954A" width="0.7" height="9.2"/>
				</g>
				<g>
					<polygon fill="#D9954A" points="405,377.2 403.9,344.2 393.7,345.4 393.6,344.7 404.7,343.4 405.7,376.4 416.9,375.7 
						416.9,376.4 					"/>
				</g>
				<g>
					<polygon fill="#D9954A" points="403.6,321.7 403.6,321 417.4,320.6 417.4,321.3 					"/>
				</g>
				<g>
					<polygon fill="#D9954A" points="417.1,364.5 417,363.8 427,363.1 427.1,363.8 					"/>
				</g>
				<g>
					<polygon fill="#D9954A" points="437.8,401.5 437.8,400.8 452.3,400.1 452.3,400.8 					"/>
				</g>
				<g>
					<polygon fill="#D9954A" points="438.7,335.4 438.7,334.6 451.1,334.4 451.1,335.1 					"/>
				</g>
				<g>
					<polygon fill="#D9954A" points="452.1,385.3 451.9,384.6 457.6,383.6 457.8,384.3 					"/>
				</g>
				<g>
					<polygon fill="#D9954A" points="457.9,322.5 450.8,322.2 450.9,321.5 457.9,321.7 					"/>
				</g>
				<g>
					<polygon fill="#D9954A" points="469.1,365.9 469.1,365.2 482.4,365 482.4,365.7 					"/>
				</g>
				<g>
					<polygon fill="#D9954A" points="468.9,409.9 468.9,409.2 482.3,408.7 482.3,409.4 					"/>
				</g>
				<g>
					<polygon fill="#D9954A" points="482.5,335.8 482.5,335.1 490.4,334.9 490.5,335.6 					"/>
				</g>
			</g>
			<polygon fill="#C98E58" points="486.6,152.5 492.8,443.9 512.8,443.9 517.4,153.2 			"/>
			<polygon opacity="0.68" fill="#E8B6B9" points="517.4,153.2 503.1,152.9 504,443.9 512.8,443.9 			"/>
			<polygon opacity="0.55" fill="#7D3B19" points="101.4,430.1 101.9,444.9 121.6,444.9 121.4,430.2 			"/>
			<polygon fill="#884828" points="94.1,241.7 118.5,240.3 118.4,237.4 94.5,238.5 			"/>
			<polygon fill="#884828" points="487.8,203.4 516.5,203.4 516.6,200.2 487.8,199.8 			"/>
			<polygon fill="#884828" points="99.7,399.3 120.7,398.7 120.7,400.9 99.8,401.2 			"/>
			<polygon fill="#884828" points="98,336.3 120,336.7 120,339.2 98.1,339.7 			"/>
			<polygon fill="#884828" points="488.8,273.2 515.5,272.5 515.6,269.6 488.7,270 			"/>
			<polygon fill="#884522" points="515.7,300.6 525.5,300.5 520.9,310.6 515.8,308.1 			"/>
			<polygon opacity="0.55" fill="#7D3B19" points="492.5,430.9 492.8,443.9 512.8,443.9 513,431 			"/>
			<polygon fill="#884828" points="491.2,360.3 514.1,361 514,363.6 491.2,363.2 			"/>
			<polygon fill="#C98E58" points="520.9,437.9 90,437.9 89.1,421.9 519.4,423.8 			"/>
			<polygon fill="#884828" points="115.7,422.1 115.7,437.9 119.3,437.9 118.1,422.1 			"/>
			<polygon fill="#884828" points="194.6,422.4 193.8,437.9 197.8,437.9 196.6,422.5 			"/>
			<polygon fill="#884828" points="263.4,422.8 264.2,437.9 266.6,437.9 265.7,422.8 			"/>
			<polygon fill="#884828" points="338.2,422.1 338.2,437.9 341.8,437.9 340.6,422.1 			"/>
			<polygon fill="#884828" points="417.1,422.4 416.3,437.9 420.3,437.9 419.1,422.5 			"/>
			<polygon fill="#884828" points="485.9,422.8 486.7,437.9 489.1,437.9 488.1,422.8 			"/>
			<polygon opacity="0.68" fill="#E8B6B9" points="519.4,423.8 89.1,421.9 89.5,429.1 519.9,429.1 			"/>
			<polygon fill="#D98C45" points="538.7,163.8 70,166.5 69,150.5 540,148.8 			"/>
			<polygon fill="#C98E58" points="232.9,298.2 234,424.2 250.5,424.2 249.5,298.3 			"/>
			<polygon fill="#C98E58" points="386.2,425.9 386.9,300.6 370.3,300.6 374.2,425.9 			"/>
			<path opacity="0.36" fill="#883A11" d="M69.8,154.4l0.1,12.1l22,0.3l1.8,48.8c0,0,3.8-4.6,11.9-5.3c8.1-0.7,12.5,4.2,12.5,4.2
				l-0.7-48.2l369.7-2.1l0.8,51.4c0,0,5.6-4.5,14.2-4.3c8.6,0.2,14.1,6.2,14.1,6.2l0.7-52.6l21.4,0.1l1.5-16.2l-245.2-22.1
				L69.8,154.4z"/>
			<path opacity="0.38" fill="#884828" d="M97.2,297.5l418-3.6l-0.4,32.2c0,0-4.7-5.7-12.2-5.7c-7.4,0-11.9,5.7-11.9,5.7l-103.8,0
				c0,0-3.6-3.6-7.8-3.6c-4.2,0-7.8,3.6-7.8,3.6l-121.4,0c0,0-4.3-3.4-8.6-3.4c-4.3,0-8,3.4-8,3.4l-113.2,0c0,0-4.8-4.1-11.9-4.1
				c-7,0-10.2,4.1-10.2,4.1L97.2,297.5z"/>
			<g>
				<polygon fill="#FFDE8A" points="514.3,423.8 511.9,423.8 515.7,177.6 518.1,177.7 				"/>
			</g>
			<g>
				<polygon fill="#FFC875" points="99.9,422 91.2,180.4 93.7,180.4 102.3,421.9 				"/>
			</g>
			<polygon fill="#FFC47D" points="166.3,32.2 69,150.5 540,148.8 434.5,37.4 			"/>
			<polygon fill="#B06E34" points="538.7,300.4 70,303.1 69,287.1 540,285.4 			"/>
			<polygon opacity="0.21" fill="#884828" points="252.7,149.4 272.9,122 264.8,149.8 			"/>
			<polygon opacity="0.21" fill="#884828" points="157.8,150.2 197.7,100.8 168.3,154.8 			"/>
			<path fill="#FFE48A" d="M158.9,145.8c-2.8,5.1,1.4,11.4,6.1,10.8c5.5-0.7,6.1-6.2,4-9.8C166.8,143,160.9,142,158.9,145.8z"/>
			<polygon fill="#884828" points="371.6,337.1 386.7,337.4 386.7,339.9 371.7,339.9 			"/>
			<polygon fill="#884828" points="373.4,398 386.4,398.3 386.4,400.9 373.4,400.9 			"/>
			<polygon fill="#884828" points="233.6,360.9 250,361.2 250,363.7 233.7,363.7 			"/>
			<polygon opacity="0.21" fill="#884828" points="95.7,117.2 507.7,114.8 519.3,126.9 87.1,128.5 			"/>
			<polygon opacity="0.21" fill="#884828" points="352.3,149.5 348.5,128.9 365.5,149.4 			"/>
			<path fill="#FFE48A" d="M256.7,141.7c-5,3.6-4.1,10.9,0.6,12c5.3,1.3,8.5-3.4,8.2-7.5C265.2,142.1,260.3,139,256.7,141.7z"/>
			<polygon opacity="0.21" fill="#884828" points="451.2,147 417.2,100.8 446.6,154.8 			"/>
			<path fill="#FFE48A" d="M354.6,142.1c-5.1,4-2.9,11.2,2.6,12c6.3,0.9,9.1-4,8.1-8.1C364.4,141.9,358.4,139.2,354.6,142.1z"/>
			<polygon fill="#FFC47D" points="540,148.8 572.4,181.2 532.7,155.1 546.5,178.5 515.7,156.5 522.6,171.1 501.2,156.5 
				521.8,191.6 485.4,156.1 497.1,179.7 473.7,156.5 475.2,177.9 452.7,149.1 496.3,145.4 			"/>
			<polygon opacity="0.21" fill="#884828" points="130.9,75.2 470.1,75.2 479.7,85.2 120.9,87.5 			"/>
			<polygon fill="#FFC47D" points="365.5,149.4 387.4,183.6 383.9,159.2 410.5,188.6 401.3,161.4 417,175 414.1,159.4 444,188.3 
				432.5,158.5 456.4,174.2 442.9,147.5 402.3,147 			"/>
			<polygon fill="#FFC47D" points="69,150.5 33.8,191.9 79.1,155.9 64.4,181.9 95.6,156.5 88.7,171.1 110.1,156.5 89.5,191.6 
				125.9,156.1 114.2,179.7 137.7,156.5 136.2,177.9 158.7,149.1 115,145.4 			"/>
			<polygon fill="#FFC47D" points="252.7,149.4 229.8,183.6 233.4,159.2 212.3,178.3 215.2,161.4 198.7,175 201.8,159.4 177.2,175 
				182.5,158.5 152,185.5 171.8,149.7 214.1,147 			"/>
			<path fill="#FFE48A" d="M443.4,142.8c-4.5,4.1-2.8,11.2,2,11.9c5.4,0.8,8-4.1,7.3-8.2C451.9,142.4,446.7,139.8,443.4,142.8z"/>
			<polygon fill="#FFC47D" points="352.3,149.5 368.4,184.3 343.4,157.8 344.7,186 328.3,159.2 325.6,186.4 315,160 308.8,176.4 
				301.8,159.9 294.4,179.1 286.6,159.3 274.3,185.8 275.1,158.3 252.7,184.4 264.8,149.8 304.6,145.7 			"/>
			<polygon fill="#AE5D3A" points="95.7,117.2 115.1,117.1 140.3,115.6 183.7,118.1 230.1,115.3 248.4,116.3 303.7,114.6 
				359.5,115.6 414.6,113.4 470.7,116.2 491.2,113.4 507.7,114.8 510.5,117.7 92.7,120.8 			"/>
			<polygon fill="#AE5D3A" points="128.9,77.7 473.3,78.5 470.1,75.2 456.5,76.9 429.8,73.7 413.5,75.2 359.3,72.8 305.6,75.2 
				287.5,74 234.4,75.2 181.3,73.8 151.8,75.2 131.9,73.8 			"/>
			<polygon fill="#C98E58" points="435.7,38.7 166.3,32.2 166.3,18.6 435.1,20 			"/>
			<polygon opacity="0.68" fill="#E8B6B9" points="435.1,20 166.3,18.6 166.3,26.8 435.3,27.4 			"/>
			<polygon opacity="0.38" fill="#884828" points="223.7,18.9 222.2,33.6 226.8,33.7 226.8,18.9 			"/>
			<polygon opacity="0.38" fill="#884828" points="277.7,19.2 277.4,34.9 281.5,35 280.5,19.2 			"/>
			<polygon opacity="0.38" fill="#884828" points="330,19.5 329.6,36.1 333.7,36.2 333.2,19.5 			"/>
			<polygon opacity="0.38" fill="#884828" points="381.8,19.7 381.8,37.4 385.9,37.5 385,19.8 			"/>
			<polygon opacity="0.21" fill="#884828" points="152.7,48.7 444.6,48.1 435.7,38.7 166.3,32.2 			"/>
			<g>
				<path fill="#FFDE8A" d="M437.3,40.4c0,0,23.4,29.4,62.8,70.7c39.4,41.2,63.1,61,63.1,61s-23.4-29.4-62.8-70.6
					C461,60.2,437.3,40.4,437.3,40.4z"/>
			</g>
			<g>
				<path fill="#FFDE8A" d="M160.8,38.9c0,0-27.4,27.6-64.3,72.2C59.7,155.5,43,181.1,43,181.1s27.4-27.6,64.3-72.2
					C144.2,64.4,160.8,38.9,160.8,38.9z"/>
			</g>
			<path fill="#FFCC8E" d="M435.1,20c0,0-4,9.1,0.6,18.6C435.7,38.7,439.4,31.4,435.1,20z"/>
			<path fill="#FFCC8E" d="M166.3,18.6c0,0,5.1,6.8,0,13.6C166.3,32.2,163.8,27.1,166.3,18.6z"/>
			<g>
				<polygon fill="#D9954A" points="179.7,77.9 179,77.7 200.6,32.9 201.3,33.2 				"/>
			</g>
			<g>
				<polygon fill="#D9954A" points="287.6,75.3 286.8,75.1 294.4,35.2 295.2,35.4 				"/>
			</g>
			<g>
				
					<rect x="305.3" y="35.6" transform="matrix(1 7.015978e-03 -7.015978e-03 1 0.396 -2.1436)" fill="#D9954A" width="0.8" height="39.6"/>
			</g>
			<g>
				<polygon fill="#D9954A" points="430.4,75.4 406.7,37.6 407.4,37.2 431.1,75 				"/>
			</g>
			<g>
				<polygon fill="#D9954A" points="413.1,75.3 394.2,37.8 395,37.5 413.9,75 				"/>
			</g>
			<g>
				<polygon fill="#D9954A" points="359.1,115.7 352.7,75.2 353.5,75.1 360,115.6 				"/>
			</g>
			<g>
				<polygon fill="#D9954A" points="470.4,116.4 440.1,78.7 440.8,78.3 471,116 				"/>
			</g>
			<g>
				<polygon fill="#D9954A" points="248.8,116.4 248,116.2 261.5,77.9 262.3,78.1 				"/>
			</g>
			<g>
				<polygon fill="#D9954A" points="229.9,116.6 229.2,116.3 249.1,77.8 249.8,78.1 				"/>
			</g>
			<g>
				<polygon fill="#D9954A" points="139.8,117.1 139.1,116.8 164.4,77.6 165.1,77.9 				"/>
			</g>
			<g>
				<path fill="#83531C" d="M166.3,32.2c0,0,55.9,2.4,140.2,4.4c84.3,2,129.2,2,129.2,2s-55.9-2.4-140.2-4.4
					C211.1,32.2,166.3,32.2,166.3,32.2z"/>
			</g>
			<polygon opacity="0.38" fill="#884828" points="147.9,286.8 147.9,302.7 151.6,302.7 151.6,286.8 			"/>
			<polygon opacity="0.38" fill="#884828" points="228.4,285.8 228.8,301.5 232.5,301.5 231.3,285.8 			"/>
			<polygon opacity="0.38" fill="#884828" points="302.9,286.8 302.9,302.7 306.5,302.7 306.5,286.8 			"/>
			<polygon opacity="0.38" fill="#884828" points="381.8,286.5 382.2,302.2 385.8,302.2 384.6,286.5 			"/>
			<polygon opacity="0.38" fill="#884828" points="457.9,286.8 457.9,302.7 461.5,302.7 461.5,286.8 			"/>
			<g>
				<path fill="#874414" d="M328.2,439.3c106.4,0,192.6-1.4,192.6-1.4s-86.2-1.4-192.6-1.4h-45.6c-106.4,0-192.7,1.4-192.7,1.4
					s86.3,1.4,192.7,1.4H328.2z"/>
			</g>
			<polygon opacity="0.68" fill="#E8B6B9" points="69.4,294 539.4,292.5 540,285.4 69,287.1 			"/>
			<g>
				<polygon fill="#80451A" points="97.2,304.4 97.2,301.5 515,299.1 515,302 				"/>
			</g>
			<g>
				<path fill="#FCCC86" d="M329.4,287.6c116.3-0.4,210.6-2.2,210.6-2.2s-94.3-1.1-210.6-0.7l-49.8,0.2
					C163.3,285.3,69,287.1,69,287.1s94.3,1.1,210.6,0.7L329.4,287.6z"/>
			</g>
			<g>
				<polygon fill="#80451A" points="492,423.7 488.7,300.6 491.5,300.6 492.4,423.7 				"/>
			</g>
			<g>
				<polygon fill="#80451A" points="120.9,422 118.1,304 120.8,303.9 121.4,422 				"/>
			</g>
			<path fill="#FFCC8E" d="M540,285.4c0,0-5.9,7.2-1.4,15C538.7,300.4,543.7,294.2,540,285.4z"/>
			<path fill="#FFCC8E" d="M69,287.1c0,0,7,8.1,1,16.2C70,303.3,64.4,296.7,69,287.1z"/>
			<g>
				<polygon fill="#D9954A" points="182.8,158.7 182.1,158.3 203.2,119.8 204,120.1 				"/>
			</g>
			<g>
				<polygon fill="#D9954A" points="413.7,159.6 395.3,118.6 396.1,118.4 414.4,159.3 				"/>
			</g>
			<g>
				<polygon fill="#D9954A" points="473.3,156.7 446.9,118.3 447.6,117.9 474,156.3 				"/>
			</g>
			<g>
				<polygon fill="#D9954A" points="95.9,156.7 95.3,156.3 124,120.3 124.6,120.7 				"/>
			</g>
			<path fill="#FFCC8E" d="M519.4,423.8c0,0-5.3,6.7,1.5,14.1C520.9,437.9,523.4,432,519.4,423.8z"/>
			<polygon fill="#884523" points="169,312.6 191.1,303.6 165.9,302.8 			"/>
			<path fill="#FFCC8E" d="M89.1,421.9c0,0,7,7.8,0.9,16C90,437.9,83.8,431.6,89.1,421.9z"/>
			<polygon fill="#884523" points="267.4,311.6 280.2,302.9 265,302.4 			"/>
			<polygon fill="#884523" points="356.1,311.6 343.3,302.9 358.5,302.4 			"/>
			<path fill="#E1A056" d="M159,311.4c4.9,3.7,12.8,1.7,13.3-2.6c0.6-4.9-5.2-6.8-9.8-5.9C157.9,303.9,155.4,308.7,159,311.4z"/>
			<path fill="#E1A056" d="M257.9,310.9c5.2,3.4,12.9,0.9,13.1-3.4c0.2-4.9-5.7-6.5-10.2-5.3C256.2,303.4,254,308.3,257.9,310.9z"/>
			<polygon fill="#884523" points="447.8,309.7 428.2,301.8 452.2,301.2 			"/>
			<path fill="#E1A056" d="M364.6,302.7c-5.3-3.2-12.9-0.5-12.9,3.8c0,4.9,6,6.3,10.4,5C366.5,310.1,368.5,305.1,364.6,302.7z"/>
			<path fill="#E1A056" d="M458.8,302.3c-5-3.6-12.9-1.4-13.2,2.8c-0.4,4.9,5.4,6.7,9.9,5.7C460,309.8,462.5,304.9,458.8,302.3z"/>
			<path fill="#E1A056" d="M529.8,301c-6-2-12.7,2.3-11.5,6.4c1.4,4.7,7.5,4.8,11.4,2.6C533.7,307.7,534.2,302.4,529.8,301z"/>
			<polygon fill="#884523" points="96.2,303 86.5,302.9 95.7,311.5 			"/>
			<path fill="#E1A056" d="M85.7,303c6.4-1,12,4.4,9.9,8.2c-2.3,4.4-8.4,3.5-11.8,0.6C80.4,309,81,303.7,85.7,303z"/>
			<g>
				<path fill="#FFDE8A" d="M166.3,18.6c0,0,55.8,2.4,139.9,2.9c84.1,0.4,128.9-1.5,128.9-1.5s-55.8-2.4-139.9-2.9
					C211,16.7,166.3,18.6,166.3,18.6z"/>
			</g>
		</g>
		<g>
			<path fill="#A14828" d="M198.7,468.2l-1.1,3.8c0,0-7.1,3.6-23.9,3.6c-16.8,0-23.9-4.1-23.9-4.1l-1.8-2.9L198.7,468.2z"/>
			<path fill="#E1A056" d="M198.7,468.2c0,0-19,10.9-50.7,0.4C148,468.5,170.3,460.2,198.7,468.2z"/>
			<path fill="#E1A056" d="M148,468.5c13.2,4.4,24.1,5.1,32.4,4.4l0.4-7.9C161.5,463.5,148,468.5,148,468.5z"/>
			<path fill="#FFE5C7" d="M180.9,465l-0.4,7.9c11.8-1,18.3-4.7,18.3-4.7C192.4,466.4,186.4,465.4,180.9,465z"/>
			<polygon fill="#AB6D36" points="146,367.4 172.7,410.4 175,405 152.3,367.1 			"/>
			<polygon fill="#AB6D36" points="196.2,367.2 173.2,400.5 173.5,407.7 203.3,367.2 			"/>
			<polygon fill="#8C4222" points="151.4,443.7 195.5,442.8 195.5,449.3 152.2,449.5 			"/>
			<path fill="#AB6D36" d="M164.4,366.5l1.1,101.8c0,0,3.9,2.1,7.9,2.1c4,0,7.8-2.1,7.8-2.1l0.5-100.9L164.4,366.5z"/>
			<polygon fill="#884828" points="165,416.7 181.1,416.5 181.1,418.6 165,419.1 			"/>
			<path opacity="0.68" fill="#E8B6B9" d="M173.5,389.6l0.4,80.8c3.8-0.2,7.3-2.1,7.3-2.1l0.4-80.2L173.5,389.6z"/>
			<path fill="#924233" d="M152.3,367.1l-6.4,0.2l10.3,16.6c2.2,0.4,4.5,0.8,6.8,1.1L152.3,367.1z"/>
			<path fill="#924233" d="M203.3,367.2l-7.1,0l-12.1,17.5c2.5-0.4,5-0.9,7.4-1.6L203.3,367.2z"/>
			<path fill="#924233" d="M181.6,385.1l0.1-17.6l-17.2-1l0.2,18.7C170.3,385.8,176,385.7,181.6,385.1z"/>
			<path fill="#5C0018" d="M205.5,354.4l3.5,11c0,0-13.9,5.4-35.2,5.4c-21.2,0-34.8-5.1-34.8-5.1l2.3-10.9L205.5,354.4z"/>
			<path fill="#9C493A" d="M205.5,354.4c0,0-24,13.9-64.2,0.5C141.2,354.8,169.4,344.2,205.5,354.4z"/>
			<path fill="#CF876B" d="M173.6,350l4.5,10.6c1.9-0.1,3.8-0.2,5.5-0.4l-5-10.2C176.8,350,175.2,350,173.6,350z"/>
			<path fill="#EEAC92" d="M186.6,350.7l3.8,8.6c9.8-1.9,15.1-4.9,15.1-4.9C198.9,352.5,192.5,351.4,186.6,350.7z"/>
			<g>
				<path fill="#E8AD8B" d="M141.2,354.8c0,0,3.1,1.4,8.8,3.1c2.9,0.8,6.4,1.7,10.6,2.4c4.2,0.7,9,1.3,14.2,1.3
					c5.3,0.1,9.9-0.4,13.8-1.2c3.9-0.7,7.1-1.7,9.6-2.7c2.5-1,4.3-1.9,5.4-2.5c1.2-0.6,1.7-1,1.7-1c0,0-0.8,0.3-2.3,0.9
					c-1.5,0.5-3.7,1.3-6.6,2c-5.7,1.5-14.2,2.7-24.4,2.2c-5.1-0.2-9.6-0.7-13.5-1.2c-3.9-0.5-7.1-1.1-9.7-1.7
					C143.9,355.6,141.2,354.8,141.2,354.8z"/>
			</g>
			<g>
				<path fill="#FFC875" d="M179.5,427.4c-0.1,21.5,1.4,39,1.4,39s1.7-17.4,1.8-38.9l0-9.2c0.1-21.5-1.4-39-1.4-39
					s-1.7,17.4-1.8,38.9L179.5,427.4z"/>
			</g>
			<g>
				<path fill="#804820" d="M174.1,470.6c2.1-0.1,3.9-0.7,5.1-1.2c1.2-0.5,1.9-1,1.9-1c0,0-3.3,0.5-7,0.7c-0.5,0-1.1,0-1.6,0
					c-1.9-0.1-3.6-0.2-4.9-0.4c-1.3-0.2-2.1-0.4-2.1-0.4c0,0,0.6,0.5,1.8,1.1c1.2,0.5,3,1.1,5.1,1.1
					C172.9,470.6,173.5,470.6,174.1,470.6z"/>
			</g>
		</g>
		<g>
			<path fill="#A14828" d="M465.7,469.3l-1.1,3.8c0,0-7.1,3.6-23.9,3.6c-16.8,0-23.9-4.1-23.9-4.1l-1.8-2.9L465.7,469.3z"/>
			<path fill="#E1A056" d="M465.7,469.3c0,0-19,10.9-50.7,0.4C415.1,469.6,437.3,461.2,465.7,469.3z"/>
			<path fill="#E1A056" d="M415.1,469.6c14.2,4.7,25.8,5.2,34.3,4.2l0.6-7.6C429.5,464.2,415.1,469.6,415.1,469.6z"/>
			<path fill="#FFE5C7" d="M449.9,466.3l-0.6,7.6c10.6-1.2,16.4-4.6,16.4-4.6C460.2,467.7,454.9,466.8,449.9,466.3z"/>
			<polygon fill="#AB6D36" points="413,368.4 439.8,411.4 442.1,406.1 419.4,368.2 			"/>
			<polygon fill="#AB6D36" points="463.3,368.3 440.3,401.6 440.6,408.8 470.4,368.3 			"/>
			<polygon fill="#8C4222" points="418.5,444.8 462.6,443.9 462.6,450.4 419.3,450.6 			"/>
			<path fill="#AB6D36" d="M431.5,367.6l1.1,101.8c0,0,3.9,2.1,7.9,2.1c4,0,7.8-2.1,7.8-2.1l0.5-100.9L431.5,367.6z"/>
			<polygon fill="#884828" points="432.5,437.8 448.7,437.5 448.7,439.7 432.5,440.1 			"/>
			<polygon fill="#884828" points="432.3,394.6 448.4,394.3 448.4,396.5 432.3,397 			"/>
			<path opacity="0.68" fill="#E8B6B9" d="M440.6,388.9l0.5,82.6c3.7-0.2,7.1-2.1,7.1-2.1l0.4-81.4L440.6,388.9z"/>
			<path fill="#924233" d="M419.4,368.2l-6.4,0.2l10.3,16.6c2.2,0.4,4.5,0.8,6.8,1.1L419.4,368.2z"/>
			<path fill="#924233" d="M470.4,368.3l-7.1,0l-12.1,17.5c2.5-0.4,5-0.9,7.4-1.6L470.4,368.3z"/>
			<path fill="#924233" d="M448.6,386.1l0.1-17.6l-17.2-1l0.2,18.7C437.4,386.8,443.1,386.8,448.6,386.1z"/>
			<path fill="#5C0018" d="M472.5,355.5l3.5,11c0,0-13.9,5.4-35.2,5.4c-21.2,0-34.8-5.1-34.8-5.1l2.3-10.9L472.5,355.5z"/>
			<path fill="#9C493A" d="M472.5,355.5c0,0-24,13.9-64.2,0.5C408.3,355.9,436.5,345.3,472.5,355.5z"/>
			<path fill="#CF876B" d="M440.9,351.2l4.5,10.6c1.9-0.1,3.8-0.2,5.5-0.4l-5-10.2C444.2,351.2,442.5,351.2,440.9,351.2z"/>
			<path fill="#EEAC92" d="M453.9,351.9l3.8,8.6c9.8-1.9,15.1-4.9,15.1-4.9C466.2,353.7,459.9,352.6,453.9,351.9z"/>
			<g>
				<path fill="#E8AD8B" d="M408.6,356c0,0,3.1,1.4,8.8,3.1c2.9,0.8,6.4,1.7,10.6,2.4c4.2,0.7,9,1.3,14.2,1.3
					c5.3,0.1,9.9-0.4,13.8-1.2c3.9-0.7,7.1-1.7,9.6-2.7c2.5-1,4.3-1.9,5.4-2.5c1.2-0.6,1.7-1,1.7-1c0,0-0.8,0.3-2.3,0.9
					c-1.5,0.5-3.7,1.3-6.6,2c-5.7,1.5-14.2,2.7-24.4,2.2c-5.1-0.2-9.6-0.7-13.5-1.2c-3.9-0.5-7.1-1.1-9.7-1.7
					C411.2,356.8,408.6,356,408.6,356z"/>
			</g>
			<g>
				<path fill="#FFC875" d="M446.8,430.5c-0.1,21.5,1.4,39,1.4,39s1.7-17.4,1.8-38.9l0-9.2c0.1-21.5-1.4-39-1.4-39
					s-1.7,17.4-1.8,38.9L446.8,430.5z"/>
			</g>
			<g>
				<path fill="#804820" d="M441.6,471.5c2.1-0.1,3.9-0.7,5.1-1.2c1.2-0.5,1.9-1,1.9-1c0,0-3.3,0.5-7,0.7c-0.5,0-1.1,0-1.6,0
					c-1.9-0.1-3.6-0.2-4.9-0.4c-1.3-0.2-2.1-0.4-2.1-0.4c0,0,0.6,0.5,1.8,1.1c1.2,0.5,3,1.1,5.1,1.1
					C440.4,471.6,441,471.6,441.6,471.5z"/>
			</g>
		</g>
		<g>
			<path fill="#A14828" d="M336.3,475.2l-1.1,3.8c0,0-7.1,3.6-23.9,3.6c-16.8,0-23.9-4.1-23.9-4.1l-1.8-2.9L336.3,475.2z"/>
			<path fill="#E1A056" d="M336.3,475.2c0,0-18.9,10.9-50.7,0.4C285.6,475.6,307.9,467.2,336.3,475.2z"/>
			<path fill="#E1A056" d="M285.6,475.6c14.4,4.8,26.1,5.2,34.7,4.1l0.5-7.5C300.2,470.1,285.6,475.6,285.6,475.6z"/>
			<path fill="#FFE5C7" d="M320.8,472.3l-0.5,7.5c10.3-1.2,16-4.5,16-4.5C330.9,473.7,325.7,472.8,320.8,472.3z"/>
			<polygon fill="#AB6D36" points="283.6,374.4 310.3,417.4 312.7,412.1 289.9,374.2 			"/>
			<polygon fill="#AB6D36" points="333.8,374.3 310.9,407.6 311.1,414.7 340.9,374.2 			"/>
			<polygon fill="#8C4222" points="289,450.8 333.2,449.9 333.2,456.3 289.8,456.6 			"/>
			<path fill="#AB6D36" d="M302.1,373.5l1.1,101.8c0,0,3.9,2.1,7.9,2.1c4,0,7.8-2.1,7.8-2.1l0.5-100.9L302.1,373.5z"/>
			<polygon fill="#884828" points="302.7,406.8 318.9,406.6 318.9,408.7 302.8,409.2 			"/>
			<polygon fill="#884828" points="303.3,459.1 319.4,458.9 319.4,461 303.3,461.5 			"/>
			<path opacity="0.68" fill="#E8B6B9" d="M310.5,395.3l1.6,82.1c3.6-0.3,6.7-2,6.7-2l0.4-81.4L310.5,395.3z"/>
			<path fill="#924233" d="M289.9,374.2l-6.4,0.2l10.3,16.6c2.2,0.4,4.5,0.8,6.8,1L289.9,374.2z"/>
			<path fill="#924233" d="M340.9,374.2l-7.1,0l-12.1,17.5c2.5-0.4,5-0.9,7.4-1.6L340.9,374.2z"/>
			<path fill="#924233" d="M319.2,392.1l0.1-17.6l-17.2-1l0.2,18.7C307.9,392.8,313.6,392.8,319.2,392.1z"/>
			<path fill="#5C0018" d="M343.1,361.4l3.5,11c0,0-13.9,5.5-35.2,5.5c-21.2,0-34.8-5.1-34.8-5.1l2.3-10.9L343.1,361.4z"/>
			<path fill="#9C493A" d="M343.1,361.4c0,0-24,13.9-64.2,0.5C278.8,361.9,307.1,351.3,343.1,361.4z"/>
			<path fill="#CF876B" d="M311.6,357.2l4.5,10.6c1.9-0.1,3.8-0.2,5.5-0.4l-5-10.2C314.9,357.2,313.2,357.2,311.6,357.2z"/>
			<path fill="#EEAC92" d="M324.6,357.9l3.8,8.6c9.8-1.9,15.1-4.9,15.1-4.9C336.9,359.7,330.5,358.5,324.6,357.9z"/>
			<g>
				<path fill="#E8AD8B" d="M279.3,362c0,0,3.1,1.4,8.8,3.1c2.9,0.8,6.4,1.7,10.6,2.4c4.2,0.7,9,1.3,14.2,1.3
					c5.3,0.1,9.9-0.4,13.8-1.2c3.9-0.7,7.1-1.7,9.6-2.7c2.5-1,4.3-1.9,5.4-2.5c1.2-0.6,1.7-1,1.7-1c0,0-0.8,0.3-2.3,0.9
					c-1.5,0.5-3.7,1.3-6.6,2c-5.7,1.5-14.2,2.7-24.4,2.2c-5.1-0.2-9.6-0.7-13.5-1.2c-3.9-0.5-7.1-1.1-9.7-1.7
					C281.9,362.7,279.3,362,279.3,362z"/>
			</g>
			<g>
				<path fill="#FFC875" d="M317.3,434.8c-0.1,21.5,1.4,39,1.4,39s1.7-17.4,1.8-38.9l0-9.2c0.1-21.5-1.4-39-1.4-39
					s-1.7,17.4-1.8,38.9L317.3,434.8z"/>
			</g>
			<g>
				<path fill="#804820" d="M311.9,477.5c2.1-0.1,3.9-0.7,5.1-1.2c1.2-0.5,1.9-1,1.9-1c0,0-3.3,0.5-7,0.7c-0.5,0-1.1,0-1.6,0
					c-1.9-0.1-3.6-0.2-4.9-0.4c-1.3-0.2-2.1-0.4-2.1-0.4c0,0,0.6,0.5,1.8,1.1c1.2,0.5,3,1.1,5.1,1.1
					C310.7,477.6,311.3,477.5,311.9,477.5z"/>
			</g>
		</g>
	</g>
	<g>
		<g>
			<path fill="#FFDAA3" d="M177.2,146.6c-5.8,10.6-9.3,19.9-9.3,19.8c0,0,5.4-8.2,11.2-18.8l2.5-4.5c5.9-10.5,10.3-19.3,10.3-19.3
				c0,0-6.3,7.6-12.2,18.2L177.2,146.6z"/>
		</g>
		<g>
			<path fill="#FFDAA3" d="M149.6,148.9c-3.3,4.3-5.9,8.6-7.6,11.8c-1.7,3.2-2.5,5.3-2.5,5.3l3.4-4.7c2.1-2.9,5.1-6.7,8.4-11
				l2.9-3.7c3.4-4.3,6.3-8.2,8.3-11.2c2-2.9,3.2-4.8,3.2-4.8c0,0-1.6,1.6-4.1,4.1c-2.5,2.6-5.8,6.2-9.2,10.5L149.6,148.9z"/>
		</g>
		<g>
			<path fill="#FFDAA3" d="M149.4,150.3c-6.2,9.8-9.3,18.6-9.3,18.6c0,0,5.1-7.8,11.2-17.4c0.9-1.4,1.8-2.7,2.7-4.1
				c6.2-9.5,11.6-17.1,11.6-17.2c0,0-1.8,1.5-4.3,4.3c-2.6,2.8-5.9,6.8-9.1,11.6C151.1,147.5,150.2,148.9,149.4,150.3z"/>
		</g>
		<g>
			<path fill="#FFDAA3" d="M138.3,155.3c-4.7,6.3-8.4,12.5-10.8,17c-2.5,4.5-3.7,7.5-3.8,7.5c0,0,7.1-10.6,16.4-23.1
				c1.3-1.8,2.7-3.6,4-5.3l17.5-22.4c0,0-9.5,8.6-19.2,21C141,151.7,139.7,153.5,138.3,155.3z"/>
		</g>
		<g>
			<path fill="#FFDAA3" d="M137.6,167.4c-4,7.9-7,15.5-8.8,21c-1.8,5.5-2.6,9.1-2.6,9.1c0,0,1.3-3.4,3.6-8.7
				c2.3-5.3,5.7-12.5,9.7-20.4c1.1-2.3,2.3-4.5,3.5-6.7c4.1-7.8,7.8-14.9,10.4-20.1c2.6-5.2,4.1-8.5,4.1-8.5c0,0-2,3-5,7.9
				c-3.1,4.9-7.2,11.8-11.4,19.6C139.9,162.8,138.7,165.1,137.6,167.4z"/>
		</g>
		<g>
			<path fill="#FFDAA3" d="M163.5,164.2c-4.7,6.6-9.2,12.4-12.6,16.5c-3.4,4.1-5.6,6.5-5.6,6.5c0,0,2.6-2,6.5-5.8
				c3.8-3.7,8.8-9.3,13.5-15.9c1.4-1.9,2.7-3.8,4-5.7c1.1-1.7,2.2-3.4,3.3-4.9c1-1.6,2.1-3.1,3.1-4.5c2-2.9,3.8-5.6,5-8
				c1.3-2.4,2-4.5,2.3-5.9c0.4-1.5,0.4-2.3,0.4-2.3c0,0-0.2,0.8-0.7,2.2c-0.5,1.4-1.5,3.3-3,5.5c-1.5,2.2-3.4,4.7-5.6,7.4
				c-1.1,1.4-2.2,2.8-3.4,4.4l-3.3,4.9C166.2,160.4,164.8,162.3,163.5,164.2z"/>
		</g>
		<g>
			<path fill="#FFDAA3" d="M171.8,163.4c-2.9,7.2-5.5,13.6-7.7,18.2c-2.2,4.6-3.9,7.2-3.8,7.2c0,0,2.1-2.4,4.8-6.7
				c2.7-4.3,5.9-10.7,8.8-17.8l2.5-6.1l2.2-5.2l2.2-4.8c1.4-3.1,2.6-5.9,3.4-8.3c1.7-4.9,1.8-8.1,1.8-8.1c0,0-0.6,3.1-2.8,7.7
				c-1.1,2.3-2.5,4.9-4,7.9c-0.8,1.5-1.6,3-2.4,4.7c-0.8,1.7-1.6,3.4-2.3,5.2L171.8,163.4z"/>
		</g>
		<g>
			<path fill="#FFDAA3" d="M186.3,152.2c-6.8,11.4-11.2,21.4-11.1,21.4c0,0,6.2-8.9,13.1-20.3l2.9-4.9c6.8-11.4,11.4-21.3,11.4-21.3
				c0,0-6.4,8.7-13.3,20.1L186.3,152.2z"/>
		</g>
		<g>
			<path fill="#FFDAA3" d="M204.4,160.3c-3.1,6.6-5.5,12.6-7.5,16.9c-1.9,4.3-3.3,6.9-3.3,6.9c0,0,1.8-2.3,4.3-6.4
				c2.5-4.1,5.4-10,8.5-16.5c0.9-1.8,1.8-3.7,2.8-5.5c1.6-3.2,3.3-6.2,4.8-8.9c1.5-2.8,2.8-5.3,3.7-7.5c1.9-4.4,2.2-7.4,2.2-7.4
				c0,0-0.9,2.8-3.2,6.9c-1.1,2.1-2.6,4.4-4.3,7.1c-1.7,2.6-3.5,5.6-5.1,8.8C206.3,156.6,205.3,158.4,204.4,160.3z"/>
		</g>
		<g>
			<path fill="#FFDAA3" d="M213.7,157c-2.1,5.3-3.6,10.3-4.4,14c-0.9,3.7-1.2,6-1.2,6c0,0,3.5-8.6,7.7-19.1l1.8-4.5
				c4.3-10.5,7.1-19.4,7.1-19.4c0,0-4.8,8-9.1,18.6L213.7,157z"/>
		</g>
		<g>
			<path fill="#FFDAA3" d="M217,160.8c-1.3,5.6-2,10.8-2.5,14.5c-0.5,3.7-0.6,6.1-0.6,6.1s0.7-2.2,1.7-5.9c1-3.6,2.3-8.7,3.6-14.2
				c0.4-1.6,0.8-3.2,1.2-4.7c1.4-5.5,2.7-10.5,3.7-14.1c1-3.6,1.7-5.8,1.7-5.8c0,0-1.2,2-2.8,5.5c-1.6,3.4-3.4,8.4-4.8,13.9
				C217.7,157.6,217.3,159.2,217,160.8z"/>
		</g>
		<g>
			<path fill="#FFDAA3" d="M218.6,167.6c-3,7-6,13.2-8.6,17.5c-2.6,4.3-4.5,6.8-4.5,6.8c0,0,2.3-2.1,5.4-6.2
				c3.1-4,6.7-10.1,9.7-17.2c0.9-2,1.7-4.1,2.6-6.1c2.9-7.1,5.1-13.7,6.8-18.4c1.7-4.7,2.9-7.6,2.9-7.6c0,0-1.7,2.7-3.9,7.2
				c-2.3,4.5-5,10.9-7.9,18C220.3,163.6,219.5,165.6,218.6,167.6z"/>
		</g>
		<g>
			<path fill="#FFDAA3" d="M234.2,158.4c-2.1,6.1-3.3,11.8-3.9,15.9c-0.6,4.1-0.7,6.7-0.7,6.7c0,0,2.6-10,6.7-21.9
				c0.6-1.7,1.2-3.4,1.8-5.1c4.4-11.8,8.6-21.3,8.6-21.3c0,0-6.1,8.5-10.6,20.5C235.4,155,234.8,156.7,234.2,158.4z"/>
		</g>
		<g>
			<path fill="#FFDAA3" d="M237.3,161.3c-3.1,7-5.2,13.6-6.5,18.4c-1.3,4.8-2,7.8-2,7.8l3-7.5c1.9-4.6,4.4-10.9,7.5-17.8
				c0.9-2,1.8-3.9,2.7-5.8c3.3-6.8,6.7-12.7,9.4-16.8c2.7-4.1,4.7-6.5,4.7-6.5c0,0-2.4,2-5.6,5.8c-3.2,3.8-7.2,9.6-10.5,16.5
				C239.1,157.3,238.1,159.3,237.3,161.3z"/>
		</g>
		<g>
			<path fill="#FFDAA3" d="M263.5,152.9c-1.1,4.9-2.2,9.3-3.3,12.4c-1,3.1-1.9,5-1.9,5c0,0,1.3-1.6,2.9-4.6c1.6-3,3.3-7.4,4.4-12.3
				c0.3-1.4,0.6-2.8,0.9-4.3c1-5,1.6-9.5,2.2-12.8c0.5-3.3,0.9-5.3,0.9-5.3c0,0-0.9,1.9-2,5c-1.1,3.2-2.3,7.6-3.2,12.6
				C264.1,150.1,263.8,151.5,263.5,152.9z"/>
		</g>
		<g>
			<path fill="#FFDAA3" d="M265.5,162c-2.7,6.5-5.2,12.4-7.1,16.6l-3.1,6.9c0,0,1.6-2.4,4-6.4c2.4-4,5.5-9.7,8.2-16.3
				c0.8-1.9,1.5-3.8,2.2-5.7c2.5-6.7,3.8-13.1,4.4-17.7c0.6-4.7,0.5-7.5,0.5-7.5c0,0-0.5,2.9-1.6,7.3c-1.1,4.5-3,10.6-5.4,17.2
				C267,158.3,266.2,160.2,265.5,162z"/>
		</g>
		<g>
			<path fill="#FFDAA3" d="M268.9,163.8c-1.5,6.6-2.8,12.6-4.1,16.8c-1.3,4.2-2.4,6.8-2.3,6.8c0,0,1.6-2.3,3.4-6.4
				c1.8-4.1,3.7-10.1,5.2-16.7l1.4-5.6c0.8-3.3,1.7-6.4,2.3-9.3c0.7-2.9,1.1-5.5,1.3-7.8c0.4-4.5-0.1-7.3-0.1-7.3c0,0-0.1,2.8-1,7.1
				c-0.5,2.2-1.2,4.7-2,7.5c-0.8,2.8-1.8,5.9-2.7,9.2L268.9,163.8z"/>
		</g>
		<g>
			<path fill="#FFDAA3" d="M274.6,165.1c-1.3,6.3-2.3,12.1-3,16.3c-0.6,4.2-0.9,6.8-0.9,6.8c0,0,0.8-2.5,2-6.6
				c1.2-4.1,2.8-9.7,4-16.1c0.4-1.8,0.7-3.6,1-5.5c1.1-6.4,1.5-12.3,1.4-16.6c-0.1-4.3-0.5-6.9-0.5-6.9c0,0-0.1,2.6-0.6,6.8
				c-0.5,4.2-1.4,9.9-2.5,16.3C275.3,161.5,275,163.3,274.6,165.1z"/>
		</g>
		<g>
			<path fill="#FFDAA3" d="M276.4,157.1c-0.1,5.6,0.2,10.8,0.6,14.5c0.4,3.7,1,5.9,0.9,5.9l0.2-6c0.1-3.7,0.3-8.8,0.5-14.4l0.1-4.8
				c0.2-5.6,0.1-10.7-0.2-14.4c-0.2-3.7-0.6-6-0.6-6l-0.5,6c-0.3,3.7-0.7,8.8-0.9,14.4L276.4,157.1z"/>
		</g>
		<g>
			<path fill="#FFDAA3" d="M281.9,155.7l-0.2,14.2l-0.2,5.9c0,0,0.6-2.2,1.3-5.8c0.6-3.6,1.2-8.7,1.3-14.3l0-4.8
				c0-5.6-0.4-10.6-0.7-14.3c-0.3-3.6-0.6-5.9-0.6-5.9c0,0-0.3,2.3-0.5,5.9c-0.2,3.7-0.4,8.7-0.4,14.3L281.9,155.7z"/>
		</g>
		<g>
			<path fill="#FFDAA3" d="M291.5,167.2c1.9,8,4.3,15.1,6.1,20.2c1.9,5.1,3.3,8.1,3.3,8.1c0,0-3.5-12.9-7.3-28.8
				c-0.5-2.3-1.1-4.6-1.6-6.8c-3.5-16-6.6-29-6.6-29c0,0,0.9,13.4,4.4,29.5C290.4,162.6,290.9,164.9,291.5,167.2z"/>
		</g>
		<g>
			<path fill="#FFDAA3" d="M293.1,159.1c1.4,11.7,3.1,21.2,3.1,21.2c0,0,0.4-9.7-0.9-21.4l-0.6-5c-0.3-2.9-0.8-5.8-1.2-8.2
				c-0.3-2.5-0.6-4.8-0.9-6.8c-0.3-1.9-0.7-3.5-1.1-4.5c-0.3-1-0.7-1.6-0.6-1.6c0,0,0.2,0.6,0.3,1.6c0.1,1.1,0.2,2.6,0.3,4.6
				l0.1,6.8c0.2,2.6,0.5,5.4,0.8,8.3L293.1,159.1z"/>
		</g>
		<g>
			<path fill="#FFDAA3" d="M301.3,159.1c1.7,5.8,3.9,10.9,5.7,14.4c1.8,3.5,3.1,5.6,3,5.6c0.1,0-3.3-9.2-6.6-20.7
				c-0.5-1.6-0.9-3.3-1.3-4.9c-0.4-1.4-0.7-2.9-1.1-4.3l-1.1-3.9c-0.7-2.5-1.2-4.7-1.6-6.7c-0.7-3.8-0.4-6.3-0.4-6.3
				c0,0-0.9,2.4-0.7,6.4c0.1,2,0.4,4.4,0.9,7c0.2,1.3,0.5,2.6,0.9,4c0.3,1.4,0.6,2.8,1,4.3C300.3,155.8,300.8,157.5,301.3,159.1z"/>
		</g>
		<g>
			<path fill="#FFDAA3" d="M304,158.8c1.4,4.5,2.6,8.6,3.3,11.6c0.7,3,1,4.9,1,4.9c0,0,0.2-1.9,0.1-5.1c-0.2-3.2-0.9-7.5-2.3-12.1
				l-1.2-3.9c-1.5-4.5-3-8.5-4-11.5c-1-2.9-1.6-4.8-1.6-4.8c0,0,0,1.9,0.5,5.1c0.5,3.1,1.5,7.3,3,11.9L304,158.8z"/>
		</g>
		<g>
			<path fill="#FFDAA3" d="M308.1,155.5c2,10.4,3.1,18.9,3.1,19c0,0,0.3-2.2,0.3-5.7c0-3.5-0.2-8.4-1.2-13.7c-0.3-1.5-0.6-3-0.9-4.5
				c-1.1-5.2-2.7-9.9-3.9-13.1c-1.2-3.3-2.1-5.3-2.1-5.3c0,0,1.5,8.6,3.8,18.9C307.5,152.5,307.8,154,308.1,155.5z"/>
		</g>
		<g>
			<path fill="#FFDAA3" d="M318.1,162c2.1,6.2,4,11.7,5.4,15.8l2.1,6.6c0,0-0.2-2.7-1-6.9c-0.8-4.2-2.2-10-4.3-16.2l-1.9-5.3
				c-2.2-6.2-4.6-11.6-6.3-15.5c-1.7-3.9-2.8-6.3-2.8-6.3c0,0,0.6,2.6,1.8,6.7c1.2,4.1,3,9.8,5.2,15.9L318.1,162z"/>
		</g>
		<g>
			<path fill="#FFDAA3" d="M316.4,160.8c0.7,5.2,1.6,9.9,2.4,13.2c0.8,3.4,1.5,5.4,1.5,5.4c0,0-0.1-2.1-0.4-5.6
				c-0.3-3.4-0.6-8.2-1.3-13.4L318,156c-0.7-5.2-1.7-9.9-2.5-13.2c-0.9-3.4-1.6-5.4-1.6-5.4c0,0,0.2,2.1,0.5,5.6
				c0.3,3.4,0.7,8.1,1.4,13.3L316.4,160.8z"/>
		</g>
		<g>
			<path fill="#FFDAA3" d="M331.4,161.4c1.9,6.9,4.1,12.9,5.9,17.2c1.8,4.3,3.2,6.9,3.2,6.9l-2.1-7.2c-1.3-4.5-2.9-10.6-4.8-17.5
				l-1.6-5.9c-1.1-3.5-2.2-6.6-3.1-9.5c-0.9-2.9-1.7-5.5-2.2-7.8c-1-4.5-1.1-7.4-1.1-7.4c0,0-0.5,2.9,0,7.6c0.2,2.3,0.7,5.1,1.5,8.1
				c0.7,3,1.8,6.3,2.8,9.6L331.4,161.4z"/>
		</g>
		<g>
			<path fill="#FFDAA3" d="M336.6,162.1c4.3,11.6,8,21,8,21c0,0-1.6-10-5.9-21.7c-0.6-1.7-1.2-3.3-1.9-5
				c-4.5-11.6-9.9-20.2-9.9-20.3c0,0,3.3,9.5,7.8,21.1C335.3,158.7,336,160.4,336.6,162.1z"/>
		</g>
		<g>
			<path fill="#FFDAA3" d="M342.6,155.8c2.2,5.2,4,9.9,5,13.4c1,3.5,1.3,5.8,1.4,5.8c0,0,0.2-2.3-0.3-6c-0.5-3.7-1.8-8.8-4-14
				l-1.9-4.5c-1.2-2.6-2.2-5-3.2-7.3c-1-2.2-2-4.2-3-5.8c-1.9-3.2-3.6-4.9-3.6-4.9c0,0,1.2,2,2.6,5.4c0.7,1.7,1.4,3.8,2.3,6.1
				c0.8,2.3,1.8,4.9,2.9,7.4L342.6,155.8z"/>
		</g>
		<g>
			<path fill="#FFDAA3" d="M347.4,157.5c1.3,5,2.8,9.4,4.2,12.6c1.4,3.1,2.4,4.9,2.4,4.9l-1.4-5.3l-3.1-12.7l-1.1-4.3
				c-1.2-5-2.6-9.5-3.7-12.7c-1.2-3.2-2.1-5.1-2.1-5.1l1,5.4c0.6,3.3,1.5,7.9,2.7,12.9L347.4,157.5z"/>
		</g>
		<g>
			<path fill="#FFDAA3" d="M355.1,163.5c3.2,5.7,6.4,10.7,8.6,14.3l3.7,5.8c0,0-1-2.5-2.8-6.4c-1.8-3.9-4.5-9.2-7.7-14.8l-2.7-4.9
				l-8.1-14.5l-3.3-6.1c0,0,0.7,2.6,2.3,6.6c1.6,4,4,9.4,7.2,15.1L355.1,163.5z"/>
		</g>
		<g>
			<path fill="#FFDAA3" d="M372,157.8c2.2,4.9,4.4,9.2,5.9,12.4l2.6,5.1c0,0-0.5-2.1-1.5-5.5c-1.1-3.4-2.8-7.9-4.9-12.9l-1.8-4.2
				l-5.5-12.5l-2.2-5.3c0,0,0.3,2.2,1.2,5.6c0.9,3.4,2.4,8.1,4.5,13L372,157.8z"/>
		</g>
		<g>
			<path fill="#FFDAA3" d="M379.5,163.2c3.2,5,6.2,9.4,8.3,12.6c2.1,3.2,3.4,5.3,3.4,5.3c0,0-0.8-2.3-2.5-5.8
				c-1.7-3.5-4.3-8.3-7.4-13.3l-2.7-4.3c-3.1-5-6-9.5-7.9-12.9c-1.9-3.3-3-5.5-3-5.5c0,0,0.6,2.3,2.1,6c1.4,3.6,3.9,8.5,7,13.5
				L379.5,163.2z"/>
		</g>
		<g>
			<path fill="#FFDAA3" d="M386.4,162.1c3.9,6,7.3,11.4,9.7,15.4c2.4,4,3.7,6.6,3.7,6.6c0,0-0.9-2.8-2.7-7.1
				c-1.9-4.3-4.9-10.1-8.8-16.1c-1.1-1.7-2.2-3.4-3.4-5.1c-4-5.9-8-11.1-10.8-14.8l-4.6-6c0,0,1.3,2.6,3.7,6.6
				c2.4,4,5.9,9.5,9.9,15.4C384.2,158.7,385.3,160.4,386.4,162.1z"/>
		</g>
		<g>
			<path fill="#FFDAA3" d="M388.1,158.6c2,6.3,4,12,5.7,16c1.6,4.1,2.8,6.5,2.8,6.5l-1.7-6.8c-1.1-4.2-2.6-10-4.6-16.4l-1.8-5.4
				c-2.1-6.3-4.5-11.9-6.5-15.8c-2-3.9-3.4-6.2-3.4-6.2c0,0,1,2.5,2.4,6.6c1.4,4.1,3.3,9.8,5.4,16L388.1,158.6z"/>
		</g>
		<g>
			<path fill="#FFDAA3" d="M398.5,161c2.9,5.6,5.5,10.6,7.2,14.4c1.7,3.8,2.5,6.2,2.5,6.2c0,0-0.3-2.6-1.4-6.6
				c-1.1-4-3.3-9.4-6.2-15.1l-2.5-4.8c-2.3-4.5-4.5-8.5-6.1-11.9c-1.6-3.4-2.7-6.1-3.3-7.5l-0.2,0.1c0.4,0.1,0.6,0.3,0.8,0.4
				c0.2,0.1,0.3,0.1,0.3,0.1c0,0-0.1,0-0.3-0.1c-0.2-0.1-0.4-0.3-0.8-0.5l-0.2-0.1l0.1,0.3c0.3,1.5,0.9,4.4,2.2,8
				c1.3,3.6,3.2,7.9,5.5,12.4L398.5,161z"/>
		</g>
		<g>
			<path fill="#FFDAA3" d="M395.9,160.2c3.4,4.5,6.7,8.4,9,11.3l3.8,4.7c0,0-1-2.1-2.9-5.3c-1.9-3.2-4.7-7.5-8.1-12l-2.9-3.9
				l-2.5-3.3c-0.8-1-1.5-2.1-2.2-3.1c-1.4-2-2.7-3.8-4-5.2c-2.5-2.9-4.5-4.1-4.5-4c0,0,1.7,1.6,3.6,4.7c1,1.5,2.1,3.4,3.3,5.6
				c0.6,1.1,1.3,2.2,2.1,3.3c0.8,1.1,1.6,2.2,2.4,3.4L395.9,160.2z"/>
		</g>
		<g>
			<path fill="#FFDAA3" d="M405,157.9c3.7,4.9,6.9,9.2,9,12.6c2.1,3.3,3.2,5.6,3.2,5.6c0,0-0.6-2.4-2.2-6.1
				c-1.7-3.7-4.6-8.5-8.2-13.4l-3.1-4.2l-2.7-3.5c-0.8-1.1-1.6-2.3-2.3-3.4c-1.5-2.2-2.9-4.2-4.2-5.7c-1.3-1.5-2.6-2.6-3.6-3.3
				c-1-0.6-1.6-0.8-1.6-0.8c0,0,0.5,0.3,1.3,1.1c0.8,0.8,1.8,2,2.9,3.6c1.1,1.7,2.2,3.7,3.5,6c0.6,1.2,1.3,2.4,2.2,3.6
				c0.8,1.2,1.7,2.4,2.6,3.6L405,157.9z"/>
		</g>
		<g>
			<path fill="#FFDAA3" d="M417,156.1c2.1,4.9,4,9.4,5.2,12.7c1.3,3.3,1.9,5.4,2,5.4c0,0-0.2-2.2-0.9-5.7c-0.7-3.5-2.1-8.3-4.2-13.3
				l-1.8-4.3c-2.2-5-4.5-9.3-6.2-12.4l-2.8-5c0,0,0.6,2.1,1.8,5.5c1.2,3.3,3,7.9,5.2,12.8L417,156.1z"/>
		</g>
		<g>
			<path fill="#FFDAA3" d="M421.7,159.2c2.9,12,6.1,21.6,6.1,21.6c0,0-1-10.1-3.9-22.1l-1.3-5.2c-3-12-7-21.4-6.9-21.4
				c0,0,1.8,9.9,4.8,21.9L421.7,159.2z"/>
		</g>
		<g>
			<path fill="#FFDAA3" d="M429.1,164.1l1.1,1.9c0.4,0.6,0.8,1.3,1.2,1.8c0.8,1.2,1.6,2.3,2.4,3.3c1.5,2.1,2.9,3.9,4,5.5
				c2.2,3.2,3,5.5,3,5.5c0,0-0.3-2.5-2.1-6c-0.9-1.8-2-3.8-3.4-6l-2.1-3.4l-2.2-3.7l-2.6-4.4c-3.1-5.1-5.8-9.7-7.4-13.2
				c-1.7-3.5-2.5-5.8-2.5-5.8c0,0,0.2,2.4,1.5,6.2c1.2,3.8,3.5,8.8,6.6,13.9L429.1,164.1z"/>
		</g>
		<g>
			<path fill="#FFDAA3" d="M435.1,159.5c3.8,5,7.3,9.4,9.7,12.8c2.4,3.3,3.7,5.5,3.7,5.5c0,0-0.9-2.4-2.8-6.1
				c-1.9-3.7-5-8.6-8.9-13.5l-3.3-4.3c-3.9-5-7.4-9.4-9.9-12.7c-2.5-3.3-3.9-5.4-3.9-5.4c0,0,0.9,2.4,3,6c2,3.6,5.2,8.4,9.1,13.4
				L435.1,159.5z"/>
		</g>
		<g>
			<path fill="#FFDAA3" d="M439.6,160c2.5,6,5.3,11.4,7.5,15c2.2,3.7,3.9,5.8,3.9,5.8c0,0-1.2-2.4-2.9-6.3
				c-1.7-3.9-3.9-9.4-6.4-15.4l-2.2-5.2c-2.5-6-5.2-11.4-7.4-15.1c-2.2-3.7-3.8-5.9-3.8-5.9c0,0,1.1,2.4,2.8,6.4
				c1.7,3.9,3.8,9.4,6.3,15.5L439.6,160z"/>
		</g>
		<g>
			<path fill="#FFDAA3" d="M60.4,155.7c-6.3,6-11.9,11.6-15.8,15.8c-3.9,4.2-6.2,6.9-6.2,6.9l7-6.1c4.3-3.8,10.2-9,16.6-14.9
				l5.4-5.2c1.6-1.5,3.1-3,4.5-4.5l2.1-2.2c0.7-0.7,1.3-1.5,1.9-2.2c2.4-3,4.4-5.7,6.2-7.9c3.5-4.5,6.3-6.7,6.3-6.7
				c0,0-3.1,1.8-7.1,6c-2,2.1-4.2,4.7-6.7,7.4c-0.6,0.7-1.3,1.4-2,2.1l-2.2,2.1l-4.6,4.4L60.4,155.7z"/>
		</g>
		<g>
			<path fill="#FFDAA3" d="M68.1,161.1c-5.2,8-10.1,15.1-13.9,20c-3.8,4.9-6.5,7.8-6.5,7.8c0,0,3-2.5,7.3-7.1
				c4.3-4.6,9.7-11.4,14.9-19.5l4.4-6.9c5.1-8.1,9.5-15.5,12.8-20.8c3.3-5.3,5.6-8.5,5.5-8.5c0,0-2.6,2.9-6.5,7.9
				c-3.8,5-8.7,12.2-13.8,20.2L68.1,161.1z"/>
		</g>
		<g>
			<path fill="#FFDAA3" d="M73,161.2c-8.3,12.1-14.5,22.4-14.5,22.4c0,0,8-9,16.3-21.1l3.5-5.2c8.2-12.3,13-23.4,13-23.3L76.5,156
				L73,161.2z"/>
		</g>
		<g>
			<path fill="#FFDAA3" d="M88,159.5c-4.6,6.2-8.4,12.1-11.1,16.4c-2.6,4.3-4.1,7.1-4.1,7.1l5-6.5c3.1-4,7.4-9.5,11.9-15.7l3.9-5.3
				c4.6-6.2,8.4-12.1,11-16.4c2.6-4.3,4.1-7.1,4.1-7.1l-5,6.5c-3.1,4-7.3,9.5-11.9,15.8L88,159.5z"/>
		</g>
		<g>
			<path fill="#FFDAA3" d="M106.4,154.3l-9.8,13.3l-4.1,5.5c0,0,2-1.7,5-4.8c3-3.1,6.8-7.5,10.7-12.7l3.3-4.5
				c3.8-5.2,7-10.1,9.3-13.7l3.8-5.8c0,0-1.9,1.9-4.6,5.1c-2.8,3.2-6.5,7.8-10.2,13.1L106.4,154.3z"/>
		</g>
		<g>
			<path fill="#FFDAA3" d="M108.3,154.8c-5.9,11.7-9.2,21.9-9.2,21.9c0,0,5.3-9.2,11.2-20.9l2.5-5c5.9-11.7,9.8-21.6,9.8-21.6
				c0,0-5.8,8.9-11.8,20.6L108.3,154.8z"/>
		</g>
		<g>
			<path fill="#FFDAA3" d="M112.4,159.9c-3.7,6.8-6.9,13.1-9.1,17.6l-3.6,7.4c0,0,1.8-2.6,4.6-6.9c2.7-4.3,6.4-10.3,10.1-17.1
				l3.2-5.8c3.8-6.8,7-13,9.4-17.4l3.9-7.3c0,0-1.9,2.5-4.8,6.7c-2.9,4.2-6.7,10.1-10.4,16.9L112.4,159.9z"/>
		</g>
		<g>
			<path fill="#FFDAA3" d="M120.4,156.6c-2.9,6.1-5.3,11.8-7,15.9l-2.7,6.7c0,0,1.5-2.3,3.7-6.2c2.2-3.9,5-9.3,8-15.4l2.5-5.2
				c3-6,5.6-11.5,7.7-15.5l3.3-6.4c0,0-1.8,2.1-4.3,5.8c-2.5,3.7-5.7,9-8.7,15.1L120.4,156.6z"/>
		</g>
		<g>
			<path fill="#FFDAA3" d="M115.9,159.6c-1.8,6.5-3.2,12.4-4.3,16.7l-1.7,7c0,0,1.2-2.5,2.8-6.6c1.6-4.1,3.5-10,5.4-16.5l1.6-5.6
				l1.3-4.7l1.3-4.4c0.8-2.8,1.5-5.4,1.9-7.6c0.8-4.4,0.7-7.2,0.7-7.2c0,0-0.4,2.7-1.8,6.9c-0.7,2.1-1.6,4.5-2.6,7.3
				c-0.5,1.4-1,2.8-1.5,4.3c-0.5,1.6-1,3.1-1.4,4.7L115.9,159.6z"/>
		</g>
		<g>
			<path fill="#FFDAA3" d="M122.2,159.6c-3.6,5.6-6.6,10.8-8.6,14.6c-2,3.9-3.1,6.3-3.1,6.3l4-5.8c2.5-3.6,5.9-8.5,9.5-14l3.1-4.8
				c3.6-5.6,6.6-10.8,8.5-14.7c2-3.9,3-6.4,3-6.4l-4,5.8c-2.4,3.6-5.8,8.5-9.4,14.1L122.2,159.6z"/>
		</g>
		<g>
			<path fill="#FFDAA3" d="M130.2,163.6c-4,8.2-7.4,15.7-9.9,21.2l-4.1,8.8c0,0,2.1-3.1,5.1-8.3c3-5.2,6.9-12.5,10.9-20.7l3.5-7
				c4.1-8.1,7.9-15.4,10.8-20.6c2.9-5.2,4.9-8.3,4.9-8.3c0,0-2.4,2.8-5.8,7.8c-3.4,4.9-7.7,12-11.8,20.2L130.2,163.6z"/>
		</g>
		<g>
			<path fill="#FFDAA3" d="M54.6,185.7c-3.6,4.9-6.8,9.5-9.1,12.7l-3.8,5.3c0,0,1.9-1.7,4.6-4.6c2.8-2.9,6.4-7.2,10.1-12.1l3.1-4.2
				c3.6-4.9,6.7-9.6,8.9-12.9l3.6-5.4c0,0-1.8,1.7-4.5,4.7c-2.7,3-6.2,7.3-9.9,12.3L54.6,185.7z"/>
		</g>
		<g>
			<path fill="#FFDAA3" d="M54.8,195.9c-6,9.6-10.8,17.6-10.7,17.6c0,0,6.5-6.7,12.6-16.4c0.9-1.4,1.7-2.8,2.5-4.2
				c2.9-5,4.9-9.8,6.1-13.3c1.2-3.6,1.7-5.8,1.7-5.8c0,0-1,2.1-2.7,5.4c-1.7,3.3-4.2,7.8-7,12.7C56.5,193.1,55.7,194.5,54.8,195.9z"
				/>
		</g>
		<g>
			<path fill="#FFDAA3" d="M62.3,147.9c17.1-12.7,30.8-23.2,30.8-23.2c0,0-15,8.7-32.1,21.4l-7.3,5.4c-17,12.8-30,24.3-30,24.3
				c0,0,14.3-9.7,31.3-22.5L62.3,147.9z"/>
		</g>
		<g>
			<path fill="#FFDAA3" d="M114.8,103.5c5.5-3.2,10.4-6.3,13.9-8.6c3.5-2.3,5.6-3.9,5.6-3.9l-6.1,3c-3.8,1.9-8.9,4.4-14.5,7.7
				l-4.7,2.8c-5.5,3.3-10.2,6.8-13.4,9.6c-3.2,2.7-5,4.7-5,4.7c0,0,2.1-1.5,5.6-3.8c3.5-2.3,8.4-5.3,13.9-8.6L114.8,103.5z"/>
		</g>
		<g>
			<path fill="#FFDAA3" d="M122.1,101.1c4-3.5,7.6-6.8,10.2-9.2c2.6-2.4,4.1-4,4.1-4c0,0-1.9,1.1-4.8,3.1c-2.9,2-6.9,4.8-11,8.4
				c-1.2,1-2.3,2.1-3.4,3.1c-4,3.7-7.1,7.5-9.2,10.4c-2.1,2.9-3.1,4.8-3.1,4.8c0,0,1.5-1.6,4-4.1c2.5-2.5,5.9-5.9,9.8-9.5
				C119.9,103.2,121,102.1,122.1,101.1z"/>
		</g>
		<g>
			<path fill="#FFDAA3" d="M130.8,103.6c7.4-7.3,12.3-14.3,12.3-14.3c0,0-6.5,5.5-13.9,12.7l-3.2,3.1c-7.4,7.2-12.8,13.8-12.8,13.8
				c0,0,6.9-4.9,14.4-12.2L130.8,103.6z"/>
		</g>
		<g>
			<path fill="#FFDAA3" d="M134.2,107.5c-1.3,2.5-2.2,5.1-3,7.3c-0.8,2.3-1.5,4.3-2.2,6c-1.3,3.4-2.5,5.3-2.5,5.3
				c0,0,1.6-1.6,3.5-4.8c0.9-1.6,1.9-3.6,2.9-5.8c1-2.2,2-4.6,3.3-7l2.2-4.2c2.6-4.9,4.7-9.5,6-12.9c1.4-3.4,2.1-5.6,2.1-5.6
				l-3.1,5.1c-1.9,3.1-4.4,7.5-7,12.4L134.2,107.5z"/>
		</g>
		<g>
			<path fill="#FFDAA3" d="M151.5,101.9c-2.6,3.6-4.6,7-5.9,9.7c-1.3,2.6-1.9,4.3-1.9,4.3l2.9-3.7c1.8-2.3,4.2-5.4,6.8-9l2.2-3.1
				c2.6-3.6,4.7-7,6-9.6c1.4-2.6,2-4.3,2-4.3l-2.9,3.7c-1.8,2.3-4.3,5.3-6.9,8.9L151.5,101.9z"/>
		</g>
		<g>
			<path fill="#FFDAA3" d="M155,105.6c-1.9,4.1-3.4,7.8-4.6,10.4l-2,4.3c0,0,1.3-1.3,3-3.8c1.7-2.4,3.8-6,5.7-10l1.6-3.5
				c1.8-4.1,3.3-7.9,4.3-10.6l1.7-4.4c0,0-1.2,1.4-2.7,3.9c-1.6,2.5-3.5,6.1-5.4,10.2L155,105.6z"/>
		</g>
		<g>
			<path fill="#FFDAA3" d="M180.2,104.1c-4.4,6.8-6.5,13.2-6.5,13.1c0,0,4-5.2,8.3-12l1.9-2.9c4.4-6.7,7.5-12.5,7.5-12.5
				c0,0-4.9,4.5-9.3,11.3L180.2,104.1z"/>
		</g>
		<g>
			<path fill="#FFDAA3" d="M186.2,103.7c-2.2,3.8-4,7.4-5.2,10c-1.2,2.6-1.8,4.4-1.8,4.4l2.7-3.8c1.7-2.4,3.9-5.6,6.1-9.5
				c0.6-1.1,1.2-2.2,1.8-3.3c2.1-3.9,3.5-7.7,4.2-10.6c0.7-2.8,0.8-4.6,0.9-4.6c0,0-0.7,1.7-1.9,4.3c-1.2,2.6-3.1,6.1-5.1,9.9
				C187.4,101.5,186.8,102.6,186.2,103.7z"/>
		</g>
		<g>
			<path fill="#FFDAA3" d="M209.9,106.3c-3.6,7.8-5.4,14.6-5.4,14.6c0,0,3.8-5.9,7.4-13.6l1.6-3.3c1.9-3.8,3.4-7.3,4.6-9.9l1.9-4.1
				c0,0-1.2,1.3-2.8,3.6c-1.7,2.3-3.8,5.6-5.6,9.5L209.9,106.3z"/>
		</g>
		<g>
			<path fill="#FFDAA3" d="M219.2,104.4c-4.2,8.1-5.9,15.4-5.9,15.3c0,0,3.8-6.3,7.9-14.3l1.8-3.4c4.2-8,6.9-14.9,6.9-14.9
				c0,0-4.6,5.8-8.9,13.8L219.2,104.4z"/>
		</g>
		<g>
			<path fill="#FFDAA3" d="M269.1,107.2c-1,4.5-1.6,8.6-2.1,11.6l-0.7,4.8c0,0,0.8-1.7,1.8-4.6c1-2.9,2.1-6.9,3.1-11.4l0.9-3.8
				c1.1-4.4,2.1-8.4,2.9-11.3c0.8-2.9,1.5-4.6,1.5-4.6c0,0-1.1,1.5-2.5,4.2c-1.4,2.7-2.9,6.7-4,11.2L269.1,107.2z"/>
		</g>
		<g>
			<path fill="#FFDAA3" d="M272.9,106.9c-1.9,8.2-1.3,15.1-1.3,15.1l3.4-14.6c0.3-1.1,0.5-2.3,0.8-3.4c2-8,3.5-14.6,3.5-14.6
				c0,0-3.6,5.9-5.6,14C273.4,104.5,273.1,105.7,272.9,106.9z"/>
		</g>
		<g>
			<path fill="#FFDAA3" d="M288.4,107.9c-0.5,6.8-0.2,12.4-0.2,12.4c0,0,2-5.4,2.4-12.3l0.2-2.9c0.4-6.9-0.4-12.4-0.4-12.5
				c0,0-1.4,5.5-1.8,12.3L288.4,107.9z"/>
		</g>
		<g>
			<path fill="#FFDAA3" d="M315.3,106.6c0.3,3.9,1,7.5,1.7,10c0.7,2.5,1.3,4,1.3,4l-0.8-14.1c-0.1-1.1-0.1-2.2-0.2-3.3
				c-0.3-7.7-1.2-14.1-1.2-14.1c0,0-1.4,6.3-1,14.2C315.1,104.4,315.2,105.5,315.3,106.6z"/>
		</g>
		<g>
			<path fill="#FFDAA3" d="M333.4,107.4c0.1,3.8,0.5,7.2,0.9,9.7c0.3,2.5,0.6,4,0.6,4c0,0,0.3-1.5,0.5-4c0.2-2.5,0.4-5.9,0.2-9.7
				l-0.1-3.2c-0.1-3.8-0.3-7.2-0.4-9.7l-0.2-4c0,0-0.5,1.5-0.9,4c-0.4,2.5-0.8,5.9-0.7,9.8L333.4,107.4z"/>
		</g>
		<g>
			<path fill="#FFDAA3" d="M336.3,108.3c0.2,6.9,1.3,12.6,1.3,12.6c0,0,1.1-5.7,0.9-12.6l-0.1-3c-0.2-6.9-1.3-12.6-1.3-12.6
				c0,0-1.1,5.7-0.9,12.6L336.3,108.3z"/>
		</g>
		<g>
			<path fill="#FFDAA3" d="M343.7,106.7c1.6,7.3,3.4,13.3,3.4,13.3c0,0,0.4-6.3-1.2-13.8c-0.2-1.1-0.5-2.1-0.7-3.2
				c-0.9-3.7-2.2-7-3.3-9.3c-1.1-2.3-1.9-3.6-1.9-3.6c0,0,1.3,6.1,3.1,13.4C343.2,104.6,343.4,105.6,343.7,106.7z"/>
		</g>
		<g>
			<path fill="#FFDAA3" d="M348,105.6c0.8,4.2,2,8,3.1,10.6c1.1,2.6,2.1,4.1,2.1,4.1c0,0-0.4-1.7-1-4.4c-0.6-2.7-1.2-6.5-2-10.7
				l-0.7-3.6c-0.8-4.2-2-8-3.1-10.6c-1.1-2.6-2.1-4.1-2.1-4.1c0,0,0.5,1.7,1,4.4c0.6,2.7,1.2,6.5,2,10.7L348,105.6z"/>
		</g>
		<g>
			<path fill="#FFDAA3" d="M359.5,102.3c1,3.3,1.9,6.2,2.5,8.4c0.6,2.2,0.9,3.6,0.9,3.6c0,0,0.3-1.4,0.2-3.7c0-2.3-0.5-5.5-1.5-8.8
				l-0.8-2.8c-1-3.3-2.1-6.2-2.7-8.3c-0.7-2.1-1-3.5-1-3.5c0,0-0.2,1.4-0.1,3.7c0.1,2.3,0.7,5.5,1.7,8.8L359.5,102.3z"/>
		</g>
		<g>
			<path fill="#FFDAA3" d="M365.1,100.8c1.8,3.7,3.8,6.8,5.3,9.1c1.5,2.2,2.5,3.6,2.5,3.6c0,0-0.5-1.6-1.5-4.1
				c-1-2.5-2.5-5.9-4.3-9.5c-0.5-1-1-2.1-1.5-3.1c-1.7-3.7-3.3-7-4.3-9.4c-1.1-2.4-1.7-4-1.7-4c0,0,0.1,1.7,0.7,4.3
				c0.6,2.7,1.6,6.3,3.4,10C364.1,98.7,364.6,99.7,365.1,100.8z"/>
		</g>
		<g>
			<path fill="#FFDAA3" d="M370,106.1c2.3,3.1,4.6,5.8,6.4,7.5c1.8,1.8,3.1,2.8,3.1,2.8l-2.2-3.5c-1.4-2.1-3.2-5-5.5-8.2l-2-2.7
				c-2.3-3.1-4.7-5.7-6.6-7.4c-1.9-1.7-3.2-2.6-3.2-2.6l2.4,3.4c1.5,2.1,3.4,4.9,5.7,8L370,106.1z"/>
		</g>
		<g>
			<path fill="#FFDAA3" d="M376.3,103.1c2.5,3.9,4.9,7.3,6.8,9.8c1.8,2.5,3.1,3.9,3.1,3.9c0,0-0.8-1.7-2.1-4.5
				c-1.4-2.7-3.3-6.5-5.9-10.4c-0.7-1.1-1.5-2.2-2.2-3.3c-2.6-3.9-5.5-7.1-7.7-9.2c-2.2-2.1-3.8-3.2-3.8-3.2c0,0,1.2,1.5,3,3.9
				c1.8,2.4,4.1,5.9,6.7,9.7C374.8,100.9,375.6,102,376.3,103.1z"/>
		</g>
		<g>
			<path fill="#FFDAA3" d="M381.2,101.3c1.9,6.6,5,11.5,5,11.4c0,0-1-5.5-2.8-12l-0.8-2.8c-1.8-6.6-4.1-11.7-4.1-11.7
				c0,0,0.2,5.6,2,12.3L381.2,101.3z"/>
		</g>
		<g>
			<path fill="#FFDAA3" d="M402.8,109c4.9,7.1,9.9,12.2,9.9,12.2c0,0-3.1-6.4-8.1-13.5l-2.1-3.1c-4.9-7.1-9.4-12.6-9.4-12.6
				c0,0,2.6,6.6,7.6,13.8L402.8,109z"/>
		</g>
		<g>
			<path fill="#FFDAA3" d="M409.4,105.7c2.7,4.1,5.3,7.7,7.3,10.3c2,2.6,3.3,4.1,3.3,4.1c0,0-0.9-1.8-2.4-4.7
				c-1.5-2.9-3.7-6.8-6.4-10.9l-2.4-3.5c-2.8-4.1-5.8-7.5-8.1-9.8c-2.3-2.3-3.9-3.5-3.9-3.5l3.1,4.2c1.9,2.6,4.4,6.3,7.1,10.3
				L409.4,105.7z"/>
		</g>
		<g>
			<path fill="#FFDAA3" d="M415.9,100.3c1.6,3,3,5.7,4,7.7l1.6,3.3c0,0-0.1-1.4-0.5-3.6c-0.5-2.2-1.5-5.3-3.1-8.3
				c-0.5-0.9-0.9-1.7-1.4-2.6c-3.5-6.1-7.9-9.7-7.8-9.7c0,0,2.6,5,5.9,10.8C415,98.6,415.5,99.5,415.9,100.3z"/>
		</g>
		<g>
			<path fill="#FFDAA3" d="M419.1,103.5c1,3.3,2.2,6.2,3.2,8.2c1,2,1.8,3.2,1.8,3.2c0,0-0.3-1.4-0.7-3.6c-0.5-2.2-1.1-5.2-2.1-8.5
				l-0.8-2.8c-1-3.3-2.2-6.2-3.3-8.2c-1.1-2-1.9-3.2-1.9-3.2l0.8,3.6c0.5,2.2,1.2,5.2,2.2,8.4L419.1,103.5z"/>
		</g>
		<g>
			<path fill="#FFDAA3" d="M425.5,103.9c2.1,3,4,5.6,5.5,7.6l2.3,3.1c0,0-0.4-1.5-1.4-3.7c-1-2.2-2.5-5.2-4.6-8.3l-1.8-2.6
				c-2.1-3-4.2-5.6-5.6-7.5l-2.5-3c0,0,0.5,1.4,1.5,3.6c1,2.2,2.7,5.1,4.8,8.1L425.5,103.9z"/>
		</g>
		<g>
			<path fill="#FFDAA3" d="M435.2,104.5c3.5,3.9,6.7,7.2,9,9.7l3.8,4.1c0,0-1-1.9-2.9-4.8c-1.9-2.9-4.8-6.7-8.3-10.5l-3-3.3
				c-3.5-3.9-6.7-7.2-9-9.7l-3.8-4.1c0,0,1,1.9,2.9,4.8c1.9,2.9,4.8,6.7,8.3,10.5L435.2,104.5z"/>
		</g>
		<g>
			<path fill="#FFDAA3" d="M444.5,104.3c5.9,7.9,10.8,14.4,10.9,14.4c0,0-3-7.6-9.1-15.7c-0.9-1.1-1.8-2.3-2.7-3.4
				c-3.2-3.9-6.8-6.9-9.6-8.7c-2.8-1.8-4.8-2.4-4.8-2.4c0,0,1.7,1.1,4.1,3.3c2.4,2.2,5.4,5.5,8.5,9.2
				C442.8,102,443.7,103.1,444.5,104.3z"/>
		</g>
		<g>
			<path fill="#FFDAA3" d="M446,104.7c3.8,6.7,8,11.3,8,11.4c0,0-2.3-5.8-6-12.4l-1.6-2.8c-3.6-6.6-6.8-12-6.8-12
				c0,0,1.2,6.2,4.8,13L446,104.7z"/>
		</g>
		<g>
			<path fill="#FFDAA3" d="M454.4,104.5c4.7,5.8,9.5,9.7,9.5,9.7c0,0-3.1-5.3-7.8-11.1l-2-2.5c-4.6-5.8-9-10-9-10
				c0,0,2.6,5.6,7.3,11.4L454.4,104.5z"/>
		</g>
		<g>
			<path fill="#FFDAA3" d="M473.5,106.2c2.1,1.8,4.3,3.2,6.2,4.5c1.9,1.3,3.6,2.5,4.9,3.6c2.7,2.2,4,4,4,4c0,0-0.8-2.1-3.2-4.8
				c-1.2-1.3-2.7-2.8-4.6-4.3c-1.8-1.5-3.9-3-5.9-4.7c-1.1-1-2.3-2-3.4-3c-4-3.6-7.8-6.6-10.7-8.7c-2.8-2.1-4.7-3.2-4.7-3.2l4,4.1
				c2.5,2.5,5.9,5.9,9.9,9.5C471.2,104.2,472.3,105.2,473.5,106.2z"/>
		</g>
		<g>
			<path fill="#FFDAA3" d="M479.2,105.7c3.1,3.4,6.2,6.2,8.6,8c2.4,1.8,4,2.7,4,2.7l-3.3-3.5c-2-2.2-4.7-5.3-7.7-8.6
				c-0.9-1-1.7-1.9-2.5-2.9c-5.8-6.9-11.1-12.2-11.1-12.2c0,0,3.5,6.6,9.5,13.6C477.5,103.8,478.4,104.7,479.2,105.7z"/>
		</g>
		<g>
			<path fill="#FFDAA3" d="M488.4,102.6c3.8,4.6,7.6,7.9,7.6,7.9c0,0-2-4.6-5.9-9.3l-1.6-2c-3.8-4.6-7.6-7.9-7.6-7.9
				c0,0,2,4.6,5.9,9.3L488.4,102.6z"/>
		</g>
		<g>
			<path fill="#FFDAA3" d="M473.8,151.6c2.5,4.5,5,8.5,7,11.3c2,2.8,3.3,4.4,3.3,4.4c0,0-0.9-1.9-2.4-5c-1.5-3.1-3.5-7.3-6-11.8
				l-2.1-3.9c-2.5-4.5-5-8.5-6.9-11.3c-1.9-2.8-3.2-4.5-3.2-4.5c0,0,0.8,1.9,2.3,5c1.4,3.1,3.4,7.3,5.9,11.9L473.8,151.6z"/>
		</g>
		<g>
			<path fill="#FFDAA3" d="M484.7,155.2c4.7,4.9,9.1,9.1,12.3,12.2l5.2,5c0,0-1.6-2.3-4.4-5.7c-2.8-3.5-6.8-8.1-11.5-13l-4-4.2
				c-4.6-4.9-8.8-9.3-11.8-12.6c-3-3.3-4.8-5.4-4.8-5.4c0,0,1.4,2.4,3.9,6c2.6,3.6,6.4,8.5,11.1,13.4L484.7,155.2z"/>
		</g>
		<g>
			<path fill="#FFDAA3" d="M502.7,161.5c5.8,5.9,11.2,11.2,15.1,14.9c4,3.7,6.5,6,6.5,6c0,0-2.2-2.6-5.7-6.7
				c-3.6-4.1-8.5-9.8-14.4-15.7c-1.7-1.7-3.4-3.4-5.1-5c-5.9-5.9-11.8-10.7-16.2-13.9c-4.4-3.3-7.3-5-7.3-5c0,0,2.6,2.2,6.6,5.8
				c4,3.7,9.4,8.8,15.3,14.7C499.3,158.1,501,159.8,502.7,161.5z"/>
		</g>
		<g>
			<path fill="#FFDAA3" d="M509.2,163.2c4.2,5.8,8.4,10.8,11.5,14.3c3.1,3.5,5.1,5.6,5.1,5.6c0,0-1.6-2.4-4.3-6.3
				c-2.7-3.8-6.4-9.1-10.5-14.9c-1.2-1.7-2.3-3.3-3.5-5c-4-5.9-7.4-11.3-9.6-15.4c-2.3-4.1-3.5-6.7-3.5-6.7c0,0,0.7,2.8,2.5,7.2
				c1.8,4.4,4.8,10.2,8.8,16.1C506.8,159.9,508,161.6,509.2,163.2z"/>
		</g>
		<g>
			<path fill="#FFDAA3" d="M517.3,162.3c10.7,11.6,20.3,20.1,20.3,20.1c0,0-8-10-18.7-21.6l-4.6-4.9c-10.7-11.6-20.6-19.9-20.6-19.9
				c0,0,8.3,9.8,19,21.4L517.3,162.3z"/>
		</g>
		<g>
			<path fill="#FFDAA3" d="M523.7,161.5l20.1,21.2c0,0-1.8-2.7-5.1-7c-3.2-4.2-7.9-9.9-13.4-15.8l-4.8-5
				c-5.6-5.9-10.9-10.9-14.7-14.6c-3.8-3.7-6.3-5.9-6.3-5.9c0,0,2,2.6,5.5,6.6c3.4,4,8.3,9.5,13.9,15.4L523.7,161.5z"/>
		</g>
		<g>
			<path fill="#FFDAA3" d="M538.6,168.1c8,7.1,14.9,12.4,14.9,12.4c0,0-5.4-6.9-13.4-14.1l-3.4-3c-8-7.1-15.3-12-15.3-12
				c0,0,5.8,6.6,13.8,13.6L538.6,168.1z"/>
		</g>
		<g>
			<path fill="#FFDAA3" d="M548,166.2c4.4,3.9,8.4,7.4,11.2,10c2.8,2.6,4.5,4.3,4.5,4.3c0,0-1.3-2-3.7-5.1c-2.4-3-6.1-7-10.6-10.9
				c-1.3-1.1-2.6-2.2-3.9-3.3c-4.5-3.8-8.9-6.9-12-9.2c-3.2-2.2-5.2-3.6-5.2-3.6c0,0,1.6,1.8,4.5,4.4c2.8,2.7,6.8,6.2,11.3,10
				C545.4,164,546.7,165.1,548,166.2z"/>
		</g>
		<g>
			<path fill="#FFDAA3" d="M539.1,153c6.1,4.2,11.6,8,15.5,10.9c3.9,2.9,6.2,4.9,6.2,4.8c0,0-1.9-2.3-5.5-5.7
				c-3.5-3.4-8.8-7.7-14.9-11.9l-5.2-3.6c-6.1-4.2-11.8-7.7-15.8-10.5c-4-2.7-6.5-4.5-6.5-4.5c0,0,2.1,2.2,5.8,5.4
				c3.7,3.2,9.1,7.3,15.2,11.4L539.1,153z"/>
		</g>
		<g>
			<path fill="#FFDAA3" d="M544.9,149.8l17.8,12.1l7.3,5.1c0,0-2.5-2.4-6.7-5.9c-4.2-3.6-10.2-8.3-17.2-13l-6-4
				c-1.7-1.2-3.5-2.3-5.1-3.3l-1.2-0.8l-0.3-0.2l-0.1-0.1l-0.1-0.1l-0.6-0.4c-0.8-0.5-1.5-1.1-2.2-1.7c-2.9-2.2-5.5-4.2-7.9-5.6
				c-2.4-1.4-4.6-2.2-6.1-2.5c-1.5-0.3-2.4-0.2-2.4-0.2c0,0,0.9,0.1,2.3,0.6c1.4,0.5,3.4,1.5,5.6,3.1c2.2,1.6,4.6,3.8,7.4,6.2
				c0.7,0.6,1.4,1.2,2.2,1.8l0.6,0.4l0.1,0.1l0.2,0.1l0.3,0.2l1.2,0.8l5.1,3.4L544.9,149.8z"/>
		</g>
		<g>
			<path fill="#FFDAA3" d="M505.8,98.9c5.9,3.5,11.2,6.7,15,9.1c3.8,2.4,6.1,4,6.1,4c0,0-2-2-5.5-4.9c-3.5-2.9-8.6-6.6-14.5-10.1
				c-1.7-1-3.4-2-5.1-2.9C489.6,87.3,479,83.7,479,83.6c0,0,9.7,5.7,21.7,12.3C502.4,96.9,504.1,97.9,505.8,98.9z"/>
		</g>
		<g>
			<path fill="#FFDAA3" d="M500.2,97.5c4.6,2.8,8.7,5.4,11.7,7.4c2.9,2,4.7,3.4,4.7,3.4c0,0-1.4-1.8-4-4.2
				c-2.6-2.5-6.5-5.6-11.2-8.5c-1.3-0.8-2.7-1.6-4-2.4c-4.7-2.7-9.2-4.9-12.4-6.4l-5.3-2.4c0,0,1.7,1.4,4.7,3.4
				c3,2,7.1,4.6,11.8,7.4C497.6,95.9,498.9,96.7,500.2,97.5z"/>
		</g>
		<g>
			<path fill="#FFDAA3" d="M508.8,107.9c4.6,4.2,8.8,8.1,11.9,10.8c3.1,2.7,5.1,4.4,5.1,4.4c0,0-1.6-2-4.3-5.1
				c-2.7-3.1-6.5-7.4-11.2-11.7c-1.3-1.2-2.7-2.4-4.1-3.6c-4.8-4.1-9.8-7.2-13.6-9c-3.8-1.8-6.3-2.3-6.3-2.3c0,0,2.4,1.1,5.8,3.3
				c3.5,2.2,7.9,5.6,12.7,9.7C506.2,105.5,507.5,106.7,508.8,107.9z"/>
		</g>
		<g>
			<path fill="#FFDAA3" d="M431,68.3c2.5,4,5.2,7.3,7.4,9.4c2.2,2.2,3.7,3.3,3.7,3.3c0,0-1.2-1.5-2.9-4c-1.7-2.5-3.9-6-6.4-9.9
				l-2.1-3.4c-2.4-4-4.8-7.4-6.7-9.9c-1.9-2.4-3.2-3.8-3.2-3.8l2.3,4.4c1.4,2.7,3.3,6.4,5.8,10.4L431,68.3z"/>
		</g>
		<g>
			<path fill="#FFDAA3" d="M438.2,63.8c3.3,3.5,6.4,6.5,8.7,8.6l3.7,3.4c0,0-1-1.7-2.9-4.2c-1.9-2.5-4.6-5.9-7.9-9.4l-2.8-3
				c-3.2-3.5-6.2-6.6-8.4-8.9l-3.5-3.7c0,0,0.9,1.7,2.6,4.4c1.7,2.6,4.4,6.1,7.6,9.7L438.2,63.8z"/>
		</g>
		<g>
			<path fill="#FFDAA3" d="M448.8,62.4c4.6,3.8,8.8,7,11.6,9.7c2.8,2.6,4.2,4.6,4.2,4.6c0,0-0.9-2.3-3.4-5.3
				c-2.4-3.1-6.4-6.8-11-10.6l-1.9-1.6l-1-0.8l-0.9-0.8c-4.3-4-8.3-7.7-11.7-9.7c-1.7-1.1-3.1-1.7-4.2-2.1c-1.1-0.3-1.7-0.3-1.7-0.3
				c0,0,0.6,0.1,1.6,0.6c1,0.5,2.2,1.4,3.7,2.6C437,51,440.6,55,445,59l1,0.9l1,0.8L448.8,62.4z"/>
		</g>
		<g>
			<path fill="#FFDAA3" d="M455.4,60.6c9,7.9,16.5,14.2,16.6,14.2c0,0-1.5-1.9-4.2-4.9c-2.6-3-6.4-7-11-11c-1.3-1.1-2.6-2.3-4-3.4
				c-4.7-3.9-9.3-6.9-12.8-8.8c-3.5-2-5.7-2.9-5.7-2.9c0,0,2,1.4,5.1,3.8c3.1,2.4,7.4,5.8,12,9.6C452.8,58.4,454.1,59.5,455.4,60.6z
				"/>
		</g>
		<g>
			<path fill="#FFDAA3" d="M446.3,65.2c3.1,4.2,6.3,7.7,8.7,10.2c2.4,2.4,4.1,3.8,4.1,3.8l-3.2-4.5c-2-2.8-4.6-6.6-7.8-10.8
				l-2.7-3.6c-3.2-4.2-6.4-7.6-8.9-10c-2.5-2.3-4.3-3.6-4.3-3.6c0,0,1.4,1.6,3.4,4.3c2.1,2.7,4.9,6.5,8,10.6L446.3,65.2z"/>
		</g>
		<g>
			<path fill="#FFDAA3" d="M465.1,62C475,68.1,483,73.3,483,73.3c0,0-1.7-1.7-4.6-4.3c-2.9-2.5-7.2-5.8-12.2-9
				c-1.4-0.9-2.9-1.8-4.3-2.6c-1.2-0.8-2.6-1.5-3.7-2.1l-3.3-2.1c-2.2-1.4-4.3-2.5-6.2-3.1c-1.9-0.6-3.6-0.7-4.7-0.5
				c-1.1,0.2-1.6,0.5-1.6,0.5c0,0,0.6-0.2,1.6-0.2c1.1,0,2.6,0.3,4.2,1.2c1.7,0.8,3.5,2.1,5.5,3.6c1,0.8,2.1,1.6,3.2,2.4
				c1.3,0.8,2.4,1.5,3.7,2.3C462.3,60.2,463.7,61.1,465.1,62z"/>
		</g>
		<g>
			<path fill="#FFDAA3" d="M158.9,105c3.9-3.2,7.4-6.1,9.9-8.4c2.5-2.2,3.9-3.7,3.9-3.7l-4.6,2.9c-2.8,1.8-6.7,4.3-10.6,7.5
				c-1.1,0.9-2.2,1.9-3.3,2.9c-3.8,3.4-6.7,7.2-8.2,10.3c-1.5,3.1-1.8,5.2-1.8,5.2c0,0,0.8-1.9,2.7-4.6c1.9-2.7,5-5.9,8.7-9.2
				C156.7,106.9,157.8,106,158.9,105z"/>
		</g>
		<g>
			<path fill="#FFDAA3" d="M166.2,103.7c1.6-3.4,2.8-6.7,3.5-9.1c0.7-2.4,1-3.9,1-3.9c0,0-0.8,1.3-2,3.5c-1.2,2.2-2.9,5.1-4.5,8.6
				l-1.4,2.9c-1.6,3.5-2.7,6.8-3.3,9.2c-0.6,2.4-0.8,4-0.8,4l1.8-3.6c1.1-2.2,2.7-5.2,4.2-8.7L166.2,103.7z"/>
		</g>
		<g>
			<path fill="#FFDAA3" d="M196.8,96c8.2-7.8,15.4-13.8,15.4-13.8c0,0-2.1,1-5.3,3.1c-3.2,2-7.4,5.1-11.6,9.1
				c-1.2,1.1-2.4,2.3-3.5,3.5c-4.1,4.1-7.3,8.3-9.3,11.4c-2.1,3.2-3.1,5.3-3.1,5.3c0,0,1.5-1.8,4-4.6c2.5-2.8,6-6.5,10-10.5
				C194.5,98.2,195.6,97.1,196.8,96z"/>
		</g>
		<g>
			<path fill="#FFDAA3" d="M213.1,103.1c-0.3-7.5-2.4-13.2-2.4-13.2c0,0-0.1,6.1,0.1,13.3c0,1,0,2.1,0,3.1c0,3.6-0.2,6.9-0.3,9.3
				c-0.2,2.4-0.4,3.9-0.4,3.9c0,0,0.7-1.3,1.5-3.7c0.7-2.3,1.4-5.7,1.5-9.5C213.2,105.3,213.2,104.2,213.1,103.1z"/>
		</g>
		<g>
			<path fill="#FFDAA3" d="M265.4,100.9l12.3-12.2c0,0-7,3.7-13.9,10.6c-1,1-1.9,2-2.9,3c-1.6,1.8-3.1,3.6-4.3,5.3
				c-1.2,1.6-2.4,3.2-3.1,4.6c-0.8,1.4-1.3,2.7-1.4,3.6c-0.2,0.9-0.1,1.4-0.1,1.4c0,0,0.1-0.5,0.4-1.3c0.3-0.8,1-1.9,2-3
				c1-1.2,2.3-2.5,3.7-4.1c1.4-1.6,2.8-3.2,4.4-5C263.5,102.9,264.4,101.9,265.4,100.9z"/>
		</g>
		<g>
			<path fill="#FFDAA3" d="M296.8,101.6c-1.1-6.3-3.3-11.2-3.3-11.2c0,0,0.1,5.3,1.1,11.5l0.5,2.7c1,6.3,3.1,11.2,3.1,11.2
				c0,0,0.1-5.3-0.9-11.6L296.8,101.6z"/>
		</g>
		<g>
			<path fill="#FFDAA3" d="M295.5,101.4c2.3-3.4,4.3-6.6,5.6-8.9c1.3-2.4,2-3.9,2-3.9c0,0-1.1,1.2-2.9,3.3c-1.8,2.1-4.2,4.9-6.5,8.3
				c-0.7,1-1.3,2-2,3c-2.3,3.5-3.8,7-4.7,9.6c-0.9,2.6-1.1,4.3-1.1,4.3c0,0,0.7-1.5,2.1-3.8c1.3-2.3,3.3-5.4,5.5-8.8
				C294.2,103.3,294.9,102.3,295.5,101.4z"/>
		</g>
		<g>
			<path fill="#FFDAA3" d="M320.1,105.3c1.6,3.7,3.1,7.1,4.1,9.5c1,2.5,1.6,4.1,1.6,4.1c0,0,0-1.7-0.5-4.4
				c-0.5-2.7-1.5-6.3-3.1-10.1l-1.4-3.2c-1.7-3.7-3.4-7-4.6-9.4l-2-3.9c0,0,0.2,1.7,0.9,4.3c0.7,2.6,1.9,6.2,3.6,9.9L320.1,105.3z"
				/>
		</g>
		<g>
			<path fill="#FFDAA3" d="M139.8,63.6c3.9-2.7,7.4-5.2,9.9-7.2c2.5-2,3.9-3.3,3.9-3.3l-4.5,2.4c-2.8,1.5-6.6,3.6-10.6,6.3
				c-1.1,0.8-2.3,1.6-3.4,2.4c-3.9,2.9-7,6.1-8.8,8.7c-1.9,2.6-2.5,4.5-2.6,4.5c0,0,1.2-1.6,3.4-3.7c2.2-2.2,5.5-4.9,9.3-7.7
				C137.5,65.2,138.6,64.4,139.8,63.6z"/>
		</g>
		<g>
			<path fill="#FFDAA3" d="M160.4,58.1c7.9-7.8,15-13.5,15-13.5c0,0-2.1,1-5.2,3c-3.1,2-7.3,5-11.4,9c-1.2,1.1-2.3,2.3-3.4,3.4
				c-1,1-1.9,2.1-2.8,3.1l-2.5,2.8c-1.6,1.8-3,3.6-4.1,5.1c-2.2,3.1-2.8,5.4-2.8,5.4c0,0,1.1-2,3.6-4.7c1.2-1.3,2.8-2.8,4.5-4.5
				c0.9-0.8,1.8-1.7,2.7-2.7l2.8-3C158.1,60.3,159.3,59.2,160.4,58.1z"/>
		</g>
		<g>
			<path fill="#FFDAA3" d="M172.4,56.8c2-3.3,3.8-6.4,4.9-8.7c1.1-2.3,1.7-3.8,1.7-3.8c0,0-1,1.2-2.6,3.2c-1.6,2-3.8,4.8-5.8,8.1
				c-0.6,1-1.2,1.9-1.7,2.9c-2,3.4-3.3,6.8-4,9.3c-0.7,2.5-0.7,4.1-0.8,4.1c0,0,0.6-1.5,1.8-3.7c1.1-2.3,2.9-5.3,4.8-8.6
				C171.3,58.7,171.8,57.7,172.4,56.8z"/>
		</g>
		<g>
			<path fill="#FFDAA3" d="M180.5,56.4c3.7-7.2,6-13.5,6-13.5c0,0-4.3,5.2-8,12.5l-1.5,3.2c-1.8,3.7-3,7.3-3.7,9.9
				c-0.7,2.6-0.9,4.3-0.9,4.3c0,0,3-5.9,6.6-13.2L180.5,56.4z"/>
		</g>
		<g>
			<path fill="#FFDAA3" d="M176,59.4c5.1-3.8,9.6-7.4,12.8-10.1c3.2-2.7,5.1-4.5,5.1-4.5c0,0-2.2,1.3-5.8,3.6
				c-3.5,2.2-8.4,5.4-13.5,9.3c-1.5,1.1-2.9,2.2-4.3,3.4c-1.3,1-2.5,2-3.6,3l-1.7,1.5c-0.6,0.5-1.1,1-1.6,1.5c-2,2-3.7,3.7-5.3,5.1
				c-3.1,2.8-5.7,3.5-5.7,3.5c0,0,0.7,0,1.8-0.4c1.1-0.3,2.8-1,4.5-2.2c1.8-1.2,3.7-2.8,5.8-4.6c0.5-0.4,1.1-0.9,1.6-1.3l1.7-1.4
				l3.6-2.9C173.1,61.7,174.5,60.5,176,59.4z"/>
		</g>
		<g>
			<path fill="#FFDAA3" d="M202.8,57.9l4.3-8.2l1.8-3.4c0,0-1.1,1-2.7,2.8c-1.6,1.8-3.6,4.5-5.3,7.8l-1.5,2.8
				c-1.7,3.3-2.8,6.4-3.6,8.6c-0.8,2.3-1.2,3.7-1.2,3.7c0,0,0.9-1.2,2.2-3.2c1.3-2,3-4.9,4.6-8.1L202.8,57.9z"/>
		</g>
		<g>
			<path fill="#FFDAA3" d="M219.7,60.9c0.3-5.5-0.8-10-0.8-9.9c0,0-1.1,4.4-1.4,9.8l-0.1,2.3c-0.3,5.5,0.6,9.9,0.6,9.9
				c0,0,1.3-4.4,1.6-9.8L219.7,60.9z"/>
		</g>
		<g>
			<path fill="#FFDAA3" d="M221.1,60.9c1.9-3.5,3.5-6.7,4.6-9.1c1.1-2.4,1.6-3.9,1.6-3.9c0,0-1,1.3-2.6,3.4c-1.6,2.1-3.7,5-5.6,8.6
				c-0.5,1-1.1,2-1.6,3.1c-1.8,3.6-2.8,7.3-3,9.9c-0.3,2.7,0.1,4.3,0.1,4.3c0,0,0.2-1.6,1-4.1c0.8-2.5,2.2-5.7,3.9-9.2
				C220.1,62.9,220.6,61.9,221.1,60.9z"/>
		</g>
		<g>
			<path fill="#FFDAA3" d="M258.3,58c1.4-3.1,2.4-6.1,3.1-8.2c0.6-2.2,0.9-3.6,0.9-3.6l-1.9,3.1c-1.1,1.9-2.7,4.6-4.1,7.8l-1.2,2.7
				c-1.3,3.2-2.1,6.3-2.3,8.6c-0.2,2.3,0,3.7,0,3.7c0,0,0.3-1.4,1.1-3.5c0.7-2.1,2-4.9,3.3-8L258.3,58z"/>
		</g>
		<g>
			<path fill="#FFDAA3" d="M272.1,61.4c0.4-3.2,0.6-6.1,0.6-8.2c0-2.1-0.2-3.4-0.2-3.4c0,0-0.4,1.3-0.9,3.3c-0.5,2-1.2,4.8-1.6,8
				l-0.4,2.7c-0.4,3.2-0.3,6.1-0.1,8.3c0.2,2.1,0.6,3.4,0.6,3.4l0.6-3.4c0.3-2.1,0.8-4.9,1.2-8L272.1,61.4z"/>
		</g>
		<g>
			<path fill="#FFDAA3" d="M274.4,60.7c2.8-5.3,4.7-10,4.6-10c0,0-3.7,3.5-6.6,9c-0.4,0.8-0.8,1.6-1.2,2.4c-1.4,2.8-2.2,5.5-2.5,7.5
				c-0.4,2-0.4,3.3-0.4,3.3c0,0,2.3-4.5,5-9.8C273.6,62.2,274,61.4,274.4,60.7z"/>
		</g>
		<g>
			<path fill="#FFDAA3" d="M283.4,61.9c0.7,6.8,1.8,12.3,1.8,12.3c0,0,0.3-1.4,0.5-3.7c0.2-2.3,0.3-5.4-0.1-8.8l-0.3-2.9
				c-0.8-6.8-2.6-12.2-2.6-12.2c0,0-0.4,5.7,0.4,12.4L283.4,61.9z"/>
		</g>
		<g>
			<path fill="#FFDAA3" d="M329.9,61.6c0.9,3.8,2,7.2,2.9,9.7c0.9,2.4,1.6,3.9,1.6,3.9c0,0-0.2-1.6-0.5-4.2
				c-0.4-2.6-0.9-6.1-1.8-9.9l-0.8-3.3c-1-3.8-2.3-7.2-3.4-9.6c-1.1-2.4-2-3.7-2-3.7l3.3,13.8L329.9,61.6z"/>
		</g>
		<g>
			<path fill="#FFDAA3" d="M334.2,61.5c-0.9,6.1-0.7,11.2-0.7,11.2c0,0,2-4.7,2.9-10.9l0.4-2.7c0.4-3.1,0.3-6,0.1-8
				c-0.2-2.1-0.6-3.3-0.6-3.3l-0.5,3.3c-0.3,2-0.8,4.7-1.2,7.8L334.2,61.5z"/>
		</g>
		<g>
			<path fill="#FFDAA3" d="M366.7,64.5c2,3.7,4.2,6.9,5.9,9c1.7,2.2,3,3.4,3,3.4l-2-4c-1.2-2.4-2.9-5.8-4.9-9.5l-1.7-3.1
				c-2.1-3.7-4.3-6.8-6.1-8.9c-1.8-2.1-3.2-3.2-3.2-3.2c0,0,0.9,1.5,2.3,3.8c1.4,2.4,3.1,5.7,5.1,9.3L366.7,64.5z"/>
		</g>
		<g>
			<path fill="#FFDAA3" d="M376.6,63.7c4,7.4,8.3,12.9,8.3,12.9c0,0-2.3-6.5-6.3-13.9l-1.7-3.2c-4-7.4-8.5-12.8-8.5-12.7
				c0,0,2.6,6.4,6.6,13.8L376.6,63.7z"/>
		</g>
		<g>
			<path fill="#FFDAA3" d="M375.8,60.8c0.7,5.8,2.5,10.3,2.5,10.3c0,0,0.4-4.8-0.3-10.6l-0.3-2.5c-0.6-5.7-1.7-10.4-1.7-10.4
				c0,0-1.1,4.8-0.5,10.6L375.8,60.8z"/>
		</g>
		<g>
			<path fill="#FFDAA3" d="M394,64.5c1.9,3.3,3.8,6.1,5,8.2c1.2,2.1,1.9,3.6,1.9,3.6c0,0-0.1-1.6-0.9-4c-0.7-2.4-2.2-5.6-4.1-8.9
				c-0.5-0.9-1.1-1.9-1.6-2.8l-0.4-0.8l0,0l0,0c-0.9-1.4-1.7-2.9-2.5-4.2c-0.8-1.3-1.5-2.5-2.2-3.5c-1.4-2-2.6-2.8-2.6-2.7
				c0,0,0.9,1.1,1.7,3.3l1.5,3.8c0.6,1.4,1.2,3,2.2,4.6l0-0.1l0.5,0.9C392.9,62.7,393.5,63.6,394,64.5z"/>
		</g>
		<g>
			<path fill="#FFDAA3" d="M430.8,65.1c2.9,3.4,5.5,6.5,7.2,8.9c1.7,2.4,2.7,4,2.7,4c0,0-0.4-1.8-1.7-4.5c-1.3-2.7-3.5-6.3-6.5-9.8
				l-2.5-3c-3-3.4-5.8-6.3-7.7-8.6c-1.9-2.2-3.1-3.7-3.1-3.7c0,0,0.6,1.7,2.2,4.4c1.5,2.6,4,6,6.9,9.4L430.8,65.1z"/>
		</g>
		<g>
			<path fill="#FFDAA3" d="M411.7,61.7c1,6.5,3.4,11.4,3.4,11.3c0,0-0.2-5.3-1.2-11.7c-0.1-0.9-0.3-1.8-0.4-2.7
				c-0.9-6.3-1.8-11.6-1.7-11.6c0,0-0.3,1.3-0.6,3.5c-0.2,2.1-0.3,5.1,0.1,8.4C411.4,59.8,411.5,60.8,411.7,61.7z"/>
		</g>
		<g>
			<path fill="#FFDAA3" d="M391.9,62.9c2.8,2.5,5.5,4.3,7.5,5.7c2,1.4,3.2,2.2,3.2,2.2c0,0-0.9-1.2-2.5-3c-1.6-1.8-4-4.1-6.7-6.5
				c-0.8-0.7-1.5-1.4-2.3-2.1l-1.9-1.9c-0.6-0.6-1.2-1.1-1.7-1.7c-1.1-1.1-2.1-2.2-3.1-3c-1.9-1.6-3.4-2-3.4-2c0,0,1.2,0.9,2.6,2.8
				c0.7,0.9,1.5,2.1,2.4,3.4c0.5,0.6,1,1.3,1.6,2c0.5,0.6,1.2,1.3,1.9,1.9C390.4,61.5,391.1,62.2,391.9,62.9z"/>
		</g>
		<g>
			<path fill="#FFDAA3" d="M294.3,61.2l-3,12.7c0,0,0.9-1.2,1.9-3.4c1.1-2.1,2.3-5.2,3.2-8.8l0.7-3c0.8-3.5,1.2-6.8,1.5-9.2
				c0.2-2.4,0.3-3.9,0.3-3.9c0,0-0.6,1.4-1.4,3.6c-0.8,2.3-1.7,5.4-2.6,8.9L294.3,61.2z"/>
		</g>
		<g>
			<path fill="#FFDAA3" d="M337.2,60.3c2.2,6.1,4.8,10.8,4.9,10.8c0,0-0.5-5.4-2.8-11.5l-1-2.6c-1.2-3.1-2.7-5.7-4-7.4
				c-1.3-1.8-2.2-2.7-2.2-2.7l1.2,3.3c0.7,2,1.7,4.7,2.9,7.7L337.2,60.3z"/>
		</g>
		<g>
			<path fill="#FFDAA3" d="M366.8,64.5c1.2,3.8,2.7,7.1,3.8,9.5c1.1,2.4,1.9,3.8,1.9,3.8c0,0-0.2-1.6-0.8-4.2
				c-0.6-2.5-1.5-6-2.7-9.8c-0.3-1.1-0.6-2.1-0.9-3.2c-1-3.8-1.9-7.2-2.5-9.7c-0.5-2.5-0.8-4.1-0.8-4.1c0,0-0.3,1.6-0.3,4.2
				c0,2.6,0.4,6.3,1.4,10.2C366.2,62.3,366.5,63.4,366.8,64.5z"/>
		</g>
		<g>
			<path fill="#FFDAA3" d="M273.6,102.1c2.8-4,5.1-7.9,6.6-10.8c1.5-2.9,2.2-4.8,2.2-4.8l-3.2,4.2c-1.9,2.6-4.7,6.1-7.5,10.1
				l-2.4,3.5c-2.8,4.1-4.9,8.1-6.2,11.1c-1.3,3-1.8,4.9-1.8,4.9c0,0,1.1-1.7,2.8-4.4c1.8-2.7,4.3-6.3,7-10.3L273.6,102.1z"/>
		</g>
		<g>
			<path fill="#FFDAA3" d="M318.1,108.3c4.7,7.7,9,13.7,9,13.7c0,0-2.4-7.1-7.1-14.8l-2-3.3c-4.7-7.7-9.6-13.3-9.6-13.3
				c0,0,3,6.8,7.8,14.5L318.1,108.3z"/>
		</g>
		<g>
			<path fill="#FFDAA3" d="M376.1,103.2c0.2,6.7,1.3,12.1,1.3,12.1c0,0,1.1-5.4,0.9-12.1l-0.1-2.9c-0.2-6.7-1.3-12.1-1.3-12.1
				c0,0-1.1,5.4-0.9,12.1L376.1,103.2z"/>
		</g>
		<g>
			<path fill="#FFDAA3" d="M410.8,108c3.8,4,7.9,7.2,11.1,9.1c3.2,1.9,5.3,2.6,5.3,2.6c0,0-1.9-1.2-4.7-3.5
				c-2.8-2.3-6.3-5.7-10.1-9.7l-3.3-3.4c-3.8-4-7.6-7.5-10.6-9.6c-3-2.1-5.1-3.1-5.1-3.1c0,0,1.8,1.4,4.4,3.9
				c2.6,2.5,5.9,6.2,9.7,10.2L410.8,108z"/>
		</g>
		<g>
			<path fill="#FFDAA3" d="M259,55c3-4.6,5.5-9,7.1-12.2c1.6-3.3,2.4-5.4,2.4-5.4l-3.4,4.8c-2.1,3-5,7-8,11.6l-2.6,4
				c-3,4.6-5.4,9.1-7,12.4c-1.5,3.3-2.3,5.4-2.3,5.4l3.2-4.9c2-3,4.8-7.1,7.9-11.7L259,55z"/>
		</g>
		<g>
			<path fill="#FFDAA3" d="M296.5,51.9c-0.5-5.1-1.3-9.8-2.1-13.1c-0.8-3.3-1.5-5.3-1.5-5.3l1.4,18.6l0.4,4.4
				c0.4,5.1,1.2,9.8,1.9,13.1c0.7,3.3,1.3,5.3,1.3,5.4l-0.2-5.5c-0.1-3.4-0.3-8-0.8-13.2L296.5,51.9z"/>
		</g>
		<g>
			<path fill="#FFDAA3" d="M395.2,61.5c1.4,4,2.9,7.5,4.1,10c1.2,2.5,1.9,4,1.9,4c0,0-0.2-1.7-0.9-4.4c-0.6-2.7-1.7-6.4-3-10.3
				c-0.4-1.1-0.8-2.3-1.1-3.4c-1.3-4-2.4-7.5-3.2-10.2c-0.8-2.6-1.2-4.3-1.2-4.3c0,0-0.1,1.7,0.1,4.5c0.2,2.8,0.9,6.6,2.2,10.6
				C394.5,59.2,394.8,60.4,395.2,61.5z"/>
		</g>
	</g>
</g>
<radialGradient id="SVGID_2_" cx="305.3597" cy="2490.4912" r="580.6302" gradientTransform="matrix(1 0 0 0.7805 0 -1760.7428)" gradientUnits="userSpaceOnUse">
	<stop  offset="0" style="stop-color:#C75E5E"/>
	<stop  offset="0.1725" style="stop-color:#C35D5F"/>
	<stop  offset="0.3335" style="stop-color:#B85A62"/>
	<stop  offset="0.49" style="stop-color:#A55468"/>
	<stop  offset="0.6436" style="stop-color:#8B4D70"/>
	<stop  offset="0.7953" style="stop-color:#68437A"/>
	<stop  offset="0.9435" style="stop-color:#3F3786"/>
	<stop  offset="0.988" style="stop-color:#31338A"/>
</radialGradient>
<rect x="-128.8" y="-201.9" display="none" fill="url(#SVGID_2_)" width="880" height="740.3"/>
<text transform="matrix(1 0 0 1 176.3383 272.3679)" fill="#FFBA31" font-family="'Noteworthy-Light'" font-size="87.7806">Cabana</text>
</svg>
