<svg xmlns="http://www.w3.org/2000/svg" viewBox="0 0 736.5 535.2"><path fill="#20AD8C" d="M222.6 126s8-8 9.9-9.1c1.9-1.1 24.4-6.3 24.4-6.3s10.4-13.9 11.8-15c1.3-1.1 29.7-12.4 32.7-12.8 2.9-.4 39.9 7.6 39.9 7.6l4.5-4.8s11.5-4.1 13.1-4.6c1.6-.4 19.5-2 19.5-2l35.6-2.6 19.8 7.2c0 .2-203.4 42.2-211.2 42.4z"/><path fill="#FFFDE8" d="M60.7 293.9s90.1-5.9 123.6-4.8c33.5 1.1 182.2 9.4 186.4 9.4 4.3 0 30.7-1.5 30.7-1.5s-144.1-8.8-218.7-9.4c-74.6-.6-154.6 7-154.6 7l32.6-.7zM248 312.4s55.1-2.1 80.8.1c25.7 2.2 116.6 5.7 170.7 1.6l-19.8-4.8s-67.4 3.8-114 3.2c-46.6-.6-100.6-4.2-100.6-4.2l-17.1 4.1z"/><path fill="#FAF1D2" d="M463.1 313s26.3 1.9 52.5-.7c0 0-15.6-2-27.4-3-11.8-.9-25.1 3.7-25.1 3.7z"/><path fill="#008564" d="M360.2 111.5s14.5-11.5 15.3-11.8c.8-.3 18.5 1.3 18.5 1.3s5.6-2.7 6.7-2.4 27.8 6.4 27.8 6.4-39.7 9.5-68.3 6.5zm45.8 8.3s4.3-4.8 8.3-5.4 18.5 2.1 18.5 2.1-18.3 4.7-26.8 3.3z"/><path opacity=".53" fill="#BA6950" d="M716.7 476.8s-295.4 26.5-334.3 24.5c-156.9-7.8-304.8-56.7-304.8-56.7s70.5-31 227.7-31c157.2.2 411.4 63.2 411.4 63.2z"/><path fill="#B88F68" d="M470.9 160l21.8 34.2-3.4-24.4 40.6 38.6-23.3-36.5 26 20.4-13.2-22.3 37.3 25.3-15.6-25.9 26.6 15.9-19.4-27.2-40.6-.5M146.3 160l-21.9 34.2 3.5-24.4-28.7 23.3 11.4-21.2-34.8 24.3 16.3-25.3-36.3 25.6L75 171.4l-29.5 19.8 23.4-33.1 40.6-.5"/><linearGradient id="a" gradientUnits="userSpaceOnUse" x1="306.966" y1="290.339" x2="306.966" y2="168.044"><stop offset="0" stop-color="#703229"/><stop offset=".146" stop-color="#62262B"/><stop offset=".41" stop-color="#50162E"/><stop offset=".688" stop-color="#460D2F"/><stop offset="1" stop-color="#420A30"/></linearGradient><path fill="url(#a)" d="M134.3 170l342.1-1.9s3.8 121.3 3.2 119.9c-.5-1.4-344.2 2.4-344.2 2.4L134.3 170z"/><path fill="#884828" d="M137 293.7l2.4-131.9h-25.1l1.6 130.4"/><path fill="#884522" d="M539.5 285.4l-27.3-8-.5 11.3 27.8.1M68.8 287l27.3-7.9.5 11.3H68.8"/><path fill="#884828" d="M493.2 293.7l2.4-131.9h-25.1l1.6 130.4"/><path fill="#7D3B19" d="M530.2 177.3l-449.6 3.2-2.1-19.4 453.2-7.3"/><path fill="#EDAC61" d="M109.1 296.4l392.8-3.4 1.9 137.6-394.7-1.7"/><path fill="#C98E58" d="M91.7 159l25.7-1.2 4.2 287.1h-19.7"/><path opacity=".68" fill="#E8B6B9" d="M117.4 157.8l-13.2.6 6.7 286.5h10.7"/><path fill="#D9954A" d="M132.816 302.79l1.07 119.3-.8.006-1.07-119.3zM145.5 422.1l-3.8-118.6h.8l3.8 118.6m9.7.1h-.8l1.1-119.2h.8m9.4 119.2L164.9 304l.8-.1 1.6 118.3m9.7-.7h-.8l1.7-117.6.8.1m12.6 117l-2.1-118.5h.8l2.2 118.5m4.5-.5c-.4-40-1.2-116.2-1.6-118l.8-.2c.5 1.1 1.5 98.7 1.7 118.2h-.9zm11.1-117h.8v118.9h-.8zm14 119h-.8c0-12.1 0-118.1.6-119.6l.8.2-.4-.1.4.1c-.5 1.8-.6 78.9-.6 119.4zm171.92-119.705l1.07 119.3-.8.008-1.07-119.3zM406.4 422.1l-3.7-120.3h.8l3.7 120.3m10.18-119.81l.8.01-1.388 119.887-.8-.01zM427.4 422.2l-1.6-119.8h.8l1.6 119.8m10.39-119.915l.8.008-1.223 119.188-.8-.003zM452.2 421l-2.1-118.5h.8l2.2 118.5m5.173-118.363l.174 117.8-.8.002-.174-117.8zm10.427-.437h.8v120.3h-.8zm13.4-.3h.8v120.6h-.8zm-221.38.174l1.62 120.588-.8.01-1.62-120.587zm7.013-.118l1.614 120.687-.8.01-1.614-120.687zm12.667-.056h.8v120.8h-.8zm7.8 120.9h-.8l5.9-121.3.8.1m5.454 1.66l.525 119.6-.8.004-.53-119.6zM310.6 422.9L309 301.8l.8-.1 1.6 121.2m5.2-121.2h.8v121.2h-.8zM332.7 423l-4.3-121.3.8-.1 4.3 121.4m8.4-121.4h.8v121.5h-.8zm8.884-.062l1.353 121.588-.8.01-1.353-121.59zM364.5 423.1l-4.3-121.6.8-.1 4.3 121.7"/><path fill="#D9954A" d="M208.1 393.6l-.1-.7 13.4-.3.1.7m-30.9-36.2v-.7l5.8-.4.1.7m-29.7 55.6h10v.7h-10zm-23.5-73.5h13.1v.7h-13.1zm12.5 55.9L145 394v-.7l10.9.7m65.7-58.4l-.1-.7 11.6-1.4.1.7m-112.6 41.2v-.7l12.4-.4.1.7m128.1-9.7l-.1-.7 7-.7.1.7m.5 49.1l-7-.3.1-.8 7 .4m12-38l-.1-.7 9.4-.7.1.7m-9.4-55.5l-.1-.8 12.2-1.4.1.7m6.2 79.6l-.1-.7 11.5-.8.1.7m-11.4-61.5l-.1-.7 10.5-.8.1.7m21.6 43.7l-14.5-1.1.1-.7 14.5 1.1m-2-55.2v-.7l12.8-.7v.7m0 90.3h9.3v.7h-9.3zm8.9-42.3l-.1-.7 11.8-1.1.1.8m-1.2-33v-.7l9.5-.8.1.8m2.165 73.346l.006.7-9.2.08v-.7zM405 377.2l-1.1-33-10.2 1.2-.1-.7 11.1-1.3 1 33 11.2-.7v.7m-13.3-54.7v-.7l13.8-.4v.7m-.3 43.2l-.1-.7 10-.7.1.7m10.7 37.7v-.7l14.5-.7v.7m-13.6-65.4v-.8l12.4-.2v.7m1 50.2l-.2-.7 5.7-1 .2.7m.1-61.8l-7.1-.3.1-.7 7 .2m11.2 44.2v-.7l13.3-.2v.7m-13.5 44.2v-.7l13.4-.5v.7m.2-73.6v-.7l7.9-.2.1.7"/><path fill="#C98E58" d="M486.6 152.5l6.2 291.4h20l4.6-290.7"/><path opacity=".68" fill="#E8B6B9" d="M517.4 153.2l-14.3-.3.9 291h8.8"/><path opacity=".55" fill="#7D3B19" d="M101.4 430.1l.5 14.8h19.7l-.2-14.7"/><path fill="#884828" d="M94.1 241.7l24.4-1.4-.1-2.9-23.9 1.1m393.3-35.1h28.7l.1-3.2-28.8-.4M99.7 399.3l21-.6v2.2l-20.9.3M98 336.3l22 .4v2.5l-21.9.5m390.7-66.5l26.7-.7.1-2.9-26.9.4"/><path fill="#884522" d="M515.7 300.6l9.8-.1-4.6 10.1-5.1-2.5"/><path opacity=".55" fill="#7D3B19" d="M492.5 430.9l.3 13h20l.2-12.9"/><path fill="#884828" d="M491.2 360.3l22.9.7-.1 2.6-22.8-.4"/><path fill="#C98E58" d="M520.9 437.9H90l-.9-16 430.3 1.9"/><path fill="#884828" d="M115.7 422.1v15.8h3.6l-1.2-15.8m76.5.3l-.8 15.5h4l-1.2-15.4m66.8.3l.8 15.1h2.4l-.9-15.1m72.5-.7v15.8h3.6l-1.2-15.8m76.5.3l-.8 15.5h4l-1.2-15.4m66.8.3l.8 15.1h2.4l-1-15.1"/><path opacity=".68" fill="#E8B6B9" d="M519.4 423.8l-430.3-1.9.4 7.2h430.4"/><path fill="#D98C45" d="M538.7 163.8L70 166.5l-1-16 471-1.7"/><path fill="#C98E58" d="M232.9 298.2l1.1 126h16.5l-1-125.9m136.7 127.6l.7-125.3h-16.6l3.9 125.3"/><path opacity=".36" fill="#883A11" d="M69.8 154.4l.1 12.1 22 .3 1.8 48.8s3.8-4.6 11.9-5.3c8.1-.7 12.5 4.2 12.5 4.2l-.7-48.2 369.7-2.1.8 51.4s5.6-4.5 14.2-4.3c8.6.2 14.1 6.2 14.1 6.2l.7-52.6 21.4.1 1.5-16.2-245.2-22.1-224.8 27.7z"/><path opacity=".38" fill="#884828" d="M97.2 297.5l418-3.6-.4 32.2s-4.7-5.7-12.2-5.7c-7.4 0-11.9 5.7-11.9 5.7H386.9s-3.6-3.6-7.8-3.6c-4.2 0-7.8 3.6-7.8 3.6H249.9s-4.3-3.4-8.6-3.4-8 3.4-8 3.4H120.1s-4.8-4.1-11.9-4.1c-7 0-10.2 4.1-10.2 4.1l-.8-28.6z"/><path fill="#FFDE8A" d="M514.3 423.8h-2.4l3.8-246.2 2.4.1"/><path fill="#FFC875" d="M99.9 422l-8.7-241.6h2.5l8.6 241.5"/><path fill="#FFC47D" d="M166.3 32.2L69 150.5l471-1.7L434.5 37.4"/><path fill="#B06E34" d="M538.7 300.4L70 303.1l-1-16 471-1.7"/><path opacity=".21" fill="#884828" d="M252.7 149.4l20.2-27.4-8.1 27.8m-107 .4l39.9-49.4-29.4 54"/><path fill="#FFE48A" d="M158.9 145.8c-2.8 5.1 1.4 11.4 6.1 10.8 5.5-.7 6.1-6.2 4-9.8-2.2-3.8-8.1-4.8-10.1-1z"/><path fill="#884828" d="M371.6 337.1l15.1.3v2.5h-15m1.7 58.1l13 .3v2.6h-13m-139.8-40l16.4.3v2.5h-16.3"/><path opacity=".21" fill="#884828" d="M95.7 117.2l412-2.4 11.6 12.1-432.2 1.6m265.2 21l-3.8-20.6 17 20.5"/><path fill="#FFE48A" d="M256.7 141.7c-5 3.6-4.1 10.9.6 12 5.3 1.3 8.5-3.4 8.2-7.5-.3-4.1-5.2-7.2-8.8-4.5z"/><path opacity=".21" fill="#884828" d="M451.2 147l-34-46.2 29.4 54"/><path fill="#FFE48A" d="M354.6 142.1c-5.1 4-2.9 11.2 2.6 12 6.3.9 9.1-4 8.1-8.1-.9-4.1-6.9-6.8-10.7-3.9z"/><path fill="#FFC47D" d="M540 148.8l32.4 32.4-39.7-26.1 13.8 23.4-30.8-22 6.9 14.6-21.4-14.6 20.6 35.1-36.4-35.5 11.7 23.6-23.4-23.2 1.5 21.4-22.5-28.8 43.6-3.7"/><path opacity=".21" fill="#884828" d="M130.9 75.2h339.2l9.6 10-358.8 2.3"/><path fill="#FFC47D" d="M365.5 149.4l21.9 34.2-3.5-24.4 26.6 29.4-9.2-27.2L417 175l-2.9-15.6 29.9 28.9-11.5-29.8 23.9 15.7-13.5-26.7-40.6-.5M69 150.5l-35.2 41.4 45.3-36-14.7 26 31.2-25.4-6.9 14.6 21.4-14.6-20.6 35.1 36.4-35.5-11.7 23.6 23.5-23.2-1.5 21.4 22.5-28.8-43.7-3.7m137.7 4l-22.9 34.2 3.6-24.4-21.1 19.1 2.9-16.9-16.5 13.6 3.1-15.6-24.6 15.6 5.3-16.5-30.5 27 19.8-35.8 42.3-2.7"/><path fill="#FFE48A" d="M443.4 142.8c-4.5 4.1-2.8 11.2 2 11.9 5.4.8 8-4.1 7.3-8.2-.8-4.1-6-6.7-9.3-3.7z"/><path fill="#FFC47D" d="M352.3 149.5l16.1 34.8-25-26.5 1.3 28.2-16.4-26.8-2.7 27.2L315 160l-6.2 16.4-7-16.5-7.4 19.2-7.8-19.8-12.3 26.5.8-27.5-22.4 26.1 12.1-34.6 39.8-4.1"/><path fill="#AE5D3A" d="M95.7 117.2l19.4-.1 25.2-1.5 43.4 2.5 46.4-2.8 18.3 1 55.3-1.7 55.8 1 55.1-2.2 56.1 2.8 20.5-2.8 16.5 1.4 2.8 2.9-417.8 3.1m36.2-43.1l344.4.8-3.2-3.3-13.6 1.7-26.7-3.2-16.3 1.5-54.2-2.4-53.7 2.4-18.1-1.2-53.1 1.2-53.1-1.4-29.5 1.4-19.9-1.4"/><path fill="#C98E58" d="M435.7 38.7l-269.4-6.5V18.6L435.1 20"/><path opacity=".68" fill="#E8B6B9" d="M435.1 20l-268.8-1.4v8.2l269 .6"/><path opacity=".38" fill="#884828" d="M223.7 18.9l-1.5 14.7 4.6.1V18.9m50.9.3l-.3 15.7 4.1.1-1-15.8m49.5.3l-.4 16.6 4.1.1-.5-16.7m48.6.2v17.7l4.1.1-.9-17.7"/><path opacity=".21" fill="#884828" d="M152.7 48.7l291.9-.6-8.9-9.4-269.4-6.5"/><path fill="#FFDE8A" d="M437.3 40.4s23.4 29.4 62.8 70.7c39.4 41.2 63.1 61 63.1 61s-23.4-29.4-62.8-70.6c-39.4-41.3-63.1-61.1-63.1-61.1zm-276.5-1.5s-27.4 27.6-64.3 72.2c-36.8 44.4-53.5 70-53.5 70s27.4-27.6 64.3-72.2c36.9-44.5 53.5-70 53.5-70z"/><path fill="#FFCC8E" d="M435.1 20s-4 9.1.6 18.6c0 .1 3.7-7.2-.6-18.6zm-268.8-1.4s5.1 6.8 0 13.6c0 0-2.5-5.1 0-13.6z"/><path fill="#D9954A" d="M179.7 77.9l-.7-.2 21.6-44.8.7.3m86.3 42.1l-.8-.2 7.6-39.9.8.2m10.246.198l.8.006-.278 39.6-.8-.006zM430.4 75.4l-23.7-37.8.7-.4L431.1 75m-18 .3l-18.9-37.5.8-.3L413.9 75m-54.8 40.7l-6.4-40.5.8-.1 6.5 40.5m110.4.8l-30.3-37.7.7-.4L471 116m-222.2.4l-.8-.2 13.5-38.3.8.2m-32.4 38.5l-.7-.3 19.9-38.5.7.3m-110 39l-.7-.3 25.3-39.2.7.3"/><path fill="#83531C" d="M166.3 32.2s55.9 2.4 140.2 4.4c84.3 2 129.2 2 129.2 2s-55.9-2.4-140.2-4.4c-84.4-2-129.2-2-129.2-2z"/><path opacity=".38" fill="#884828" d="M147.9 286.8v15.9h3.7v-15.9m76.8-1l.4 15.7h3.7l-1.2-15.7m71.6 1v15.9h3.6v-15.9m75.3-.3l.4 15.7h3.6l-1.2-15.7m73.3.3v15.9h3.6v-15.9"/><path fill="#874414" d="M328.2 439.3c106.4 0 192.6-1.4 192.6-1.4s-86.2-1.4-192.6-1.4h-45.6c-106.4 0-192.7 1.4-192.7 1.4s86.3 1.4 192.7 1.4h45.6z"/><path opacity=".68" fill="#E8B6B9" d="M69.4 294l470-1.5.6-7.1-471 1.7"/><path fill="#80451A" d="M97.2 304.4v-2.9l417.8-2.4v2.9"/><path fill="#FCCC86" d="M329.4 287.6c116.3-.4 210.6-2.2 210.6-2.2s-94.3-1.1-210.6-.7l-49.8.2c-116.3.4-210.6 2.2-210.6 2.2s94.3 1.1 210.6.7l49.8-.2z"/><path fill="#80451A" d="M492 423.7l-3.3-123.1h2.8l.9 123.1M120.9 422l-2.8-118 2.7-.1.6 118.1"/><path fill="#FFCC8E" d="M540 285.4s-5.9 7.2-1.4 15c.1 0 5.1-6.2 1.4-15zm-471 1.7s7 8.1 1 16.2c0 0-5.6-6.6-1-16.2z"/><path fill="#D9954A" d="M182.8 158.7l-.7-.4 21.1-38.5.8.3m209.7 39.5l-18.4-41 .8-.2 18.3 40.9m58.9-2.6l-26.4-38.4.7-.4 26.4 38.4m-378.1.4l-.6-.4 28.7-36 .6.4"/><path fill="#FFCC8E" d="M519.4 423.8s-5.3 6.7 1.5 14.1c0 0 2.5-5.9-1.5-14.1z"/><path fill="#884523" d="M169 312.6l22.1-9-25.2-.8"/><path fill="#FFCC8E" d="M89.1 421.9s7 7.8.9 16c0 0-6.2-6.3-.9-16z"/><path fill="#884523" d="M267.4 311.6l12.8-8.7-15.2-.5m91.1 9.2l-12.8-8.7 15.2-.5"/><path fill="#E1A056" d="M159 311.4c4.9 3.7 12.8 1.7 13.3-2.6.6-4.9-5.2-6.8-9.8-5.9-4.6 1-7.1 5.8-3.5 8.5zm98.9-.5c5.2 3.4 12.9.9 13.1-3.4.2-4.9-5.7-6.5-10.2-5.3-4.6 1.2-6.8 6.1-2.9 8.7z"/><path fill="#884523" d="M447.8 309.7l-19.6-7.9 24-.6"/><path fill="#E1A056" d="M364.6 302.7c-5.3-3.2-12.9-.5-12.9 3.8 0 4.9 6 6.3 10.4 5 4.4-1.4 6.4-6.4 2.5-8.8zm94.2-.4c-5-3.6-12.9-1.4-13.2 2.8-.4 4.9 5.4 6.7 9.9 5.7s7-5.9 3.3-8.5zm71-1.3c-6-2-12.7 2.3-11.5 6.4 1.4 4.7 7.5 4.8 11.4 2.6 4-2.3 4.5-7.6.1-9z"/><path fill="#884523" d="M96.2 303l-9.7-.1 9.2 8.6"/><path fill="#E1A056" d="M85.7 303c6.4-1 12 4.4 9.9 8.2-2.3 4.4-8.4 3.5-11.8.6-3.4-2.8-2.8-8.1 1.9-8.8z"/><path fill="#FFDE8A" d="M166.3 18.6s55.8 2.4 139.9 2.9c84.1.4 128.9-1.5 128.9-1.5s-55.8-2.4-139.9-2.9c-84.2-.4-128.9 1.5-128.9 1.5z"/><path fill="#A14828" d="M198.7 468.2l-1.1 3.8s-7.1 3.6-23.9 3.6c-16.8 0-23.9-4.1-23.9-4.1l-1.8-2.9 50.7-.4z"/><path fill="#E1A056" d="M198.7 468.2s-19 10.9-50.7.4c0-.1 22.3-8.4 50.7-.4z"/><path fill="#E1A056" d="M148 468.5c13.2 4.4 24.1 5.1 32.4 4.4l.4-7.9c-19.3-1.5-32.8 3.5-32.8 3.5z"/><path fill="#FFE5C7" d="M180.9 465l-.4 7.9c11.8-1 18.3-4.7 18.3-4.7-6.4-1.8-12.4-2.8-17.9-3.2z"/><path fill="#AB6D36" d="M146 367.4l26.7 43 2.3-5.4-22.7-37.9"/><path fill="#AB6D36" d="M196.2 367.2l-23 33.3.3 7.2 29.8-40.5"/><path fill="#8C4222" d="M151.4 443.7l44.1-.9v6.5l-43.3.2"/><path fill="#AB6D36" d="M164.4 366.5l1.1 101.8s3.9 2.1 7.9 2.1 7.8-2.1 7.8-2.1l.5-100.9-17.3-.9z"/><path fill="#884828" d="M165 416.7l16.1-.2v2.1l-16.1.5"/><path opacity=".68" fill="#E8B6B9" d="M173.5 389.6l.4 80.8c3.8-.2 7.3-2.1 7.3-2.1l.4-80.2-8.1 1.5z"/><path fill="#924233" d="M152.3 367.1l-6.4.2 10.3 16.6c2.2.4 4.5.8 6.8 1.1l-10.7-17.9zm51 .1h-7.1l-12.1 17.5c2.5-.4 5-.9 7.4-1.6l11.8-15.9zm-21.7 17.9l.1-17.6-17.2-1 .2 18.7c5.6.6 11.3.5 16.9-.1z"/><path fill="#5C0018" d="M205.5 354.4l3.5 11s-13.9 5.4-35.2 5.4c-21.2 0-34.8-5.1-34.8-5.1l2.3-10.9 64.2-.4z"/><path fill="#9C493A" d="M205.5 354.4s-24 13.9-64.2.5c-.1-.1 28.1-10.7 64.2-.5z"/><path fill="#CF876B" d="M173.6 350l4.5 10.6c1.9-.1 3.8-.2 5.5-.4l-5-10.2h-5z"/><path fill="#EEAC92" d="M186.6 350.7l3.8 8.6c9.8-1.9 15.1-4.9 15.1-4.9-6.6-1.9-13-3-18.9-3.7z"/><path fill="#E8AD8B" d="M141.2 354.8s3.1 1.4 8.8 3.1c2.9.8 6.4 1.7 10.6 2.4 4.2.7 9 1.3 14.2 1.3 5.3.1 9.9-.4 13.8-1.2 3.9-.7 7.1-1.7 9.6-2.7 2.5-1 4.3-1.9 5.4-2.5 1.2-.6 1.7-1 1.7-1s-.8.3-2.3.9c-1.5.5-3.7 1.3-6.6 2-5.7 1.5-14.2 2.7-24.4 2.2-5.1-.2-9.6-.7-13.5-1.2-3.9-.5-7.1-1.1-9.7-1.7-4.9-.8-7.6-1.6-7.6-1.6z"/><path fill="#FFC875" d="M179.5 427.4c-.1 21.5 1.4 39 1.4 39s1.7-17.4 1.8-38.9v-9.2c.1-21.5-1.4-39-1.4-39s-1.7 17.4-1.8 38.9v9.2z"/><path fill="#804820" d="M174.1 470.6c2.1-.1 3.9-.7 5.1-1.2 1.2-.5 1.9-1 1.9-1s-3.3.5-7 .7h-1.6c-1.9-.1-3.6-.2-4.9-.4-1.3-.2-2.1-.4-2.1-.4s.6.5 1.8 1.1c1.2.5 3 1.1 5.1 1.1.5.1 1.1.1 1.7.1z"/><path fill="#A14828" d="M465.7 469.3l-1.1 3.8s-7.1 3.6-23.9 3.6c-16.8 0-23.9-4.1-23.9-4.1l-1.8-2.9 50.7-.4z"/><path fill="#E1A056" d="M465.7 469.3s-19 10.9-50.7.4c.1-.1 22.3-8.5 50.7-.4z"/><path fill="#E1A056" d="M415.1 469.6c14.2 4.7 25.8 5.2 34.3 4.2l.6-7.6c-20.5-2-34.9 3.4-34.9 3.4z"/><path fill="#FFE5C7" d="M449.9 466.3l-.6 7.6c10.6-1.2 16.4-4.6 16.4-4.6-5.5-1.6-10.8-2.5-15.8-3z"/><path fill="#AB6D36" d="M413 368.4l26.8 43 2.3-5.3-22.7-37.9"/><path fill="#AB6D36" d="M463.3 368.3l-23 33.3.3 7.2 29.8-40.5"/><path fill="#8C4222" d="M418.5 444.8l44.1-.9v6.5l-43.3.2"/><path fill="#AB6D36" d="M431.5 367.6l1.1 101.8s3.9 2.1 7.9 2.1 7.8-2.1 7.8-2.1l.5-100.9-17.3-.9z"/><path fill="#884828" d="M432.5 437.8l16.2-.3v2.2l-16.2.4m-.2-45.5l16.1-.3v2.2l-16.1.5"/><path opacity=".68" fill="#E8B6B9" d="M440.6 388.9l.5 82.6c3.7-.2 7.1-2.1 7.1-2.1l.4-81.4-8 .9z"/><path fill="#924233" d="M419.4 368.2l-6.4.2 10.3 16.6c2.2.4 4.5.8 6.8 1.1l-10.7-17.9zm51 .1h-7.1l-12.1 17.5c2.5-.4 5-.9 7.4-1.6l11.8-15.9zm-21.8 17.8l.1-17.6-17.2-1 .2 18.7c5.7.6 11.4.6 16.9-.1z"/><path fill="#5C0018" d="M472.5 355.5l3.5 11s-13.9 5.4-35.2 5.4c-21.2 0-34.8-5.1-34.8-5.1l2.3-10.9 64.2-.4z"/><path fill="#9C493A" d="M472.5 355.5s-24 13.9-64.2.5c0-.1 28.2-10.7 64.2-.5z"/><path fill="#CF876B" d="M440.9 351.2l4.5 10.6c1.9-.1 3.8-.2 5.5-.4l-5-10.2h-5z"/><path fill="#EEAC92" d="M453.9 351.9l3.8 8.6c9.8-1.9 15.1-4.9 15.1-4.9-6.6-1.9-12.9-3-18.9-3.7z"/><path fill="#E8AD8B" d="M408.6 356s3.1 1.4 8.8 3.1c2.9.8 6.4 1.7 10.6 2.4 4.2.7 9 1.3 14.2 1.3 5.3.1 9.9-.4 13.8-1.2 3.9-.7 7.1-1.7 9.6-2.7 2.5-1 4.3-1.9 5.4-2.5 1.2-.6 1.7-1 1.7-1s-.8.3-2.3.9c-1.5.5-3.7 1.3-6.6 2-5.7 1.5-14.2 2.7-24.4 2.2-5.1-.2-9.6-.7-13.5-1.2-3.9-.5-7.1-1.1-9.7-1.7-5-.8-7.6-1.6-7.6-1.6z"/><path fill="#FFC875" d="M446.8 430.5c-.1 21.5 1.4 39 1.4 39s1.7-17.4 1.8-38.9v-9.2c.1-21.5-1.4-39-1.4-39s-1.7 17.4-1.8 38.9v9.2z"/><path fill="#804820" d="M441.6 471.5c2.1-.1 3.9-.7 5.1-1.2 1.2-.5 1.9-1 1.9-1s-3.3.5-7 .7H440c-1.9-.1-3.6-.2-4.9-.4-1.3-.2-2.1-.4-2.1-.4s.6.5 1.8 1.1c1.2.5 3 1.1 5.1 1.1.5.2 1.1.2 1.7.1z"/><path fill="#A14828" d="M336.3 475.2l-1.1 3.8s-7.1 3.6-23.9 3.6c-16.8 0-23.9-4.1-23.9-4.1l-1.8-2.9 50.7-.4z"/><path fill="#E1A056" d="M336.3 475.2s-18.9 10.9-50.7.4c0 0 22.3-8.4 50.7-.4z"/><path fill="#E1A056" d="M285.6 475.6c14.4 4.8 26.1 5.2 34.7 4.1l.5-7.5c-20.6-2.1-35.2 3.4-35.2 3.4z"/><path fill="#FFE5C7" d="M320.8 472.3l-.5 7.5c10.3-1.2 16-4.5 16-4.5-5.4-1.6-10.6-2.5-15.5-3z"/><path fill="#AB6D36" d="M283.6 374.4l26.7 43 2.4-5.3-22.8-37.9"/><path fill="#AB6D36" d="M333.8 374.3l-22.9 33.3.2 7.1 29.8-40.5"/><path fill="#8C4222" d="M289 450.8l44.2-.9v6.4l-43.4.3"/><path fill="#AB6D36" d="M302.1 373.5l1.1 101.8s3.9 2.1 7.9 2.1 7.8-2.1 7.8-2.1l.5-100.9-17.3-.9z"/><path fill="#884828" d="M302.7 406.8l16.2-.2v2.1l-16.1.5m.5 49.9l16.1-.2v2.1l-16.1.5"/><path opacity=".68" fill="#E8B6B9" d="M310.5 395.3l1.6 82.1c3.6-.3 6.7-2 6.7-2l.4-81.4-8.7 1.3z"/><path fill="#924233" d="M289.9 374.2l-6.4.2 10.3 16.6c2.2.4 4.5.8 6.8 1l-10.7-17.8zm51 0h-7.1l-12.1 17.5c2.5-.4 5-.9 7.4-1.6l11.8-15.9zm-21.7 17.9l.1-17.6-17.2-1 .2 18.7c5.6.6 11.3.6 16.9-.1z"/><path fill="#5C0018" d="M343.1 361.4l3.5 11s-13.9 5.5-35.2 5.5c-21.2 0-34.8-5.1-34.8-5.1l2.3-10.9 64.2-.5z"/><path fill="#9C493A" d="M343.1 361.4s-24 13.9-64.2.5c-.1 0 28.2-10.6 64.2-.5z"/><path fill="#CF876B" d="M311.6 357.2l4.5 10.6c1.9-.1 3.8-.2 5.5-.4l-5-10.2h-5z"/><path fill="#EEAC92" d="M324.6 357.9l3.8 8.6c9.8-1.9 15.1-4.9 15.1-4.9-6.6-1.9-13-3.1-18.9-3.7z"/><path fill="#E8AD8B" d="M279.3 362s3.1 1.4 8.8 3.1c2.9.8 6.4 1.7 10.6 2.4 4.2.7 9 1.3 14.2 1.3 5.3.1 9.9-.4 13.8-1.2 3.9-.7 7.1-1.7 9.6-2.7 2.5-1 4.3-1.9 5.4-2.5 1.2-.6 1.7-1 1.7-1s-.8.3-2.3.9c-1.5.5-3.7 1.3-6.6 2-5.7 1.5-14.2 2.7-24.4 2.2-5.1-.2-9.6-.7-13.5-1.2-3.9-.5-7.1-1.1-9.7-1.7-5-.9-7.6-1.6-7.6-1.6z"/><path fill="#FFC875" d="M317.3 434.8c-.1 21.5 1.4 39 1.4 39s1.7-17.4 1.8-38.9v-9.2c.1-21.5-1.4-39-1.4-39s-1.7 17.4-1.8 38.9v9.2z"/><path fill="#804820" d="M311.9 477.5c2.1-.1 3.9-.7 5.1-1.2 1.2-.5 1.9-1 1.9-1s-3.3.5-7 .7h-1.6c-1.9-.1-3.6-.2-4.9-.4-1.3-.2-2.1-.4-2.1-.4s.6.5 1.8 1.1c1.2.5 3 1.1 5.1 1.1.5.2 1.1.1 1.7.1z"/><g fill="#FFDAA3"><path d="M177.2 146.6c-5.8 10.6-9.3 19.9-9.3 19.8 0 0 5.4-8.2 11.2-18.8l2.5-4.5c5.9-10.5 10.3-19.3 10.3-19.3s-6.3 7.6-12.2 18.2l-2.5 4.6zm-27.6 2.3c-3.3 4.3-5.9 8.6-7.6 11.8-1.7 3.2-2.5 5.3-2.5 5.3l3.4-4.7c2.1-2.9 5.1-6.7 8.4-11l2.9-3.7c3.4-4.3 6.3-8.2 8.3-11.2 2-2.9 3.2-4.8 3.2-4.8l-4.1 4.1c-2.5 2.6-5.8 6.2-9.2 10.5l-2.8 3.7z"/><path d="M149.4 150.3c-6.2 9.8-9.3 18.6-9.3 18.6s5.1-7.8 11.2-17.4c.9-1.4 1.8-2.7 2.7-4.1 6.2-9.5 11.6-17.1 11.6-17.2 0 0-1.8 1.5-4.3 4.3-2.6 2.8-5.9 6.8-9.1 11.6-1.1 1.4-2 2.8-2.8 4.2zm-11.1 5c-4.7 6.3-8.4 12.5-10.8 17-2.5 4.5-3.7 7.5-3.8 7.5 0 0 7.1-10.6 16.4-23.1 1.3-1.8 2.7-3.6 4-5.3l17.5-22.4s-9.5 8.6-19.2 21c-1.4 1.7-2.7 3.5-4.1 5.3z"/><path d="M137.6 167.4c-4 7.9-7 15.5-8.8 21-1.8 5.5-2.6 9.1-2.6 9.1s1.3-3.4 3.6-8.7c2.3-5.3 5.7-12.5 9.7-20.4 1.1-2.3 2.3-4.5 3.5-6.7 4.1-7.8 7.8-14.9 10.4-20.1 2.6-5.2 4.1-8.5 4.1-8.5s-2 3-5 7.9c-3.1 4.9-7.2 11.8-11.4 19.6-1.2 2.2-2.4 4.5-3.5 6.8zm25.9-3.2c-4.7 6.6-9.2 12.4-12.6 16.5-3.4 4.1-5.6 6.5-5.6 6.5s2.6-2 6.5-5.8c3.8-3.7 8.8-9.3 13.5-15.9 1.4-1.9 2.7-3.8 4-5.7 1.1-1.7 2.2-3.4 3.3-4.9 1-1.6 2.1-3.1 3.1-4.5 2-2.9 3.8-5.6 5-8 1.3-2.4 2-4.5 2.3-5.9.4-1.5.4-2.3.4-2.3s-.2.8-.7 2.2c-.5 1.4-1.5 3.3-3 5.5s-3.4 4.7-5.6 7.4c-1.1 1.4-2.2 2.8-3.4 4.4l-3.3 4.9c-1.2 1.8-2.6 3.7-3.9 5.6zm8.3-.8c-2.9 7.2-5.5 13.6-7.7 18.2s-3.9 7.2-3.8 7.2c0 0 2.1-2.4 4.8-6.7 2.7-4.3 5.9-10.7 8.8-17.8l2.5-6.1 2.2-5.2 2.2-4.8c1.4-3.1 2.6-5.9 3.4-8.3 1.7-4.9 1.8-8.1 1.8-8.1s-.6 3.1-2.8 7.7c-1.1 2.3-2.5 4.9-4 7.9-.8 1.5-1.6 3-2.4 4.7-.8 1.7-1.6 3.4-2.3 5.2l-2.7 6.1zm14.5-11.2c-6.8 11.4-11.2 21.4-11.1 21.4 0 0 6.2-8.9 13.1-20.3l2.9-4.9c6.8-11.4 11.4-21.3 11.4-21.3s-6.4 8.7-13.3 20.1l-3 5zm18.1 8.1c-3.1 6.6-5.5 12.6-7.5 16.9-1.9 4.3-3.3 6.9-3.3 6.9s1.8-2.3 4.3-6.4c2.5-4.1 5.4-10 8.5-16.5.9-1.8 1.8-3.7 2.8-5.5 1.6-3.2 3.3-6.2 4.8-8.9 1.5-2.8 2.8-5.3 3.7-7.5 1.9-4.4 2.2-7.4 2.2-7.4s-.9 2.8-3.2 6.9c-1.1 2.1-2.6 4.4-4.3 7.1-1.7 2.6-3.5 5.6-5.1 8.8-1 1.9-2 3.7-2.9 5.6zm9.3-3.3c-2.1 5.3-3.6 10.3-4.4 14-.9 3.7-1.2 6-1.2 6s3.5-8.6 7.7-19.1l1.8-4.5c4.3-10.5 7.1-19.4 7.1-19.4s-4.8 8-9.1 18.6l-1.9 4.4zm3.3 3.8c-1.3 5.6-2 10.8-2.5 14.5-.5 3.7-.6 6.1-.6 6.1s.7-2.2 1.7-5.9c1-3.6 2.3-8.7 3.6-14.2.4-1.6.8-3.2 1.2-4.7 1.4-5.5 2.7-10.5 3.7-14.1 1-3.6 1.7-5.8 1.7-5.8s-1.2 2-2.8 5.5c-1.6 3.4-3.4 8.4-4.8 13.9-.5 1.5-.9 3.1-1.2 4.7z"/><path d="M218.6 167.6c-3 7-6 13.2-8.6 17.5-2.6 4.3-4.5 6.8-4.5 6.8s2.3-2.1 5.4-6.2c3.1-4 6.7-10.1 9.7-17.2.9-2 1.7-4.1 2.6-6.1 2.9-7.1 5.1-13.7 6.8-18.4 1.7-4.7 2.9-7.6 2.9-7.6s-1.7 2.7-3.9 7.2c-2.3 4.5-5 10.9-7.9 18-.8 2-1.6 4-2.5 6zm15.6-9.2c-2.1 6.1-3.3 11.8-3.9 15.9-.6 4.1-.7 6.7-.7 6.7s2.6-10 6.7-21.9l1.8-5.1c4.4-11.8 8.6-21.3 8.6-21.3s-6.1 8.5-10.6 20.5c-.7 1.8-1.3 3.5-1.9 5.2zm3.1 2.9c-3.1 7-5.2 13.6-6.5 18.4-1.3 4.8-2 7.8-2 7.8l3-7.5c1.9-4.6 4.4-10.9 7.5-17.8.9-2 1.8-3.9 2.7-5.8 3.3-6.8 6.7-12.7 9.4-16.8 2.7-4.1 4.7-6.5 4.7-6.5s-2.4 2-5.6 5.8c-3.2 3.8-7.2 9.6-10.5 16.5-.9 1.9-1.9 3.9-2.7 5.9zm26.2-8.4c-1.1 4.9-2.2 9.3-3.3 12.4-1 3.1-1.9 5-1.9 5s1.3-1.6 2.9-4.6c1.6-3 3.3-7.4 4.4-12.3.3-1.4.6-2.8.9-4.3 1-5 1.6-9.5 2.2-12.8.5-3.3.9-5.3.9-5.3s-.9 1.9-2 5c-1.1 3.2-2.3 7.6-3.2 12.6-.3 1.5-.6 2.9-.9 4.3zm2 9.1c-2.7 6.5-5.2 12.4-7.1 16.6l-3.1 6.9s1.6-2.4 4-6.4 5.5-9.7 8.2-16.3c.8-1.9 1.5-3.8 2.2-5.7 2.5-6.7 3.8-13.1 4.4-17.7.6-4.7.5-7.5.5-7.5s-.5 2.9-1.6 7.3c-1.1 4.5-3 10.6-5.4 17.2-.6 1.9-1.4 3.8-2.1 5.6z"/><path d="M268.9 163.8c-1.5 6.6-2.8 12.6-4.1 16.8-1.3 4.2-2.4 6.8-2.3 6.8 0 0 1.6-2.3 3.4-6.4 1.8-4.1 3.7-10.1 5.2-16.7l1.4-5.6c.8-3.3 1.7-6.4 2.3-9.3.7-2.9 1.1-5.5 1.3-7.8.4-4.5-.1-7.3-.1-7.3s-.1 2.8-1 7.1c-.5 2.2-1.2 4.7-2 7.5s-1.8 5.9-2.7 9.2l-1.4 5.7zm5.7 1.3c-1.3 6.3-2.3 12.1-3 16.3-.6 4.2-.9 6.8-.9 6.8s.8-2.5 2-6.6 2.8-9.7 4-16.1c.4-1.8.7-3.6 1-5.5 1.1-6.4 1.5-12.3 1.4-16.6-.1-4.3-.5-6.9-.5-6.9s-.1 2.6-.6 6.8c-.5 4.2-1.4 9.9-2.5 16.3-.2 1.9-.5 3.7-.9 5.5z"/><path d="M276.4 157.1c-.1 5.6.2 10.8.6 14.5.4 3.7 1 5.9.9 5.9l.2-6c.1-3.7.3-8.8.5-14.4l.1-4.8c.2-5.6.1-10.7-.2-14.4-.2-3.7-.6-6-.6-6l-.5 6c-.3 3.7-.7 8.8-.9 14.4l-.1 4.8zm5.5-1.4l-.2 14.2-.2 5.9s.6-2.2 1.3-5.8c.6-3.6 1.2-8.7 1.3-14.3v-4.8c0-5.6-.4-10.6-.7-14.3-.3-3.6-.6-5.9-.6-5.9s-.3 2.3-.5 5.9c-.2 3.7-.4 8.7-.4 14.3v4.8zm9.6 11.5c1.9 8 4.3 15.1 6.1 20.2 1.9 5.1 3.3 8.1 3.3 8.1s-3.5-12.9-7.3-28.8c-.5-2.3-1.1-4.6-1.6-6.8-3.5-16-6.6-29-6.6-29s.9 13.4 4.4 29.5c.6 2.2 1.1 4.5 1.7 6.8z"/><path d="M293.1 159.1c1.4 11.7 3.1 21.2 3.1 21.2s.4-9.7-.9-21.4l-.6-5c-.3-2.9-.8-5.8-1.2-8.2-.3-2.5-.6-4.8-.9-6.8-.3-1.9-.7-3.5-1.1-4.5-.3-1-.7-1.6-.6-1.6 0 0 .2.6.3 1.6.1 1.1.2 2.6.3 4.6l.1 6.8c.2 2.6.5 5.4.8 8.3l.7 5zm8.2 0c1.7 5.8 3.9 10.9 5.7 14.4 1.8 3.5 3.1 5.6 3 5.6.1 0-3.3-9.2-6.6-20.7-.5-1.6-.9-3.3-1.3-4.9-.4-1.4-.7-2.9-1.1-4.3l-1.1-3.9c-.7-2.5-1.2-4.7-1.6-6.7-.7-3.8-.4-6.3-.4-6.3s-.9 2.4-.7 6.4c.1 2 .4 4.4.9 7 .2 1.3.5 2.6.9 4 .3 1.4.6 2.8 1 4.3.3 1.8.8 3.5 1.3 5.1z"/><path d="M304 158.8c1.4 4.5 2.6 8.6 3.3 11.6.7 3 1 4.9 1 4.9s.2-1.9.1-5.1c-.2-3.2-.9-7.5-2.3-12.1l-1.2-3.9c-1.5-4.5-3-8.5-4-11.5-1-2.9-1.6-4.8-1.6-4.8s0 1.9.5 5.1c.5 3.1 1.5 7.3 3 11.9l1.2 3.9zm4.1-3.3c2 10.4 3.1 18.9 3.1 19 0 0 .3-2.2.3-5.7s-.2-8.4-1.2-13.7l-.9-4.5c-1.1-5.2-2.7-9.9-3.9-13.1-1.2-3.3-2.1-5.3-2.1-5.3s1.5 8.6 3.8 18.9c.3 1.4.6 2.9.9 4.4zm10 6.5c2.1 6.2 4 11.7 5.4 15.8l2.1 6.6s-.2-2.7-1-6.9-2.2-10-4.3-16.2l-1.9-5.3c-2.2-6.2-4.6-11.6-6.3-15.5-1.7-3.9-2.8-6.3-2.8-6.3s.6 2.6 1.8 6.7c1.2 4.1 3 9.8 5.2 15.9l1.8 5.2z"/><path d="M316.4 160.8c.7 5.2 1.6 9.9 2.4 13.2.8 3.4 1.5 5.4 1.5 5.4s-.1-2.1-.4-5.6c-.3-3.4-.6-8.2-1.3-13.4l-.6-4.4c-.7-5.2-1.7-9.9-2.5-13.2-.9-3.4-1.6-5.4-1.6-5.4s.2 2.1.5 5.6c.3 3.4.7 8.1 1.4 13.3l.6 4.5zm15 .6c1.9 6.9 4.1 12.9 5.9 17.2 1.8 4.3 3.2 6.9 3.2 6.9l-2.1-7.2c-1.3-4.5-2.9-10.6-4.8-17.5l-1.6-5.9c-1.1-3.5-2.2-6.6-3.1-9.5-.9-2.9-1.7-5.5-2.2-7.8-1-4.5-1.1-7.4-1.1-7.4s-.5 2.9 0 7.6c.2 2.3.7 5.1 1.5 8.1.7 3 1.8 6.3 2.8 9.6l1.5 5.9z"/><path d="M336.6 162.1c4.3 11.6 8 21 8 21s-1.6-10-5.9-21.7c-.6-1.7-1.2-3.3-1.9-5-4.5-11.6-9.9-20.2-9.9-20.3 0 0 3.3 9.5 7.8 21.1.6 1.5 1.3 3.2 1.9 4.9zm6-6.3c2.2 5.2 4 9.9 5 13.4s1.3 5.8 1.4 5.8c0 0 .2-2.3-.3-6s-1.8-8.8-4-14l-1.9-4.5c-1.2-2.6-2.2-5-3.2-7.3-1-2.2-2-4.2-3-5.8-1.9-3.2-3.6-4.9-3.6-4.9s1.2 2 2.6 5.4c.7 1.7 1.4 3.8 2.3 6.1.8 2.3 1.8 4.9 2.9 7.4l1.8 4.4zm4.8 1.7c1.3 5 2.8 9.4 4.2 12.6 1.4 3.1 2.4 4.9 2.4 4.9l-1.4-5.3-3.1-12.7-1.1-4.3c-1.2-5-2.6-9.5-3.7-12.7-1.2-3.2-2.1-5.1-2.1-5.1l1 5.4c.6 3.3 1.5 7.9 2.7 12.9l1.1 4.3z"/><path d="M355.1 163.5c3.2 5.7 6.4 10.7 8.6 14.3l3.7 5.8s-1-2.5-2.8-6.4c-1.8-3.9-4.5-9.2-7.7-14.8l-2.7-4.9-8.1-14.5-3.3-6.1s.7 2.6 2.3 6.6c1.6 4 4 9.4 7.2 15.1l2.8 4.9zm16.9-5.7c2.2 4.9 4.4 9.2 5.9 12.4l2.6 5.1s-.5-2.1-1.5-5.5c-1.1-3.4-2.8-7.9-4.9-12.9l-1.8-4.2-5.5-12.5-2.2-5.3s.3 2.2 1.2 5.6c.9 3.4 2.4 8.1 4.5 13l1.7 4.3zm7.5 5.4c3.2 5 6.2 9.4 8.3 12.6 2.1 3.2 3.4 5.3 3.4 5.3s-.8-2.3-2.5-5.8-4.3-8.3-7.4-13.3l-2.7-4.3c-3.1-5-6-9.5-7.9-12.9-1.9-3.3-3-5.5-3-5.5s.6 2.3 2.1 6c1.4 3.6 3.9 8.5 7 13.5l2.7 4.4zm6.9-1.1c3.9 6 7.3 11.4 9.7 15.4 2.4 4 3.7 6.6 3.7 6.6s-.9-2.8-2.7-7.1c-1.9-4.3-4.9-10.1-8.8-16.1-1.1-1.7-2.2-3.4-3.4-5.1-4-5.9-8-11.1-10.8-14.8l-4.6-6s1.3 2.6 3.7 6.6c2.4 4 5.9 9.5 9.9 15.4l3.3 5.1z"/><path d="M388.1 158.6c2 6.3 4 12 5.7 16 1.6 4.1 2.8 6.5 2.8 6.5l-1.7-6.8c-1.1-4.2-2.6-10-4.6-16.4l-1.8-5.4c-2.1-6.3-4.5-11.9-6.5-15.8-2-3.9-3.4-6.2-3.4-6.2s1 2.5 2.4 6.6 3.3 9.8 5.4 16l1.7 5.5zm10.4 2.4c2.9 5.6 5.5 10.6 7.2 14.4 1.7 3.8 2.5 6.2 2.5 6.2s-.3-2.6-1.4-6.6c-1.1-4-3.3-9.4-6.2-15.1l-2.5-4.8c-2.3-4.5-4.5-8.5-6.1-11.9-1.6-3.4-2.7-6.1-3.3-7.5l-.2.1c.4.1.6.3.8.4.2.1.3.1.3.1s-.1 0-.3-.1c-.2-.1-.4-.3-.8-.5l-.2-.1.1.3c.3 1.5.9 4.4 2.2 8 1.3 3.6 3.2 7.9 5.5 12.4l2.4 4.7z"/><path d="M395.9 160.2c3.4 4.5 6.7 8.4 9 11.3l3.8 4.7s-1-2.1-2.9-5.3c-1.9-3.2-4.7-7.5-8.1-12l-2.9-3.9-2.5-3.3c-.8-1-1.5-2.1-2.2-3.1-1.4-2-2.7-3.8-4-5.2-2.5-2.9-4.5-4.1-4.5-4 0 0 1.7 1.6 3.6 4.7 1 1.5 2.1 3.4 3.3 5.6.6 1.1 1.3 2.2 2.1 3.3.8 1.1 1.6 2.2 2.4 3.4l2.9 3.8zm9.1-2.3c3.7 4.9 6.9 9.2 9 12.6 2.1 3.3 3.2 5.6 3.2 5.6s-.6-2.4-2.2-6.1c-1.7-3.7-4.6-8.5-8.2-13.4l-3.1-4.2-2.7-3.5c-.8-1.1-1.6-2.3-2.3-3.4-1.5-2.2-2.9-4.2-4.2-5.7-1.3-1.5-2.6-2.6-3.6-3.3-1-.6-1.6-.8-1.6-.8s.5.3 1.3 1.1 1.8 2 2.9 3.6c1.1 1.7 2.2 3.7 3.5 6 .6 1.2 1.3 2.4 2.2 3.6.8 1.2 1.7 2.4 2.6 3.6l3.2 4.3zm12-1.8c2.1 4.9 4 9.4 5.2 12.7 1.3 3.3 1.9 5.4 2 5.4 0 0-.2-2.2-.9-5.7s-2.1-8.3-4.2-13.3l-1.8-4.3c-2.2-5-4.5-9.3-6.2-12.4l-2.8-5s.6 2.1 1.8 5.5c1.2 3.3 3 7.9 5.2 12.8l1.7 4.3zm4.7 3.1c2.9 12 6.1 21.6 6.1 21.6s-1-10.1-3.9-22.1l-1.3-5.2c-3-12-7-21.4-6.9-21.4 0 0 1.8 9.9 4.8 21.9l1.2 5.2z"/><path d="M429.1 164.1l1.1 1.9c.4.6.8 1.3 1.2 1.8.8 1.2 1.6 2.3 2.4 3.3 1.5 2.1 2.9 3.9 4 5.5 2.2 3.2 3 5.5 3 5.5s-.3-2.5-2.1-6c-.9-1.8-2-3.8-3.4-6l-2.1-3.4-2.2-3.7-2.6-4.4c-3.1-5.1-5.8-9.7-7.4-13.2-1.7-3.5-2.5-5.8-2.5-5.8s.2 2.4 1.5 6.2c1.2 3.8 3.5 8.8 6.6 13.9l2.5 4.4zm6-4.6c3.8 5 7.3 9.4 9.7 12.8 2.4 3.3 3.7 5.5 3.7 5.5s-.9-2.4-2.8-6.1c-1.9-3.7-5-8.6-8.9-13.5l-3.3-4.3c-3.9-5-7.4-9.4-9.9-12.7-2.5-3.3-3.9-5.4-3.9-5.4s.9 2.4 3 6c2 3.6 5.2 8.4 9.1 13.4l3.3 4.3z"/><path d="M439.6 160c2.5 6 5.3 11.4 7.5 15 2.2 3.7 3.9 5.8 3.9 5.8s-1.2-2.4-2.9-6.3-3.9-9.4-6.4-15.4l-2.2-5.2c-2.5-6-5.2-11.4-7.4-15.1-2.2-3.7-3.8-5.9-3.8-5.9s1.1 2.4 2.8 6.4c1.7 3.9 3.8 9.4 6.3 15.5l2.2 5.2zm-379.2-4.3c-6.3 6-11.9 11.6-15.8 15.8-3.9 4.2-6.2 6.9-6.2 6.9l7-6.1c4.3-3.8 10.2-9 16.6-14.9l5.4-5.2c1.6-1.5 3.1-3 4.5-4.5l2.1-2.2c.7-.7 1.3-1.5 1.9-2.2 2.4-3 4.4-5.7 6.2-7.9 3.5-4.5 6.3-6.7 6.3-6.7s-3.1 1.8-7.1 6c-2 2.1-4.2 4.7-6.7 7.4-.6.7-1.3 1.4-2 2.1l-2.2 2.1-4.6 4.4-5.4 5zm7.7 5.4c-5.2 8-10.1 15.1-13.9 20-3.8 4.9-6.5 7.8-6.5 7.8s3-2.5 7.3-7.1 9.7-11.4 14.9-19.5l4.4-6.9c5.1-8.1 9.5-15.5 12.8-20.8 3.3-5.3 5.6-8.5 5.5-8.5 0 0-2.6 2.9-6.5 7.9-3.8 5-8.7 12.2-13.8 20.2l-4.2 6.9zm4.9.1c-8.3 12.1-14.5 22.4-14.5 22.4s8-9 16.3-21.1l3.5-5.2c8.2-12.3 13-23.4 13-23.3l-14.8 22-3.5 5.2zm15-1.7c-4.6 6.2-8.4 12.1-11.1 16.4-2.6 4.3-4.1 7.1-4.1 7.1l5-6.5c3.1-4 7.4-9.5 11.9-15.7l3.9-5.3c4.6-6.2 8.4-12.1 11-16.4 2.6-4.3 4.1-7.1 4.1-7.1l-5 6.5c-3.1 4-7.3 9.5-11.9 15.8l-3.8 5.2zm18.4-5.2l-9.8 13.3-4.1 5.5s2-1.7 5-4.8c3-3.1 6.8-7.5 10.7-12.7l3.3-4.5c3.8-5.2 7-10.1 9.3-13.7l3.8-5.8s-1.9 1.9-4.6 5.1c-2.8 3.2-6.5 7.8-10.2 13.1l-3.4 4.5z"/><path d="M108.3 154.8c-5.9 11.7-9.2 21.9-9.2 21.9s5.3-9.2 11.2-20.9l2.5-5c5.9-11.7 9.8-21.6 9.8-21.6s-5.8 8.9-11.8 20.6l-2.5 5zm4.1 5.1c-3.7 6.8-6.9 13.1-9.1 17.6l-3.6 7.4s1.8-2.6 4.6-6.9c2.7-4.3 6.4-10.3 10.1-17.1l3.2-5.8c3.8-6.8 7-13 9.4-17.4l3.9-7.3s-1.9 2.5-4.8 6.7-6.7 10.1-10.4 16.9l-3.3 5.9zm8-3.3c-2.9 6.1-5.3 11.8-7 15.9l-2.7 6.7s1.5-2.3 3.7-6.2c2.2-3.9 5-9.3 8-15.4l2.5-5.2c3-6 5.6-11.5 7.7-15.5l3.3-6.4s-1.8 2.1-4.3 5.8c-2.5 3.7-5.7 9-8.7 15.1l-2.5 5.2z"/><path d="M115.9 159.6c-1.8 6.5-3.2 12.4-4.3 16.7l-1.7 7s1.2-2.5 2.8-6.6c1.6-4.1 3.5-10 5.4-16.5l1.6-5.6 1.3-4.7 1.3-4.4c.8-2.8 1.5-5.4 1.9-7.6.8-4.4.7-7.2.7-7.2s-.4 2.7-1.8 6.9c-.7 2.1-1.6 4.5-2.6 7.3-.5 1.4-1 2.8-1.5 4.3-.5 1.6-1 3.1-1.4 4.7l-1.7 5.7z"/><path d="M122.2 159.6c-3.6 5.6-6.6 10.8-8.6 14.6-2 3.9-3.1 6.3-3.1 6.3l4-5.8c2.5-3.6 5.9-8.5 9.5-14l3.1-4.8c3.6-5.6 6.6-10.8 8.5-14.7 2-3.9 3-6.4 3-6.4l-4 5.8c-2.4 3.6-5.8 8.5-9.4 14.1l-3 4.9zm8 4c-4 8.2-7.4 15.7-9.9 21.2l-4.1 8.8s2.1-3.1 5.1-8.3c3-5.2 6.9-12.5 10.9-20.7l3.5-7c4.1-8.1 7.9-15.4 10.8-20.6 2.9-5.2 4.9-8.3 4.9-8.3s-2.4 2.8-5.8 7.8c-3.4 4.9-7.7 12-11.8 20.2l-3.6 6.9zm-75.6 22.1c-3.6 4.9-6.8 9.5-9.1 12.7l-3.8 5.3s1.9-1.7 4.6-4.6c2.8-2.9 6.4-7.2 10.1-12.1l3.1-4.2c3.6-4.9 6.7-9.6 8.9-12.9l3.6-5.4s-1.8 1.7-4.5 4.7-6.2 7.3-9.9 12.3l-3 4.2zm.2 10.2c-6 9.6-10.8 17.6-10.7 17.6 0 0 6.5-6.7 12.6-16.4.9-1.4 1.7-2.8 2.5-4.2 2.9-5 4.9-9.8 6.1-13.3 1.2-3.6 1.7-5.8 1.7-5.8s-1 2.1-2.7 5.4c-1.7 3.3-4.2 7.8-7 12.7-.8 1.2-1.6 2.6-2.5 4zm7.5-48c17.1-12.7 30.8-23.2 30.8-23.2s-15 8.7-32.1 21.4l-7.3 5.4c-17 12.8-30 24.3-30 24.3S38 166.1 55 153.3l7.3-5.4zm52.5-44.4c5.5-3.2 10.4-6.3 13.9-8.6s5.6-3.9 5.6-3.9l-6.1 3c-3.8 1.9-8.9 4.4-14.5 7.7l-4.7 2.8c-5.5 3.3-10.2 6.8-13.4 9.6-3.2 2.7-5 4.7-5 4.7s2.1-1.5 5.6-3.8c3.5-2.3 8.4-5.3 13.9-8.6l4.7-2.9z"/><path d="M122.1 101.1c4-3.5 7.6-6.8 10.2-9.2 2.6-2.4 4.1-4 4.1-4s-1.9 1.1-4.8 3.1-6.9 4.8-11 8.4c-1.2 1-2.3 2.1-3.4 3.1-4 3.7-7.1 7.5-9.2 10.4-2.1 2.9-3.1 4.8-3.1 4.8s1.5-1.6 4-4.1c2.5-2.5 5.9-5.9 9.8-9.5 1.2-.9 2.3-2 3.4-3zm8.7 2.5c7.4-7.3 12.3-14.3 12.3-14.3s-6.5 5.5-13.9 12.7l-3.2 3.1c-7.4 7.2-12.8 13.8-12.8 13.8s6.9-4.9 14.4-12.2l3.2-3.1zm3.4 3.9c-1.3 2.5-2.2 5.1-3 7.3-.8 2.3-1.5 4.3-2.2 6-1.3 3.4-2.5 5.3-2.5 5.3s1.6-1.6 3.5-4.8c.9-1.6 1.9-3.6 2.9-5.8 1-2.2 2-4.6 3.3-7l2.2-4.2c2.6-4.9 4.7-9.5 6-12.9 1.4-3.4 2.1-5.6 2.1-5.6l-3.1 5.1c-1.9 3.1-4.4 7.5-7 12.4l-2.2 4.2zm17.3-5.6c-2.6 3.6-4.6 7-5.9 9.7-1.3 2.6-1.9 4.3-1.9 4.3l2.9-3.7c1.8-2.3 4.2-5.4 6.8-9l2.2-3.1c2.6-3.6 4.7-7 6-9.6 1.4-2.6 2-4.3 2-4.3l-2.9 3.7c-1.8 2.3-4.3 5.3-6.9 8.9l-2.3 3.1zm3.5 3.7c-1.9 4.1-3.4 7.8-4.6 10.4l-2 4.3s1.3-1.3 3-3.8c1.7-2.4 3.8-6 5.7-10l1.6-3.5c1.8-4.1 3.3-7.9 4.3-10.6l1.7-4.4s-1.2 1.4-2.7 3.9c-1.6 2.5-3.5 6.1-5.4 10.2l-1.6 3.5zm25.2-1.5c-4.4 6.8-6.5 13.2-6.5 13.1 0 0 4-5.2 8.3-12l1.9-2.9c4.4-6.7 7.5-12.5 7.5-12.5s-4.9 4.5-9.3 11.3l-1.9 3zm6-.4c-2.2 3.8-4 7.4-5.2 10-1.2 2.6-1.8 4.4-1.8 4.4l2.7-3.8c1.7-2.4 3.9-5.6 6.1-9.5l1.8-3.3c2.1-3.9 3.5-7.7 4.2-10.6.7-2.8.8-4.6.9-4.6 0 0-.7 1.7-1.9 4.3-1.2 2.6-3.1 6.1-5.1 9.9-.5 1-1.1 2.1-1.7 3.2zm23.7 2.6c-3.6 7.8-5.4 14.6-5.4 14.6s3.8-5.9 7.4-13.6l1.6-3.3c1.9-3.8 3.4-7.3 4.6-9.9L220 90s-1.2 1.3-2.8 3.6c-1.7 2.3-3.8 5.6-5.6 9.5l-1.7 3.2zm9.3-1.9c-4.2 8.1-5.9 15.4-5.9 15.3 0 0 3.8-6.3 7.9-14.3l1.8-3.4c4.2-8 6.9-14.9 6.9-14.9s-4.6 5.8-8.9 13.8l-1.8 3.5zm49.9 2.8c-1 4.5-1.6 8.6-2.1 11.6l-.7 4.8s.8-1.7 1.8-4.6c1-2.9 2.1-6.9 3.1-11.4l.9-3.8c1.1-4.4 2.1-8.4 2.9-11.3.8-2.9 1.5-4.6 1.5-4.6s-1.1 1.5-2.5 4.2-2.9 6.7-4 11.2l-.9 3.9zm3.8-.3c-1.9 8.2-1.3 15.1-1.3 15.1l3.4-14.6c.3-1.1.5-2.3.8-3.4 2-8 3.5-14.6 3.5-14.6s-3.6 5.9-5.6 14c-.3 1.1-.6 2.3-.8 3.5zm15.5 1c-.5 6.8-.2 12.4-.2 12.4s2-5.4 2.4-12.3l.2-2.9c.4-6.9-.4-12.4-.4-12.5 0 0-1.4 5.5-1.8 12.3l-.2 3zm26.9-1.3c.3 3.9 1 7.5 1.7 10s1.3 4 1.3 4l-.8-14.1c-.1-1.1-.1-2.2-.2-3.3-.3-7.7-1.2-14.1-1.2-14.1s-1.4 6.3-1 14.2c0 1.1.1 2.2.2 3.3zm18.1.8c.1 3.8.5 7.2.9 9.7.3 2.5.6 4 .6 4s.3-1.5.5-4 .4-5.9.2-9.7l-.1-3.2c-.1-3.8-.3-7.2-.4-9.7l-.2-4s-.5 1.5-.9 4-.8 5.9-.7 9.8l.1 3.1zm2.9.9c.2 6.9 1.3 12.6 1.3 12.6s1.1-5.7.9-12.6l-.1-3c-.2-6.9-1.3-12.6-1.3-12.6s-1.1 5.7-.9 12.6l.1 3zm7.4-1.6c1.6 7.3 3.4 13.3 3.4 13.3s.4-6.3-1.2-13.8c-.2-1.1-.5-2.1-.7-3.2-.9-3.7-2.2-7-3.3-9.3-1.1-2.3-1.9-3.6-1.9-3.6s1.3 6.1 3.1 13.4c.1 1.1.3 2.1.6 3.2zm4.3-1.1c.8 4.2 2 8 3.1 10.6 1.1 2.6 2.1 4.1 2.1 4.1s-.4-1.7-1-4.4-1.2-6.5-2-10.7l-.7-3.6c-.8-4.2-2-8-3.1-10.6-1.1-2.6-2.1-4.1-2.1-4.1s.5 1.7 1 4.4c.6 2.7 1.2 6.5 2 10.7l.7 3.6zm11.5-3.3c1 3.3 1.9 6.2 2.5 8.4.6 2.2.9 3.6.9 3.6s.3-1.4.2-3.7c0-2.3-.5-5.5-1.5-8.8l-.8-2.8c-1-3.3-2.1-6.2-2.7-8.3-.7-2.1-1-3.5-1-3.5s-.2 1.4-.1 3.7c.1 2.3.7 5.5 1.7 8.8l.8 2.6zm5.6-1.5c1.8 3.7 3.8 6.8 5.3 9.1 1.5 2.2 2.5 3.6 2.5 3.6s-.5-1.6-1.5-4.1c-1-2.5-2.5-5.9-4.3-9.5-.5-1-1-2.1-1.5-3.1-1.7-3.7-3.3-7-4.3-9.4-1.1-2.4-1.7-4-1.7-4s.1 1.7.7 4.3c.6 2.7 1.6 6.3 3.4 10 .4 1 .9 2 1.4 3.1z"/><path d="M370 106.1c2.3 3.1 4.6 5.8 6.4 7.5 1.8 1.8 3.1 2.8 3.1 2.8l-2.2-3.5c-1.4-2.1-3.2-5-5.5-8.2l-2-2.7c-2.3-3.1-4.7-5.7-6.6-7.4-1.9-1.7-3.2-2.6-3.2-2.6l2.4 3.4c1.5 2.1 3.4 4.9 5.7 8l1.9 2.7zm6.3-3c2.5 3.9 4.9 7.3 6.8 9.8 1.8 2.5 3.1 3.9 3.1 3.9s-.8-1.7-2.1-4.5c-1.4-2.7-3.3-6.5-5.9-10.4-.7-1.1-1.5-2.2-2.2-3.3-2.6-3.9-5.5-7.1-7.7-9.2-2.2-2.1-3.8-3.2-3.8-3.2s1.2 1.5 3 3.9 4.1 5.9 6.7 9.7c.6 1.1 1.4 2.2 2.1 3.3zm4.9-1.8c1.9 6.6 5 11.5 5 11.4 0 0-1-5.5-2.8-12l-.8-2.8c-1.8-6.6-4.1-11.7-4.1-11.7s.2 5.6 2 12.3l.7 2.8zm21.6 7.7c4.9 7.1 9.9 12.2 9.9 12.2s-3.1-6.4-8.1-13.5l-2.1-3.1c-4.9-7.1-9.4-12.6-9.4-12.6s2.6 6.6 7.6 13.8l2.1 3.2zm6.6-3.3c2.7 4.1 5.3 7.7 7.3 10.3 2 2.6 3.3 4.1 3.3 4.1s-.9-1.8-2.4-4.7c-1.5-2.9-3.7-6.8-6.4-10.9l-2.4-3.5c-2.8-4.1-5.8-7.5-8.1-9.8-2.3-2.3-3.9-3.5-3.9-3.5l3.1 4.2c1.9 2.6 4.4 6.3 7.1 10.3l2.4 3.5zm6.5-5.4c1.6 3 3 5.7 4 7.7l1.6 3.3s-.1-1.4-.5-3.6c-.5-2.2-1.5-5.3-3.1-8.3-.5-.9-.9-1.7-1.4-2.6-3.5-6.1-7.9-9.7-7.8-9.7 0 0 2.6 5 5.9 10.8.4.7.9 1.6 1.3 2.4z"/><path d="M419.1 103.5c1 3.3 2.2 6.2 3.2 8.2 1 2 1.8 3.2 1.8 3.2s-.3-1.4-.7-3.6c-.5-2.2-1.1-5.2-2.1-8.5l-.8-2.8c-1-3.3-2.2-6.2-3.3-8.2-1.1-2-1.9-3.2-1.9-3.2l.8 3.6c.5 2.2 1.2 5.2 2.2 8.4l.8 2.9zm6.4.4c2.1 3 4 5.6 5.5 7.6l2.3 3.1s-.4-1.5-1.4-3.7c-1-2.2-2.5-5.2-4.6-8.3l-1.8-2.6c-2.1-3-4.2-5.6-5.6-7.5l-2.5-3s.5 1.4 1.5 3.6 2.7 5.1 4.8 8.1l1.8 2.7zm9.7.6c3.5 3.9 6.7 7.2 9 9.7l3.8 4.1s-1-1.9-2.9-4.8-4.8-6.7-8.3-10.5l-3-3.3c-3.5-3.9-6.7-7.2-9-9.7l-3.8-4.1s1 1.9 2.9 4.8 4.8 6.7 8.3 10.5l3 3.3zm9.3-.2c5.9 7.9 10.8 14.4 10.9 14.4 0 0-3-7.6-9.1-15.7-.9-1.1-1.8-2.3-2.7-3.4-3.2-3.9-6.8-6.9-9.6-8.7-2.8-1.8-4.8-2.4-4.8-2.4s1.7 1.1 4.1 3.3c2.4 2.2 5.4 5.5 8.5 9.2 1 1 1.9 2.1 2.7 3.3z"/><path d="M446 104.7c3.8 6.7 8 11.3 8 11.4 0 0-2.3-5.8-6-12.4l-1.6-2.8c-3.6-6.6-6.8-12-6.8-12s1.2 6.2 4.8 13l1.6 2.8zm8.4-.2c4.7 5.8 9.5 9.7 9.5 9.7s-3.1-5.3-7.8-11.1l-2-2.5c-4.6-5.8-9-10-9-10s2.6 5.6 7.3 11.4l2 2.5zm19.1 1.7c2.1 1.8 4.3 3.2 6.2 4.5 1.9 1.3 3.6 2.5 4.9 3.6 2.7 2.2 4 4 4 4s-.8-2.1-3.2-4.8c-1.2-1.3-2.7-2.8-4.6-4.3-1.8-1.5-3.9-3-5.9-4.7-1.1-1-2.3-2-3.4-3-4-3.6-7.8-6.6-10.7-8.7-2.8-2.1-4.7-3.2-4.7-3.2l4 4.1c2.5 2.5 5.9 5.9 9.9 9.5 1.2 1 2.3 2 3.5 3zm5.7-.5c3.1 3.4 6.2 6.2 8.6 8 2.4 1.8 4 2.7 4 2.7l-3.3-3.5c-2-2.2-4.7-5.3-7.7-8.6-.9-1-1.7-1.9-2.5-2.9-5.8-6.9-11.1-12.2-11.1-12.2s3.5 6.6 9.5 13.6c.8 1 1.7 1.9 2.5 2.9zm9.2-3.1c3.8 4.6 7.6 7.9 7.6 7.9s-2-4.6-5.9-9.3l-1.6-2c-3.8-4.6-7.6-7.9-7.6-7.9s2 4.6 5.9 9.3l1.6 2zm-14.6 49c2.5 4.5 5 8.5 7 11.3 2 2.8 3.3 4.4 3.3 4.4s-.9-1.9-2.4-5-3.5-7.3-6-11.8l-2.1-3.9c-2.5-4.5-5-8.5-6.9-11.3-1.9-2.8-3.2-4.5-3.2-4.5s.8 1.9 2.3 5c1.4 3.1 3.4 7.3 5.9 11.9l2.1 3.9zm10.9 3.6c4.7 4.9 9.1 9.1 12.3 12.2l5.2 5s-1.6-2.3-4.4-5.7c-2.8-3.5-6.8-8.1-11.5-13l-4-4.2c-4.6-4.9-8.8-9.3-11.8-12.6-3-3.3-4.8-5.4-4.8-5.4s1.4 2.4 3.9 6c2.6 3.6 6.4 8.5 11.1 13.4l4 4.3zm18 6.3c5.8 5.9 11.2 11.2 15.1 14.9 4 3.7 6.5 6 6.5 6s-2.2-2.6-5.7-6.7c-3.6-4.1-8.5-9.8-14.4-15.7-1.7-1.7-3.4-3.4-5.1-5-5.9-5.9-11.8-10.7-16.2-13.9-4.4-3.3-7.3-5-7.3-5s2.6 2.2 6.6 5.8c4 3.7 9.4 8.8 15.3 14.7 1.8 1.5 3.5 3.2 5.2 4.9zm6.5 1.7c4.2 5.8 8.4 10.8 11.5 14.3 3.1 3.5 5.1 5.6 5.1 5.6s-1.6-2.4-4.3-6.3c-2.7-3.8-6.4-9.1-10.5-14.9-1.2-1.7-2.3-3.3-3.5-5-4-5.9-7.4-11.3-9.6-15.4-2.3-4.1-3.5-6.7-3.5-6.7s.7 2.8 2.5 7.2 4.8 10.2 8.8 16.1c1.1 1.8 2.3 3.5 3.5 5.1z"/><path d="M517.3 162.3c10.7 11.6 20.3 20.1 20.3 20.1s-8-10-18.7-21.6l-4.6-4.9c-10.7-11.6-20.6-19.9-20.6-19.9s8.3 9.8 19 21.4l4.6 4.9zm6.4-.8l20.1 21.2s-1.8-2.7-5.1-7c-3.2-4.2-7.9-9.9-13.4-15.8l-4.8-5c-5.6-5.9-10.9-10.9-14.7-14.6-3.8-3.7-6.3-5.9-6.3-5.9s2 2.6 5.5 6.6c3.4 4 8.3 9.5 13.9 15.4l4.8 5.1zm14.9 6.6c8 7.1 14.9 12.4 14.9 12.4s-5.4-6.9-13.4-14.1l-3.4-3c-8-7.1-15.3-12-15.3-12s5.8 6.6 13.8 13.6l3.4 3.1zm9.4-1.9c4.4 3.9 8.4 7.4 11.2 10 2.8 2.6 4.5 4.3 4.5 4.3s-1.3-2-3.7-5.1c-2.4-3-6.1-7-10.6-10.9l-3.9-3.3c-4.5-3.8-8.9-6.9-12-9.2-3.2-2.2-5.2-3.6-5.2-3.6s1.6 1.8 4.5 4.4c2.8 2.7 6.8 6.2 11.3 10 1.3 1.2 2.6 2.3 3.9 3.4zm-8.9-13.2c6.1 4.2 11.6 8 15.5 10.9 3.9 2.9 6.2 4.9 6.2 4.8 0 0-1.9-2.3-5.5-5.7-3.5-3.4-8.8-7.7-14.9-11.9l-5.2-3.6c-6.1-4.2-11.8-7.7-15.8-10.5-4-2.7-6.5-4.5-6.5-4.5s2.1 2.2 5.8 5.4c3.7 3.2 9.1 7.3 15.2 11.4l5.2 3.7zm5.8-3.2l17.8 12.1 7.3 5.1s-2.5-2.4-6.7-5.9c-4.2-3.6-10.2-8.3-17.2-13l-6-4c-1.7-1.2-3.5-2.3-5.1-3.3l-1.2-.8-.3-.2-.1-.1-.1-.1-.6-.4c-.8-.5-1.5-1.1-2.2-1.7-2.9-2.2-5.5-4.2-7.9-5.6-2.4-1.4-4.6-2.2-6.1-2.5-1.5-.3-2.4-.2-2.4-.2s.9.1 2.3.6 3.4 1.5 5.6 3.1c2.2 1.6 4.6 3.8 7.4 6.2.7.6 1.4 1.2 2.2 1.8l.6.4.1.1.2.1.3.2 1.2.8 5.1 3.4 5.8 3.9zm-39.1-50.9c5.9 3.5 11.2 6.7 15 9.1 3.8 2.4 6.1 4 6.1 4s-2-2-5.5-4.9c-3.5-2.9-8.6-6.6-14.5-10.1-1.7-1-3.4-2-5.1-2.9-12.2-6.8-22.8-10.4-22.8-10.5 0 0 9.7 5.7 21.7 12.3l5.1 3z"/><path d="M500.2 97.5c4.6 2.8 8.7 5.4 11.7 7.4 2.9 2 4.7 3.4 4.7 3.4s-1.4-1.8-4-4.2c-2.6-2.5-6.5-5.6-11.2-8.5-1.3-.8-2.7-1.6-4-2.4-4.7-2.7-9.2-4.9-12.4-6.4l-5.3-2.4s1.7 1.4 4.7 3.4 7.1 4.6 11.8 7.4c1.4.7 2.7 1.5 4 2.3z"/><path d="M508.8 107.9c4.6 4.2 8.8 8.1 11.9 10.8 3.1 2.7 5.1 4.4 5.1 4.4s-1.6-2-4.3-5.1c-2.7-3.1-6.5-7.4-11.2-11.7-1.3-1.2-2.7-2.4-4.1-3.6-4.8-4.1-9.8-7.2-13.6-9-3.8-1.8-6.3-2.3-6.3-2.3s2.4 1.1 5.8 3.3c3.5 2.2 7.9 5.6 12.7 9.7 1.4 1.1 2.7 2.3 4 3.5zM431 68.3c2.5 4 5.2 7.3 7.4 9.4 2.2 2.2 3.7 3.3 3.7 3.3s-1.2-1.5-2.9-4-3.9-6-6.4-9.9l-2.1-3.4c-2.4-4-4.8-7.4-6.7-9.9-1.9-2.4-3.2-3.8-3.2-3.8l2.3 4.4c1.4 2.7 3.3 6.4 5.8 10.4l2.1 3.5zm7.2-4.5c3.3 3.5 6.4 6.5 8.7 8.6l3.7 3.4s-1-1.7-2.9-4.2-4.6-5.9-7.9-9.4l-2.8-3c-3.2-3.5-6.2-6.6-8.4-8.9l-3.5-3.7s.9 1.7 2.6 4.4c1.7 2.6 4.4 6.1 7.6 9.7l2.9 3.1zm10.6-1.4c4.6 3.8 8.8 7 11.6 9.7 2.8 2.6 4.2 4.6 4.2 4.6s-.9-2.3-3.4-5.3c-2.4-3.1-6.4-6.8-11-10.6l-1.9-1.6-1-.8-.9-.8c-4.3-4-8.3-7.7-11.7-9.7-1.7-1.1-3.1-1.7-4.2-2.1-1.1-.3-1.7-.3-1.7-.3s.6.1 1.6.6 2.2 1.4 3.7 2.6C437 51 440.6 55 445 59l1 .9 1 .8 1.8 1.7zm6.6-1.8c9 7.9 16.5 14.2 16.6 14.2 0 0-1.5-1.9-4.2-4.9-2.6-3-6.4-7-11-11-1.3-1.1-2.6-2.3-4-3.4-4.7-3.9-9.3-6.9-12.8-8.8-3.5-2-5.7-2.9-5.7-2.9s2 1.4 5.1 3.8c3.1 2.4 7.4 5.8 12 9.6 1.4 1.2 2.7 2.3 4 3.4z"/><path d="M446.3 65.2c3.1 4.2 6.3 7.7 8.7 10.2 2.4 2.4 4.1 3.8 4.1 3.8l-3.2-4.5c-2-2.8-4.6-6.6-7.8-10.8l-2.7-3.6c-3.2-4.2-6.4-7.6-8.9-10-2.5-2.3-4.3-3.6-4.3-3.6s1.4 1.6 3.4 4.3c2.1 2.7 4.9 6.5 8 10.6l2.7 3.6zm18.8-3.2C475 68.1 483 73.3 483 73.3s-1.7-1.7-4.6-4.3c-2.9-2.5-7.2-5.8-12.2-9-1.4-.9-2.9-1.8-4.3-2.6-1.2-.8-2.6-1.5-3.7-2.1l-3.3-2.1c-2.2-1.4-4.3-2.5-6.2-3.1-1.9-.6-3.6-.7-4.7-.5-1.1.2-1.6.5-1.6.5s.6-.2 1.6-.2c1.1 0 2.6.3 4.2 1.2 1.7.8 3.5 2.1 5.5 3.6 1 .8 2.1 1.6 3.2 2.4 1.3.8 2.4 1.5 3.7 2.3 1.7.8 3.1 1.7 4.5 2.6zm-306.2 43c3.9-3.2 7.4-6.1 9.9-8.4 2.5-2.2 3.9-3.7 3.9-3.7l-4.6 2.9c-2.8 1.8-6.7 4.3-10.6 7.5-1.1.9-2.2 1.9-3.3 2.9-3.8 3.4-6.7 7.2-8.2 10.3-1.5 3.1-1.8 5.2-1.8 5.2s.8-1.9 2.7-4.6c1.9-2.7 5-5.9 8.7-9.2 1.1-1 2.2-1.9 3.3-2.9z"/><path d="M166.2 103.7c1.6-3.4 2.8-6.7 3.5-9.1.7-2.4 1-3.9 1-3.9s-.8 1.3-2 3.5-2.9 5.1-4.5 8.6l-1.4 2.9c-1.6 3.5-2.7 6.8-3.3 9.2-.6 2.4-.8 4-.8 4l1.8-3.6c1.1-2.2 2.7-5.2 4.2-8.7l1.5-2.9zm30.6-7.7c8.2-7.8 15.4-13.8 15.4-13.8s-2.1 1-5.3 3.1c-3.2 2-7.4 5.1-11.6 9.1-1.2 1.1-2.4 2.3-3.5 3.5-4.1 4.1-7.3 8.3-9.3 11.4-2.1 3.2-3.1 5.3-3.1 5.3s1.5-1.8 4-4.6 6-6.5 10-10.5c1.1-1.3 2.2-2.4 3.4-3.5zm16.3 7.1c-.3-7.5-2.4-13.2-2.4-13.2s-.1 6.1.1 13.3v3.1c0 3.6-.2 6.9-.3 9.3-.2 2.4-.4 3.9-.4 3.9s.7-1.3 1.5-3.7c.7-2.3 1.4-5.7 1.5-9.5.1-1 .1-2.1 0-3.2zm52.3-2.2l12.3-12.2s-7 3.7-13.9 10.6c-1 1-1.9 2-2.9 3-1.6 1.8-3.1 3.6-4.3 5.3-1.2 1.6-2.4 3.2-3.1 4.6-.8 1.4-1.3 2.7-1.4 3.6-.2.9-.1 1.4-.1 1.4s.1-.5.4-1.3c.3-.8 1-1.9 2-3 1-1.2 2.3-2.5 3.7-4.1 1.4-1.6 2.8-3.2 4.4-5 1-.9 1.9-1.9 2.9-2.9zm31.4.7c-1.1-6.3-3.3-11.2-3.3-11.2s.1 5.3 1.1 11.5l.5 2.7c1 6.3 3.1 11.2 3.1 11.2s.1-5.3-.9-11.6l-.5-2.6z"/><path d="M295.5 101.4c2.3-3.4 4.3-6.6 5.6-8.9 1.3-2.4 2-3.9 2-3.9s-1.1 1.2-2.9 3.3c-1.8 2.1-4.2 4.9-6.5 8.3-.7 1-1.3 2-2 3-2.3 3.5-3.8 7-4.7 9.6-.9 2.6-1.1 4.3-1.1 4.3s.7-1.5 2.1-3.8c1.3-2.3 3.3-5.4 5.5-8.8.7-1.2 1.4-2.2 2-3.1zm24.6 3.9c1.6 3.7 3.1 7.1 4.1 9.5 1 2.5 1.6 4.1 1.6 4.1s0-1.7-.5-4.4-1.5-6.3-3.1-10.1l-1.4-3.2c-1.7-3.7-3.4-7-4.6-9.4l-2-3.9s.2 1.7.9 4.3c.7 2.6 1.9 6.2 3.6 9.9l1.4 3.2zM139.8 63.6c3.9-2.7 7.4-5.2 9.9-7.2s3.9-3.3 3.9-3.3l-4.5 2.4c-2.8 1.5-6.6 3.6-10.6 6.3-1.1.8-2.3 1.6-3.4 2.4-3.9 2.9-7 6.1-8.8 8.7-1.9 2.6-2.5 4.5-2.6 4.5 0 0 1.2-1.6 3.4-3.7 2.2-2.2 5.5-4.9 9.3-7.7 1.1-.8 2.2-1.6 3.4-2.4zm20.6-5.5c7.9-7.8 15-13.5 15-13.5s-2.1 1-5.2 3-7.3 5-11.4 9c-1.2 1.1-2.3 2.3-3.4 3.4-1 1-1.9 2.1-2.8 3.1l-2.5 2.8c-1.6 1.8-3 3.6-4.1 5.1-2.2 3.1-2.8 5.4-2.8 5.4s1.1-2 3.6-4.7c1.2-1.3 2.8-2.8 4.5-4.5.9-.8 1.8-1.7 2.7-2.7l2.8-3c1.3-1.2 2.5-2.3 3.6-3.4zm12-1.3c2-3.3 3.8-6.4 4.9-8.7 1.1-2.3 1.7-3.8 1.7-3.8s-1 1.2-2.6 3.2-3.8 4.8-5.8 8.1c-.6 1-1.2 1.9-1.7 2.9-2 3.4-3.3 6.8-4 9.3-.7 2.5-.7 4.1-.8 4.1 0 0 .6-1.5 1.8-3.7 1.1-2.3 2.9-5.3 4.8-8.6.6-.9 1.1-1.9 1.7-2.8zm8.1-.4c3.7-7.2 6-13.5 6-13.5s-4.3 5.2-8 12.5l-1.5 3.2c-1.8 3.7-3 7.3-3.7 9.9-.7 2.6-.9 4.3-.9 4.3s3-5.9 6.6-13.2l1.5-3.2z"/><path d="M176 59.4c5.1-3.8 9.6-7.4 12.8-10.1 3.2-2.7 5.1-4.5 5.1-4.5s-2.2 1.3-5.8 3.6c-3.5 2.2-8.4 5.4-13.5 9.3-1.5 1.1-2.9 2.2-4.3 3.4-1.3 1-2.5 2-3.6 3l-1.7 1.5c-.6.5-1.1 1-1.6 1.5-2 2-3.7 3.7-5.3 5.1-3.1 2.8-5.7 3.5-5.7 3.5s.7 0 1.8-.4c1.1-.3 2.8-1 4.5-2.2 1.8-1.2 3.7-2.8 5.8-4.6.5-.4 1.1-.9 1.6-1.3l1.7-1.4 3.6-2.9c1.7-1.2 3.1-2.4 4.6-3.5zm26.8-1.5l4.3-8.2 1.8-3.4s-1.1 1-2.7 2.8c-1.6 1.8-3.6 4.5-5.3 7.8l-1.5 2.8c-1.7 3.3-2.8 6.4-3.6 8.6-.8 2.3-1.2 3.7-1.2 3.7s.9-1.2 2.2-3.2c1.3-2 3-4.9 4.6-8.1l1.4-2.8zm16.9 3c.3-5.5-.8-10-.8-9.9 0 0-1.1 4.4-1.4 9.8l-.1 2.3c-.3 5.5.6 9.9.6 9.9s1.3-4.4 1.6-9.8l.1-2.3z"/><path d="M221.1 60.9c1.9-3.5 3.5-6.7 4.6-9.1 1.1-2.4 1.6-3.9 1.6-3.9s-1 1.3-2.6 3.4c-1.6 2.1-3.7 5-5.6 8.6-.5 1-1.1 2-1.6 3.1-1.8 3.6-2.8 7.3-3 9.9-.3 2.7.1 4.3.1 4.3s.2-1.6 1-4.1c.8-2.5 2.2-5.7 3.9-9.2.6-1 1.1-2 1.6-3zm37.2-2.9c1.4-3.1 2.4-6.1 3.1-8.2.6-2.2.9-3.6.9-3.6l-1.9 3.1c-1.1 1.9-2.7 4.6-4.1 7.8l-1.2 2.7c-1.3 3.2-2.1 6.3-2.3 8.6-.2 2.3 0 3.7 0 3.7s.3-1.4 1.1-3.5c.7-2.1 2-4.9 3.3-8l1.1-2.6zm13.8 3.4c.4-3.2.6-6.1.6-8.2 0-2.1-.2-3.4-.2-3.4s-.4 1.3-.9 3.3c-.5 2-1.2 4.8-1.6 8l-.4 2.7c-.4 3.2-.3 6.1-.1 8.3.2 2.1.6 3.4.6 3.4l.6-3.4c.3-2.1.8-4.9 1.2-8l.2-2.7z"/><path d="M274.4 60.7c2.8-5.3 4.7-10 4.6-10 0 0-3.7 3.5-6.6 9l-1.2 2.4c-1.4 2.8-2.2 5.5-2.5 7.5-.4 2-.4 3.3-.4 3.3s2.3-4.5 5-9.8c.3-.9.7-1.7 1.1-2.4zm9 1.2c.7 6.8 1.8 12.3 1.8 12.3s.3-1.4.5-3.7c.2-2.3.3-5.4-.1-8.8l-.3-2.9c-.8-6.8-2.6-12.2-2.6-12.2s-.4 5.7.4 12.4l.3 2.9zm46.5-.3c.9 3.8 2 7.2 2.9 9.7.9 2.4 1.6 3.9 1.6 3.9s-.2-1.6-.5-4.2c-.4-2.6-.9-6.1-1.8-9.9l-.8-3.3c-1-3.8-2.3-7.2-3.4-9.6-1.1-2.4-2-3.7-2-3.7l3.3 13.8.7 3.3z"/><path d="M334.2 61.5c-.9 6.1-.7 11.2-.7 11.2s2-4.7 2.9-10.9l.4-2.7c.4-3.1.3-6 .1-8-.2-2.1-.6-3.3-.6-3.3l-.5 3.3c-.3 2-.8 4.7-1.2 7.8l-.4 2.6zm32.5 3c2 3.7 4.2 6.9 5.9 9 1.7 2.2 3 3.4 3 3.4l-2-4c-1.2-2.4-2.9-5.8-4.9-9.5l-1.7-3.1c-2.1-3.7-4.3-6.8-6.1-8.9-1.8-2.1-3.2-3.2-3.2-3.2s.9 1.5 2.3 3.8c1.4 2.4 3.1 5.7 5.1 9.3l1.6 3.2zm9.9-.8c4 7.4 8.3 12.9 8.3 12.9s-2.3-6.5-6.3-13.9l-1.7-3.2c-4-7.4-8.5-12.8-8.5-12.7 0 0 2.6 6.4 6.6 13.8l1.6 3.1z"/><path d="M375.8 60.8c.7 5.8 2.5 10.3 2.5 10.3s.4-4.8-.3-10.6l-.3-2.5c-.6-5.7-1.7-10.4-1.7-10.4s-1.1 4.8-.5 10.6l.3 2.6zm18.2 3.7c1.9 3.3 3.8 6.1 5 8.2 1.2 2.1 1.9 3.6 1.9 3.6s-.1-1.6-.9-4c-.7-2.4-2.2-5.6-4.1-8.9-.5-.9-1.1-1.9-1.6-2.8l-.4-.8c-.9-1.4-1.7-2.9-2.5-4.2-.8-1.3-1.5-2.5-2.2-3.5-1.4-2-2.6-2.8-2.6-2.7 0 0 .9 1.1 1.7 3.3l1.5 3.8c.6 1.4 1.2 3 2.2 4.6V61l.5.9c.4.8 1 1.7 1.5 2.6zm36.8.6c2.9 3.4 5.5 6.5 7.2 8.9 1.7 2.4 2.7 4 2.7 4s-.4-1.8-1.7-4.5c-1.3-2.7-3.5-6.3-6.5-9.8l-2.5-3c-3-3.4-5.8-6.3-7.7-8.6-1.9-2.2-3.1-3.7-3.1-3.7s.6 1.7 2.2 4.4c1.5 2.6 4 6 6.9 9.4l2.5 2.9zm-19.1-3.4c1 6.5 3.4 11.4 3.4 11.3 0 0-.2-5.3-1.2-11.7-.1-.9-.3-1.8-.4-2.7-.9-6.3-1.8-11.6-1.7-11.6 0 0-.3 1.3-.6 3.5-.2 2.1-.3 5.1.1 8.4.1.9.2 1.9.4 2.8z"/><path d="M391.9 62.9c2.8 2.5 5.5 4.3 7.5 5.7 2 1.4 3.2 2.2 3.2 2.2s-.9-1.2-2.5-3-4-4.1-6.7-6.5c-.8-.7-1.5-1.4-2.3-2.1l-1.9-1.9c-.6-.6-1.2-1.1-1.7-1.7-1.1-1.1-2.1-2.2-3.1-3-1.9-1.6-3.4-2-3.4-2s1.2.9 2.6 2.8c.7.9 1.5 2.1 2.4 3.4.5.6 1 1.3 1.6 2 .5.6 1.2 1.3 1.9 1.9.9.8 1.6 1.5 2.4 2.2zm-97.6-1.7l-3 12.7s.9-1.2 1.9-3.4c1.1-2.1 2.3-5.2 3.2-8.8l.7-3c.8-3.5 1.2-6.8 1.5-9.2.2-2.4.3-3.9.3-3.9s-.6 1.4-1.4 3.6c-.8 2.3-1.7 5.4-2.6 8.9l-.6 3.1zm42.9-.9c2.2 6.1 4.8 10.8 4.9 10.8 0 0-.5-5.4-2.8-11.5l-1-2.6c-1.2-3.1-2.7-5.7-4-7.4-1.3-1.8-2.2-2.7-2.2-2.7l1.2 3.3c.7 2 1.7 4.7 2.9 7.7l1 2.4zm29.6 4.2c1.2 3.8 2.7 7.1 3.8 9.5 1.1 2.4 1.9 3.8 1.9 3.8s-.2-1.6-.8-4.2c-.6-2.5-1.5-6-2.7-9.8-.3-1.1-.6-2.1-.9-3.2-1-3.8-1.9-7.2-2.5-9.7-.5-2.5-.8-4.1-.8-4.1s-.3 1.6-.3 4.2.4 6.3 1.4 10.2l.9 3.3zm-93.2 37.6c2.8-4 5.1-7.9 6.6-10.8 1.5-2.9 2.2-4.8 2.2-4.8l-3.2 4.2c-1.9 2.6-4.7 6.1-7.5 10.1l-2.4 3.5c-2.8 4.1-4.9 8.1-6.2 11.1-1.3 3-1.8 4.9-1.8 4.9s1.1-1.7 2.8-4.4c1.8-2.7 4.3-6.3 7-10.3l2.5-3.5zm44.5 6.2c4.7 7.7 9 13.7 9 13.7s-2.4-7.1-7.1-14.8l-2-3.3c-4.7-7.7-9.6-13.3-9.6-13.3s3 6.8 7.8 14.5l1.9 3.2zm58-5.1c.2 6.7 1.3 12.1 1.3 12.1s1.1-5.4.9-12.1l-.1-2.9c-.2-6.7-1.3-12.1-1.3-12.1s-1.1 5.4-.9 12.1l.1 2.9zm34.7 4.8c3.8 4 7.9 7.2 11.1 9.1 3.2 1.9 5.3 2.6 5.3 2.6s-1.9-1.2-4.7-3.5c-2.8-2.3-6.3-5.7-10.1-9.7l-3.3-3.4c-3.8-4-7.6-7.5-10.6-9.6-3-2.1-5.1-3.1-5.1-3.1s1.8 1.4 4.4 3.9c2.6 2.5 5.9 6.2 9.7 10.2l3.3 3.5zM259 55c3-4.6 5.5-9 7.1-12.2 1.6-3.3 2.4-5.4 2.4-5.4l-3.4 4.8c-2.1 3-5 7-8 11.6l-2.6 4c-3 4.6-5.4 9.1-7 12.4-1.5 3.3-2.3 5.4-2.3 5.4l3.2-4.9c2-3 4.8-7.1 7.9-11.7l2.7-4z"/><path d="M296.5 51.9c-.5-5.1-1.3-9.8-2.1-13.1-.8-3.3-1.5-5.3-1.5-5.3l1.4 18.6.4 4.4c.4 5.1 1.2 9.8 1.9 13.1.7 3.3 1.3 5.3 1.3 5.4l-.2-5.5c-.1-3.4-.3-8-.8-13.2l-.4-4.4zm98.7 9.6c1.4 4 2.9 7.5 4.1 10 1.2 2.5 1.9 4 1.9 4s-.2-1.7-.9-4.4c-.6-2.7-1.7-6.4-3-10.3-.4-1.1-.8-2.3-1.1-3.4-1.3-4-2.4-7.5-3.2-10.2-.8-2.6-1.2-4.3-1.2-4.3s-.1 1.7.1 4.5.9 6.6 2.2 10.6c.4 1.2.7 2.4 1.1 3.5z"/></g><text transform="translate(176.338 272.368)" fill="#FFBA31" font-family="'Noteworthy-Light'" font-size="87.781">Cabana</text></svg>